/* XPM */
static char * bg_timer_xpm[] = {
"30 9 47 1",
" 	c None",
".	c #000000",
"+	c #0B0C0B",
"@	c #0B0C0C",
"#	c #111312",
"$	c #252927",
"%	c #151817",
"&	c #3C4340",
"*	c #3B423F",
"=	c #3D4441",
"-	c #434B48",
";	c #464E4A",
">	c #363C39",
",	c #444C48",
"'	c #464E4B",
")	c #363C3A",
"!	c #3E4542",
"~	c #373D3B",
"{	c #151716",
"]	c #383E3C",
"^	c #3F4643",
"/	c #454C49",
"(	c #484F4C",
"_	c #383F3C",
":	c #1D201F",
"<	c #444C49",
"[	c #474F4B",
"}	c #474F4C",
"|	c #4D5652",
"1	c #4D5552",
"2	c #404744",
"3	c #353B38",
"4	c #4E5753",
"5	c #4F5854",
"6	c #515A56",
"7	c #555F5B",
"8	c #59635F",
"9	c #181B1A",
"0	c #323735",
"a	c #323835",
"b	c #333936",
"c	c #343937",
"d	c #343A38",
"e	c #343A37",
"f	c #3A403D",
"g	c #434A47",
"h	c #333937",
".+++++++++++++++@@@++++@+@@#$#",
"%&&&&&&&&&&&&&&&&&&***&&&==-;>",
"%&&&&&&&&&&&&&&&&&&***&&===,')",
"%&&&&&&&&&&&&&&&&&&&**&&==!,'~",
"{&&&&&&&&&&&&&&==&&&&&&===!,']",
"%&&&&&&&&&&&&&&===&&&&&==!^/(_",
":<////////////;;;;;;;;;;;[}|12",
"344444444444445555555555666784",
"90aaaaaaabbbbbbcccddddccccefgh"};
