/* XPM */
static char * buttom_sweep_up_xpm[] = {
"7 18 35 1",
" 	c None",
".	c #FFFFFF",
"+	c #F8ECEC",
"@	c #FBF6F6",
"#	c #EED1D1",
"$	c #F1DADA",
"%	c #F4E3E3",
"&	c #E4B7B7",
"*	c #E7BFBF",
"=	c #EAC8C8",
"-	c #DA9B9B",
";	c #DDA4A4",
">	c #E0ADAD",
",	c #D08080",
"'	c #D38989",
")	c #D69292",
"!	c #C66666",
"~	c #C96F6F",
"{	c #BC4B4B",
"]	c #C35E5E",
"^	c #CA7272",
"/	c #CD7979",
"(	c #D08181",
"_	c #D28686",
":	c #D48D8D",
"<	c #D79494",
"[	c #DA9C9C",
"}	c #D99999",
"|	c #DCA1A1",
"1	c #DEA8A8",
"2	c #E1B0B0",
"3	c #E3B5B5",
"4	c #E6BCBC",
"5	c #E8C1C1",
"6	c #EFD5D5",
"  .    ",
"  +@   ",
"  #$%  ",
"  &*=# ",
"  -;>& ",
"  ,')  ",
"  !~   ",
"  {    ",
"       ",
"       ",
"  {    ",
"  ]!   ",
"  ^/(  ",
"  _:<[ ",
"  }|12 ",
"  >34  ",
"  5=   ",
"  6    "};
