/* XPM */
static char * buttom_sweep_dn_xpm[] = {
"7 18 23 1",
" 	c None",
".	c #FFFFFF",
"+	c #F3E1E1",
"@	c #E8C3C3",
"#	c #DDA5A5",
"$	c #D28787",
"%	c #C76969",
"&	c #BC4B4B",
"*	c #BF5353",
"=	c #C05858",
"-	c #C25C5C",
";	c #C96E6E",
">	c #CF7F7F",
",	c #C46060",
"'	c #CA7272",
")	c #D18484",
"!	c #D79595",
"~	c #D28888",
"{	c #D99A9A",
"]	c #DFABAB",
"^	c #E1AFAF",
"/	c #E8C1C1",
"(	c #F0D7D7",
"    .  ",
"   .+  ",
"  .+@  ",
" .+@#  ",
" +@#$  ",
"  #$%  ",
"   %&  ",
"    &  ",
"       ",
"       ",
"    &  ",
"   &*  ",
"  &=%  ",
" &-;>  ",
" ,')!  ",
"  ~{]  ",
"   ^/  ",
"    (  "};
