/* XPM */
static char * krell_vu_xpm[] = {
"60 4 2 1",
" 	c None",
".	c #000000",
" .  .  .  .  .  .  .  .  .  .  .  .  .  .  .  .  .  .  .  . ",
" .  .  .  .  .  .  .  .  .  .  .  .  .  .  .  .  .  .  .  . ",
" .  .  .  .  .  .  .  .  .  .  .  .  .  .  .  .  .  .  .  . ",
" .  .  .  .  .  .  .  .  .  .  .  .  .  .  .  .  .  .  .  . "};
