/* XPM */
static char * krell_vu_peak_xpm[] = {
"3 30 21 1",
" 	c None",
".	c #848CAD",
"+	c #6D7492",
"@	c #9BA1C3",
"#	c #63657C",
"$	c #4CA0C9",
"%	c #2F81A7",
"&	c #9CCAE7",
"*	c #16658E",
"=	c #86B845",
"-	c #618C28",
";	c #C2E69B",
">	c #497812",
",	c #FFE377",
"'	c #F4EEA4",
")	c #FFC814",
"!	c #D3C84A",
"~	c #F7511E",
"{	c #D6380D",
"]	c #F87845",
"^	c #A12600",
"..+",
".@#",
".@#",
".@#",
".@#",
"+##",
"$$%",
"$&*",
"$&*",
"$&*",
"$&*",
"%**",
"==-",
"=;>",
"=;>",
"=;>",
"=;>",
"->>",
",,'",
",)!",
",)!",
",)!",
",)!",
"'!!",
"~~{",
"~]^",
"~]^",
"~]^",
"~]^",
"{^^"};
