/* XPM */
static char * krell_sensitivity_xpm[] = {
"8 12 43 1",
" 	c None",
".	c #000000",
"+	c #121212",
"@	c #727272",
"#	c #1B1B1B",
"$	c #292929",
"%	c #2B2B2B",
"&	c #303030",
"*	c #323232",
"=	c #404040",
"-	c #424242",
";	c #444444",
">	c #474747",
",	c #494949",
"'	c #575757",
")	c #595959",
"!	c #5B5B5B",
"~	c #5E5E5E",
"{	c #606060",
"]	c #6E6E6E",
"^	c #707070",
"/	c #757575",
"(	c #777777",
"_	c #858585",
":	c #878787",
"<	c #898989",
"[	c #8C8C8C",
"}	c #8E8E8E",
"|	c #9C9C9C",
"1	c #9E9E9E",
"2	c #A0A0A0",
"3	c #A3A3A3",
"4	c #A5A5A5",
"5	c #B3B3B3",
"6	c #B5B5B5",
"7	c #B7B7B7",
"8	c #BABABA",
"9	c #BCBCBC",
"0	c #201F2D",
"a	c #CCCCCC",
"b	c #CECECE",
"c	c #D1D1D1",
"d	c #E5E5E5",
"....... ",
".+@@@#. ",
".$%@&*. ",
".=-;>,. ",
".')!~{. ",
".]^@/(. ",
"._:<[}. ",
".|1234. ",
".56789. ",
" 0abc.  ",
"  .d.   ",
"   .    "};
