/* XPM */
static char * frame_horizontal_xpm[] = {
"80 5 152 2",
"  	c None",
". 	c #010101",
"+ 	c #1F1F1F",
"@ 	c #303030",
"# 	c #242424",
"$ 	c #1D1D1D",
"% 	c #1E1E1E",
"& 	c #202020",
"* 	c #040404",
"= 	c #000000",
"- 	c #0C0C0C",
"; 	c #020202",
"> 	c #2C2C2C",
", 	c #2E2E2E",
"' 	c #2B2B2B",
") 	c #393939",
"! 	c #3B3B3B",
"~ 	c #3E3E3E",
"{ 	c #424242",
"] 	c #4A4A4A",
"^ 	c #505050",
"/ 	c #535353",
"( 	c #555555",
"_ 	c #565656",
": 	c #585858",
"< 	c #5A5A5A",
"[ 	c #5B5B5B",
"} 	c #5C5C5C",
"| 	c #5D5D5D",
"1 	c #5E5E5E",
"2 	c #5F5F5F",
"3 	c #606060",
"4 	c #616161",
"5 	c #626262",
"6 	c #636363",
"7 	c #646464",
"8 	c #656565",
"9 	c #666666",
"0 	c #686868",
"a 	c #696969",
"b 	c #6A6A6A",
"c 	c #6B6B6B",
"d 	c #717171",
"e 	c #7A7A7A",
"f 	c #818181",
"g 	c #888888",
"h 	c #969696",
"i 	c #A1A1A1",
"j 	c #AAAAAA",
"k 	c #AEAEAE",
"l 	c #B7B7B7",
"m 	c #B8B8B8",
"n 	c #BBBBBB",
"o 	c #C0C0C0",
"p 	c #D0D0D0",
"q 	c #DCDCDC",
"r 	c #D4D4D4",
"s 	c #C6C6C6",
"t 	c #8D8D8D",
"u 	c #6D6D6D",
"v 	c #4E4E4E",
"w 	c #121212",
"x 	c #323232",
"y 	c #2A2A2A",
"z 	c #222222",
"A 	c #2D2D2D",
"B 	c #373737",
"C 	c #414141",
"D 	c #444444",
"E 	c #454545",
"F 	c #464646",
"G 	c #484848",
"H 	c #474747",
"I 	c #494949",
"J 	c #4B4B4B",
"K 	c #4C4C4C",
"L 	c #4F4F4F",
"M 	c #515151",
"N 	c #575757",
"O 	c #595959",
"P 	c #676767",
"Q 	c #777777",
"R 	c #7D7D7D",
"S 	c #878787",
"T 	c #898989",
"U 	c #8A8A8A",
"V 	c #929292",
"W 	c #A0A0A0",
"X 	c #999999",
"Y 	c #747474",
"Z 	c #313131",
"` 	c #282828",
" .	c #212121",
"..	c #1B1B1B",
"+.	c #1A1A1A",
"@.	c #262626",
"#.	c #272727",
"$.	c #292929",
"%.	c #343434",
"&.	c #363636",
"*.	c #383838",
"=.	c #3A3A3A",
"-.	c #3C3C3C",
";.	c #3F3F3F",
">.	c #404040",
",.	c #434343",
"'.	c #525252",
").	c #252525",
"!.	c #0A0A0A",
"~.	c #1C1C1C",
"{.	c #232323",
"].	c #2F2F2F",
"^.	c #333333",
"/.	c #353535",
"(.	c #3D3D3D",
"_.	c #0B0B0B",
":.	c #4D4D4D",
"<.	c #0D0D0D",
"[.	c #6F6F6F",
"}.	c #858585",
"|.	c #838383",
"1.	c #7F7F7F",
"2.	c #6C6C6C",
"3.	c #191919",
"4.	c #181818",
"5.	c #171717",
"6.	c #0F0F0F",
"7.	c #7C7C7C",
"8.	c #919191",
"9.	c #ACACAC",
"0.	c #B3B3B3",
"a.	c #B6B6B6",
"b.	c #A2A2A2",
"c.	c #979797",
"d.	c #8F8F8F",
"e.	c #848484",
"f.	c #7B7B7B",
"g.	c #545454",
"h.	c #161616",
"i.	c #111111",
"j.	c #868686",
"k.	c #8B8B8B",
"l.	c #8E8E8E",
"m.	c #757575",
"n.	c #737373",
"o.	c #727272",
"p.	c #030303",
"q.	c #060606",
"r.	c #090909",
"s.	c #070707",
"t.	c #080808",
"u.	c #050505",
"= ` # + % $ $ #.Z ) ;.G :.E >.! ) B %.x @ , > ` ` # {.{. .z & % % $ $ $ ..~.$ % $ $ $ % ~.% % + % & & &  .& +  .{.& z z z {.{.# ).#.#.$.@.# ).#.y , @ x %.#.<.= ",
"= , y @.].&.-.^ 6 [.e }.t T |.1.Y [.d 2.9 6 | _ ^ K D ;.(.=.*.x @ A $.#.{.& $ ~.+.3.4.5.4.4.4.4.+.+.$ + z # ).@.` $.$.y ' > > A A A A ' > ]./.&.=.-.-.(.-.A 6.= ",
"= {.z ).=.v 6 7.8.9.0.l m m n a.9.j j b.X c.d.U e.f.[.9 7 1 N g.M :.J H C &.@ Z ].y @.{. .% ..3.4.5.h.4...%  .# ).` $., , Z %./.B ) *.*.! ~ C { D E E D C @ i.. ",
"= ].Z %.! { K ( | j.k.l.l.T k.t e.e.|.e m.n.o.u u u c b b 4 [ : ( g.^ v I { >.>.;.-.*.B x @ A $.@.#  . .+ &  .+ $ $ % + & z {.@.@.#.` y , x =.-.;.C { C ~ , 6.= ",
"w p.q.r.!.!.r.- 6.i.6.- r.!.s.!.t.s.s.* * * ; ; ; * u.* u.; . . . . . . . = = = = = = = = = = = = = = = = = = = = = = = = = = = = = = = = . = = = = = = = = = = "};
