/* XPM */
static char * bg_meter_host_xpm[] = {
"68 9 43 1",
" 	c None",
".	c #2B2B2B",
"+	c #2C2C2C",
"@	c #2D2D2D",
"#	c #2E2E2E",
"$	c #2F2F2F",
"%	c #303030",
"&	c #313131",
"*	c #323232",
"=	c #333333",
"-	c #343434",
";	c #353535",
">	c #363636",
",	c #373737",
"'	c #383838",
")	c #393939",
"!	c #3A3A3A",
"~	c #3B3B3B",
"{	c #3C3C3C",
"]	c #3D3D3D",
"^	c #3E3E3E",
"/	c #3F3F3F",
"(	c #404040",
"_	c #414141",
":	c #424242",
"<	c #434343",
"[	c #444444",
"}	c #454545",
"|	c #464646",
"1	c #474747",
"2	c #484848",
"3	c #494949",
"4	c #4A4A4A",
"5	c #4B4B4B",
"6	c #4C4C4C",
"7	c #4D4D4D",
"8	c #4E4E4E",
"9	c #4F4F4F",
"0	c #505050",
"a	c #515151",
"b	c #525252",
"c	c #535353",
"d	c #545454",
"..++@##$$%&&*==--;>>,,'))!~~{{]^^//(__:<<[[}||1223345566788900aabccd",
"..++@##$$%&&*==--;>>,,'))!~~{{]^^//(__:<<[[}||1223345566788900aabccd",
"..++@##$$%&&*==--;>>,,'))!~~{{]^^//(__:<<[[}||1223345566788900aabccd",
"..++@##$$%&&*==--;>>,,'))!~~{{]^^//(__:<<[[}||1223345566788900aabccd",
"..++@##$$%&&*==--;>>,,'))!~~{{]^^//(__:<<[[}||1223345566788900aabccd",
"..++@##$$%&&*==--;>>,,'))!~~{{]^^//(__:<<[[}||1223345566788900aabccd",
"..++@##$$%&&*==--;>>,,'))!~~{{]^^//(__:<<[[}||1223345566788900aabccd",
"..++@##$$%&&*==--;>>,,'))!~~{{]^^//(__:<<[[}||1223345566788900aabccd",
"..++@##$$%&&*==--;>>,,'))!~~{{]^^//(__:<<[[}||1223345566788900aabccd"};
