/* XPM */
static char * bg_chart_xpm[] = {
"60 40 9 1",
" 	c None",
".	c #434A47",
"+	c #424946",
"@	c #414845",
"#	c #404744",
"$	c #3F4643",
"%	c #3E4542",
"&	c #3D4441",
"*	c #3C4340",
"....++++++++++......++@@@##$$$$%%%%%%%%%%%&&&&&&************",
"....++++++++++.....+++@@###$$$$$$%%%%%%%%%%%&&&&*******&&&**",
"...++++++++++++++++++@@@###$$$$$$$$$$%%%%%%%%%&&&&&*&&&&&&&&",
"...+++++++++++++++++@@@####$$$$$$$$$$$$$$$%%%%%&&&&&&&&&&&&&",
"...++++++++++++++++@@@#####$$$$$$$$$$$$$$$$%%%%%&&&&&&%%%%%%",
"...++++++++++++@@@@@@####$$$$$$$$$$###$$$$$$$%%%&&&&%%%%%%%%",
"..++++++@@@@@@@@@@@@######$$$$$$$$#####$$$$$$%%%&&&&%%%%%%%%",
".++++@@@@@@@@@@@@@@######$$$$$$$$$#######$$$%%%&&&&&%%%%$$$$",
".+++@@@@@@@@@@@@########$$$$$$$$$$#######$$$%%%&&&&&&%%%$$$$",
".+++@@@@@##############$$$$%%%$$$$#######$$$%%%&&&&&&%%%$$$$",
"+++@@@@############$$$$$$%%%%%%$$$$######$$$%%%&&&&&&%%%%$$$",
"+++@@@############$$$$$$%%%%%%%%$$$######$$$%%%&&&&&&&%%%%$$",
"+++@@@###$$$$$$$$$$%%%%%%%%%%%%%$$$######$$$%%%&&&&&&&%%%%$$",
"++@@@@##$$$$$$$$$$$%%%%%%%%%%%%%$$$######$$$$%%%%&&&&&&&%%%$",
"@@@@@###$$%%%%%$$$%%%%%%%%%%%%%%%$$$$$$$$$$$$%%%%%&&&&&&%%%%",
"@@@@###$$$%%%%%%$$%%%%%%%%%%%%%%%$$$$$$$##$$$$$%%%%%&&&&&&%%",
"@@@@###$$%%&&%%%%%%%%%%%%%%%%%%%$$$$$$$$$##$$$$%%%%&&&&&&&%%",
"@@####$$$%%&&&%%%%%%%%%%%%%%%%%%$$$$$$$$$$$$$$$$%%%&&&&&&&&&",
"@@####$$%%%&&&%%%%%%%%%%%%%%%%%%$$$$$$$$$$$$$$$$%%%%&&&&&&&&",
"@####$$$%%&&&&%%%%%%%%%%%%%%%%%%$$$$$$$$$$$$$$$$%%%%&&&&&&&&",
"@####$$%%%&&&&%%%%%%%%%%%%%%%%%$$$$$$$$$$$$$$$$$%%%%%&&&&&&&",
"@@###$$%%%&&&&%%%%%%%%%%%%%%%%%$$$%%%%%$$$$$$$$$%%%%%%&&&%%%",
"@@###$$$%%%%%%%%%%%%%%%%%%%%%%%$$$%%%%%%%%$$$$$$$%%%%%%%%%%%",
"@@####$$%%%%%%%%%%%%%%%%%%%%%%%$$$%%%%%%%%%%%%%$$$$$$%%%%%%%",
"@@@###$$$%%%%%%$$$$$%%%%%%%%%%%%%%%%%%%%%%%%%%%%$$$$$$$$$$$$",
"@@@@##$$$$$$$$$$$$$$$$$$%%%%%%%%%%%%%&&&&%%%%%%%%$$$$$$$$$$$",
"@@@@####$$$$$$$$$$$$$$$$%%%%%%%%%%%&&&&&&&%%%%%%%%$$$$$$$$$$",
"++@@@######$$$$$$$$$$$$$%%%%%%%%&&&&&&&&&&&&%%%%%%$$$$$$$$$$",
"++@@@###############$$$%%%%%%%&&&&&&&&&&&&&&&%%%%%$$$$$#####",
"++@@@###############$$$%%%%&&&&&&&&&&&**&&&&&&%%%%$$$$######",
"+@@@################$$$%%%%&&&&&&&&&&***&&&&&&&%%%$$$$######",
"+@@@############$$$$$$$%%%&&&&&&&&&&&&&&&&&&&&&%%%$$$$######",
"@@@@#####$$$$###$$$$$$$%%%&&&&&&&&&&&&&&&&&&&&&%%%$$$$######",
"@@@######$$$$###$$$##$$%%&&&&&&*****&&&&&&&&&&&%%%$$$$######",
"@@#####$$$$$$####$$##$$%%&&&&&&&&&&&&&&&&&&&&&&%%$$$$$######",
"######$$$$$$$$$$$$$##$$%%%&&&&&&&&&&&&&&&&&&&&&%%$$$$$$#####",
"######$$$$$$$$$$$$$$$$$%%%&&&&&&&&&&&&&&&&&&&&%%%$$$$$$#####",
"######$$$$$$$$$$$$$$$$%%%%&&&&&&&&&&&&&&&&&&%%%%$$$$$$$#####",
"######$$$$$%%%%%$$$$%%%%%&&&&&&&&&&&&&&&&&%%%%%%%$$$$$$#####",
"#####$$$$$%%%%%%%$$%%%&&&&&&&&&&&&&&&&&&&&&&&%%%%$$$$$$$$$$$"};
