/* XPM */
static char * bg_meter_xpm[] = {
"60 9 107 2",
"  	c None",
". 	c #272727",
"+ 	c #282828",
"@ 	c #292929",
"# 	c #2A2A2A",
"$ 	c #2B2B2B",
"% 	c #2C2C2C",
"& 	c #2D2D2D",
"* 	c #2E2E2E",
"= 	c #2F2F2F",
"- 	c #303030",
"; 	c #313131",
"> 	c #323232",
", 	c #333333",
"' 	c #343434",
") 	c #353535",
"! 	c #363636",
"~ 	c #373737",
"{ 	c #383838",
"] 	c #393939",
"^ 	c #3A3A3A",
"/ 	c #3B3B3B",
"( 	c #3C3C3C",
"_ 	c #3D3D3D",
": 	c #3E3E3E",
"< 	c #595959",
"[ 	c #585858",
"} 	c #575757",
"| 	c #565656",
"1 	c #555555",
"2 	c #545454",
"3 	c #535353",
"4 	c #525252",
"5 	c #515151",
"6 	c #505050",
"7 	c #4F4F4F",
"8 	c #4E4E4E",
"9 	c #4D4D4D",
"0 	c #4C4C4C",
"a 	c #4B4B4B",
"b 	c #4A4A4A",
"c 	c #494949",
"d 	c #484848",
"e 	c #474747",
"f 	c #464646",
"g 	c #454545",
"h 	c #444444",
"i 	c #434343",
"j 	c #424242",
"k 	c #414141",
"l 	c #404040",
"m 	c #3F3F3F",
"n 	c #5A5A5A",
"o 	c #9C9C9C",
"p 	c #9B9B9B",
"q 	c #999999",
"r 	c #989898",
"s 	c #979797",
"t 	c #969696",
"u 	c #959595",
"v 	c #949494",
"w 	c #929292",
"x 	c #919191",
"y 	c #909090",
"z 	c #8E8E8E",
"A 	c #8D8D8D",
"B 	c #8C8C8C",
"C 	c #8B8B8B",
"D 	c #8A8A8A",
"E 	c #898989",
"F 	c #878787",
"G 	c #868686",
"H 	c #858585",
"I 	c #848484",
"J 	c #828282",
"K 	c #818181",
"L 	c #808080",
"M 	c #7E7E7E",
"N 	c #7D7D7D",
"O 	c #7C7C7C",
"P 	c #7B7B7B",
"Q 	c #7A7A7A",
"R 	c #797979",
"S 	c #777777",
"T 	c #767676",
"U 	c #757575",
"V 	c #747474",
"W 	c #737373",
"X 	c #717171",
"Y 	c #707070",
"Z 	c #6F6F6F",
"` 	c #6E6E6E",
" .	c #6C6C6C",
"..	c #6B6B6B",
"+.	c #6A6A6A",
"@.	c #686868",
"#.	c #676767",
"$.	c #666666",
"%.	c #656565",
"&.	c #646464",
"*.	c #636363",
"=.	c #626262",
"-.	c #606060",
";.	c #5F5F5F",
">.	c #5E5E5E",
",.	c #5C5C5C",
"'.	c #5B5B5B",
". + + @ @ @ # # # $ $ % % % & & & * * = = = - - - ; ; > > > , , , ' ' ) ) ) ! ! ! ~ ~ { { { ] ] ] ^ ^ / / / ( ( ( _ _ : ",
"+ + < [ } } | 1 2 3 4 5 6 7 8 9 9 0 a b b c d e f g h i j j k l m m : _ ( / ^ ] { { ~ ! ) ' , > ; - - = * & & % $ # _ : ",
"+ + [ + + @ @ # # # $ $ % % & & & * * = = - - - ; ; > > > , , ' ' ) ) ) ! ! ~ ~ { { { ] ] ^ ^ / / / ( ( _ _ _ : : n _ : ",
"+ + [ + + @ @ # # # $ $ % % & & & * * = = - - - ; ; > > , , , ' ' ) ) ) ! ! ~ ~ { { { ] ] ^ ^ / / / ( ( _ _ _ : : n _ : ",
"+ + [ + + @ @ # # $ $ $ % % & & & * * = = - - - ; ; > > , , , ' ' ) ) ! ! ! ~ ~ { { { ] ] ^ ^ / / / ( ( _ _ : : : n _ : ",
"+ + [ + + @ @ # # $ $ $ % % & & * * * = = - - - ; ; > > , , , ' ' ) ) ! ! ! ~ ~ { { ] ] ] ^ ^ / / / ( ( _ _ : : : n : : ",
"+ + [ + @ @ @ # # $ $ $ % % & & * * * = = - - ; ; ; > > , , , ' ' ) ) ! ! ! ~ ~ { { ] ] ] ^ ^ / / ( ( ( _ _ : : : n : : ",
"+ + o p q r s t u v w x y z A B C D E F G H I J K L M N O P Q R S T U V W X Y Z `  ...+.@.#.$.%.&.*.=.-.;.>.,.'.n < : : ",
"+ + @ @ @ # # $ $ $ % % % & & * * * = = = - - ; ; ; > > > , , ' ' ' ) ) ) ! ! ~ ~ ~ { { { ] ] ^ ^ ^ / / / ( ( _ _ _ : : "};
