/* XPM */
static char * bg_panel_xpm[] = {
"60 13 104 2",
"  	c None",
". 	c #464646",
"+ 	c #454545",
"@ 	c #444444",
"# 	c #434343",
"$ 	c #424242",
"% 	c #414141",
"& 	c #9B9B9B",
"* 	c #9A9A9A",
"= 	c #999999",
"- 	c #989898",
"; 	c #979797",
"> 	c #969696",
", 	c #959595",
"' 	c #949494",
") 	c #939393",
"! 	c #929292",
"~ 	c #3A3A3A",
"{ 	c #393939",
"] 	c #383838",
"^ 	c #373737",
"/ 	c #363636",
"( 	c #353535",
"_ 	c #343434",
": 	c #868686",
"< 	c #858585",
"[ 	c #848484",
"} 	c #838383",
"| 	c #828282",
"1 	c #818181",
"2 	c #808080",
"3 	c #7F7F7F",
"4 	c #7E7E7E",
"5 	c #7D7D7D",
"6 	c #2C2C2C",
"7 	c #2B2B2B",
"8 	c #2A2A2A",
"9 	c #292929",
"0 	c #282828",
"a 	c #272727",
"b 	c #262626",
"c 	c #545454",
"d 	c #535353",
"e 	c #525252",
"f 	c #515151",
"g 	c #505050",
"h 	c #4F4F4F",
"i 	c #4E4E4E",
"j 	c #7C7C7C",
"k 	c #474747",
"l 	c #717171",
"m 	c #707070",
"n 	c #6F6F6F",
"o 	c #6E6E6E",
"p 	c #6D6D6D",
"q 	c #6C6C6C",
"r 	c #6B6B6B",
"s 	c #6A6A6A",
"t 	c #696969",
"u 	c #686868",
"v 	c #676767",
"w 	c #3B3B3B",
"x 	c #666666",
"y 	c #656565",
"z 	c #646464",
"A 	c #636363",
"B 	c #626262",
"C 	c #616161",
"D 	c #7A7A7A",
"E 	c #797979",
"F 	c #787878",
"G 	c #777777",
"H 	c #767676",
"I 	c #757575",
"J 	c #747474",
"K 	c #737373",
"L 	c #727272",
"M 	c #565656",
"N 	c #555555",
"O 	c #4D4D4D",
"P 	c #606060",
"Q 	c #5F5F5F",
"R 	c #5E5E5E",
"S 	c #5D5D5D",
"T 	c #5C5C5C",
"U 	c #5B5B5B",
"V 	c #5A5A5A",
"W 	c #404040",
"X 	c #3F3F3F",
"Y 	c #3E3E3E",
"Z 	c #3D3D3D",
"` 	c #3C3C3C",
" .	c #2D2D2D",
"..	c #2E2E2E",
"+.	c #2F2F2F",
"@.	c #303030",
"#.	c #313131",
"$.	c #323232",
"%.	c #333333",
"&.	c #484848",
"*.	c #494949",
"=.	c #4A4A4A",
"-.	c #4B4B4B",
";.	c #4C4C4C",
". . . + + @ @ # $ $ % % & * = - ; > > , ' ) ) ! ~ { { ] ] ^ / / ( ( _ _ : : < [ } | 1 2 2 3 4 5 6 6 6 7 7 8 9 9 0 0 a b ",
"c d d e f f g g h h i i : : < [ } | 1 2 3 4 5 j k k . . + + @ @ # # $ $ l m n o p q q r s t u v w ~ ~ { { ] ] ^ ^ / / ( ",
"s s t u v x y z A A B C j D E F G H H I J K L l M N c d d e f g g h i O z A B C P Q R S T U U V $ % W X X Y Z ` w ~ { ] ",
"7 7 6  . ...+.+.@.#.#.$.%._ _ ( / / ^ ] { { ~ w w ` Z Z Y X X W % $ $ # @ @ + . k k &.*.*.=.-.-.;.O O i h g g f e e d c ",
"7 7 6  . ...+.+.@.#.#.$.%._ _ ( / / ^ ] { { ~ w w ` Z Z Y X X W % $ $ # @ @ + . k k &.*.*.=.-.-.;.O O i h g g f e e d c ",
"7 7 6  . ...+.+.@.#.#.$.%._ _ ( / / ^ ] { { ~ w w ` Z Z Y X X W % $ $ # @ @ + . k k &.*.*.=.-.-.;.O O i h g g f e e d c ",
"7 7 6  . ...+.+.@.#.#.$.%._ _ ( / / ^ ] { { ~ w w ` Z Z Y X X W % $ $ # @ @ + . k k &.*.*.=.-.-.;.O O i h g g f e e d c ",
"7 7 6  . ...+.+.@.#.#.$.%._ _ ( / / ^ ] { { ~ w w ` Z Z Y X X W % $ $ # @ @ + . k k &.*.*.=.-.-.;.O O i h g g f e e d c ",
"7 7 6  . ...+.+.@.#.#.$.%._ _ ( / / ^ ] { { ~ w w ` Z Z Y X X W % $ $ # @ @ + . k k &.*.*.=.-.-.;.O O i h g g f e e d c ",
"7 7 6  . ...+.+.@.#.#.$.%._ _ ( / / ^ ] { { ~ w w ` Z Z Y X X W % $ $ # @ @ + . k k &.*.*.=.-.-.;.O O i h g g f e e d c ",
"7 7 6  . ...+.+.@.#.#.$.%._ _ ( / / ^ ] { { ~ w w ` Z Z Y X X W % $ $ # @ @ + . k k &.*.*.=.-.-.;.O O i h g g f e e d c ",
"7 7 6  . ...+.+.@.#.#.$.%._ _ ( / / ^ ] { { ~ w w ` Z Z Y X X W % $ $ # @ @ + . k k &.*.*.=.-.-.;.O O i h g g f e e d c ",
"7 7 6  . ...+.+.@.#.#.$.%._ _ ( / / ^ ] { { ~ w w ` Z Z Y X X W % $ $ # @ @ + . k k &.*.*.=.-.-.;.O O i h g g f e e d c "};
