/* XPM */
static char * decal_timer_button_xpm[] = {
"16 40 176 2",
"  	c None",
". 	c #E3E3E3",
"+ 	c #D9D9D9",
"@ 	c #CFCFCF",
"# 	c #CECECE",
"$ 	c #D0D0D0",
"% 	c #C8C8C8",
"& 	c #B8B8B8",
"* 	c #DDDDDD",
"= 	c #D5D5D5",
"- 	c #C4C4C4",
"; 	c #B6B6B6",
"> 	c #B7B7B7",
", 	c #AEAEAE",
"' 	c #868686",
") 	c #616161",
"! 	c #C5C5C5",
"~ 	c #B5B5B5",
"{ 	c #5D5D5D",
"] 	c #575757",
"^ 	c #585858",
"/ 	c #4D4D4D",
"( 	c #858585",
"_ 	c #252525",
": 	c #BDBDBD",
"< 	c #AAAAAA",
"[ 	c #C7C7C7",
"} 	c #CBCBCB",
"| 	c #D2D2D2",
"1 	c #D6D6D6",
"2 	c #D1D1D1",
"3 	c #CACACA",
"4 	c #C6C6C6",
"5 	c #A9A9A9",
"6 	c #BCBCBC",
"7 	c #7B7B7B",
"8 	c #181818",
"9 	c #BABABA",
"0 	c #A6A6A6",
"a 	c #545454",
"b 	c #9D9D9D",
"c 	c #A4A4A4",
"d 	c #ACACAC",
"e 	c #B2B2B2",
"f 	c #A3A3A3",
"g 	c #939393",
"h 	c #797979",
"i 	c #B9B9B9",
"j 	c #B1B1B1",
"k 	c #9C9C9C",
"l 	c #B3B3B3",
"m 	c #757575",
"n 	c #919191",
"o 	c #464646",
"p 	c #7A7A7A",
"q 	c #808080",
"r 	c #878787",
"s 	c #8A8A8A",
"t 	c #848484",
"u 	c #727272",
"v 	c #6B6B6B",
"w 	c #717171",
"x 	c #737373",
"y 	c #B0B0B0",
"z 	c #6E6E6E",
"A 	c #969696",
"B 	c #767676",
"C 	c #686868",
"D 	c #636363",
"E 	c #383838",
"F 	c #484848",
"G 	c #6D6D6D",
"H 	c #818181",
"I 	c #373737",
"J 	c #454545",
"K 	c #4A4A4A",
"L 	c #494949",
"M 	c #6A6A6A",
"N 	c #424242",
"O 	c #5C5C5C",
"P 	c #E0E0E0",
"Q 	c #C3C3C3",
"R 	c #8F8F8F",
"S 	c #949494",
"T 	c #A5A5A5",
"U 	c #474747",
"V 	c #CDCDCD",
"W 	c #A8A8A8",
"X 	c #999999",
"Y 	c #525252",
"Z 	c #838383",
"` 	c #656565",
" .	c #676767",
"..	c #262626",
"+.	c #595959",
"@.	c #828282",
"#.	c #707070",
"$.	c #666666",
"%.	c #7C7C7C",
"&.	c #5A5A5A",
"*.	c #242424",
"=.	c #ADADAD",
"-.	c #6F6F6F",
";.	c #6C6C6C",
">.	c #696969",
",.	c #4C4C4C",
"'.	c #212121",
").	c #2B2B2B",
"!.	c #959595",
"~.	c #3D3D3D",
"{.	c #353535",
"].	c #2D2D2D",
"^.	c #BEBEBE",
"/.	c #B4B4B4",
"(.	c #DFDFDF",
"_.	c #BFBFBF",
":.	c #E4E4E4",
"<.	c #D78080",
"[.	c #DC8585",
"}.	c #DE8B8B",
"|.	c #E39292",
"1.	c #E69595",
"2.	c #E39090",
"3.	c #DA8585",
"4.	c #D67F7F",
"5.	c #AA5353",
"6.	c #BE6363",
"7.	c #854C4C",
"8.	c #964F4F",
"9.	c #A85353",
"0.	c #B15858",
"a.	c #A15252",
"b.	c #944F4F",
"c.	c #834C4C",
"d.	c #764747",
"e.	c #563131",
"f.	c #9E5151",
"g.	c #553030",
"h.	c #5E3535",
"i.	c #653C3C",
"j.	c #6A3F3F",
"k.	c #633A3A",
"l.	c #5C3535",
"m.	c #542F2F",
"n.	c #4C2B2B",
"o.	c #452626",
"p.	c #898989",
"q.	c #A2EBA2",
"r.	c #A9EFA9",
"s.	c #B1F2B1",
"t.	c #BCF3BC",
"u.	c #C2F7C2",
"v.	c #CDF8CD",
"w.	c #C4F7C4",
"x.	c #B3F2B3",
"y.	c #8BE08B",
"z.	c #89DE89",
"A.	c #70C970",
"B.	c #7BD47B",
"C.	c #88DD88",
"D.	c #95E695",
"E.	c #A4EDA4",
"F.	c #98E798",
"G.	c #8BDE8B",
"H.	c #7DD67D",
"I.	c #53AC53",
"J.	c #62BD62",
"K.	c #4B7E4B",
"L.	c #4D8A4D",
"M.	c #4F964F",
"N.	c #52A352",
"O.	c #55AE55",
"P.	c #52A552",
"Q.	c #509750",
"R.	c #4E8B4E",
"S.	c #4B804B",
"  . + @ # # @ @ $ $ $ $ @ % &   ",
"* = - ; ; ; ; ; ; ; ; ; > , ' ) ",
"! ~ { ] ] ] ] ] ] ] ^ ^ ^ / ( _ ",
": < ] [ } @ | 1 2 @ 3 4 5 6 7 8 ",
"9 0 a ~ b c d e < f b g h i h 8 ",
"j k / ~ b c d e < f b g h l m 8 ",
"5 n o c p q r s t q h u v , w 8 ",
"c s x y y y j j j j j j j 5 z 8 ",
"A 7 s p p p p p p p p h h B C 8 ",
"  D E 8 8 8 8 8 8 8 8 8 8 8 8   ",
"  8 8 8 8 8 8 8 8 8 8 8 8 F G H ",
"8 I J F F K K K K L L L L M r   ",
"8 N O P | # # @ $ $ $ @ Q R S T ",
"8 U V 9 W f f f f T T T ( U X < ",
"8 Y 6 f Z m M D ) ` G B  ...c e ",
"8 +.j A @.7 #.C $.M u %.&.*.=.9 ",
"8 O 0 ( u -.;.M >.M G #.,.'.j : ",
").#.!. .~.{.{.{.{.{.{.{.].~.^.% ",
">.k /.i i i i i i & & & i V + (.",
"  _.} @ $ $ $ $ @ @ # @ $ * :.  ",
"  . + @ # # @ @ $ $ $ $ @ % &   ",
"* = - ; ; ; ; ; ; ; ; ; > , ' ) ",
"! ~ { ] ] ] ] ] ] ] ^ ^ ^ / ( _ ",
": < ] <.[.}.|.1.2.}.3.4.5.6 7 8 ",
"9 0 a 6.7.8.9.0.a.b.c.d.e.i h 8 ",
"j k / 6.7.8.9.0.a.b.c.d.e.l m 8 ",
"5 n o f.g.h.i.j.k.l.m.n.o., w 8 ",
"c s x y y y j j j j j j j 5 z 8 ",
"A 7 s p p p p p p p p h h B C 8 ",
"  D E 8 8 8 8 8 8 8 8 8 8 8 8   ",
"  . + @ # # @ @ $ $ $ $ @ % &   ",
"* = - ; ; ; ; ; ; ; ; ; > , ' ) ",
"! ~ { ] ] ] ] ] ^ ] ^ ^ ^ p.( _ ",
": < ] q.r.s.t.u.v.w.t.x.y.6 7 8 ",
"9 0 a z.A.B.C.D.E.F.G.H.I.i h 8 ",
"j k / z.A.B.C.D.E.F.G.H.I.l m 8 ",
"5 n o J.K.L.M.N.O.P.Q.R.S., w 8 ",
"c s x y y y j j j j j j j 5 z 8 ",
"A 7 s p p p p p p p p h h B C 8 ",
"  D E 8 8 8 8 8 8 8 8 8 8 8 8   "};
