/* XPM */
static char * frame_left_xpm[] = {
"8 32 7 1",
" 	c None",
".	c #555555",
"+	c #4C4C4C",
"@	c #444444",
"#	c #3C3C3C",
"$	c #343434",
"%	c #2B2B2B",
".+@#$%%%",
".+@#$%%%",
".+@#$%%%",
".+@#$%%%",
".+@#$%%%",
".+@#$%%%",
".+@#$%%%",
".+@#$%%%",
".+@#$%%%",
".+@#$%%%",
".+@#$%%%",
".+@#$%%%",
".+@#$%%%",
".+@#$%%%",
".+@#$%%%",
".+@#$%%%",
".+@#$%%%",
".+@#$%%%",
".+@#$%%%",
".+@#$%%%",
".+@#$%%%",
".+@#$%%%",
".+@#$%%%",
".+@#$%%%",
".+@#$%%%",
".+@#$%%%",
".+@#$%%%",
".+@#$%%%",
".+@#$%%%",
".+@#$%%%",
".+@#$%%%",
".+@#$%%%"};
