/* XPM */
static char * frame_bottom_xpm[] = {
"68 2 11 1",
" 	c None",
".	c #5C5C5C",
"+	c #545454",
"@	c #494949",
"#	c #5D5D5D",
"$	c #4C4C4C",
"%	c #4D4D4D",
"&	c #424242",
"*	c #333333",
"=	c #3C3C3C",
"-	c #2B2B2B",
"+&=================================================================-",
"@-------------------------------------------------------------------"};
