/* XPM */
static char * meter_labels_xpm[] = {
"24 10 2 1",
" 	c None",
".	c #AD8C81",
"   .. ..  ....  .. ..   ",
"   . . .  .     . . .   ",
"   . . .  ...   . . .   ",
"   .   .  .     .   .   ",
"   .   .  ....  .   .   ",
"  ...  .   .   ..   ... ",
" .     .   .  .  .  .  .",
"  ..   . . .  .  .  ... ",
"    .  . . .  ....  .   ",
" ...   .. ..  .  .  .   "};
