/* XPM */
static char * bg_bordered_xpm[] = {
"8 8 6 1",
" 	c None",
".	c #E2E2E2",
"+	c #686868",
"@	c #C9C9C9",
"#	c #838383",
"$	c #B2B2B2",
".......+",
".@@@@@#+",
".@$$$$#+",
".@$$$$#+",
".@$$$$#+",
".@$$$$#+",
".######+",
".+++++++"};
