/* XPM */
static char * frame_top_xpm[] = {
"15 2 4 1",
" 	c None",
".	c #F0F0F8",
"+	c #000000",
"@	c #B0B0B0",
"..............+",
".@@@@@@@@@@@@@+"};
