/* XPM */
static char * frame_left_xpm[] = {
"5 5 4 1",
" 	c None",
".	c #F0F0F8",
"+	c #B0B0B0",
"@	c #B2B2B2",
".+@@@",
".+@@@",
".+@@@",
".+@@@",
".+@@@"};
