/* XPM */
static char * frame_right_xpm[] = {
"4 5 4 1",
" 	c None",
".	c #B2B2B2",
"+	c #B0B0B0",
"@	c #666666",
"..+@",
"..+@",
"..+@",
"..+@",
"..+@"};
