/* XPM */
static char * frame_bottom_xpm[] = {
"15 3 5 1",
" 	c None",
".	c #F0F0F8",
"+	c #B0B0B0",
"@	c #B2B2B2",
"#	c #666666",
".+@@@@@@@@@@@+#",
".+++++++++++++#",
".##############"};
