/* XPM */
static char * bg_meter_xpm[] = {
"60 9 50 1",
" 	c None",
".	c #282828",
"+	c #272727",
"@	c #262626",
"#	c #252525",
"$	c #242424",
"%	c #222222",
"&	c #212121",
"*	c #2A2A2A",
"=	c #303030",
"-	c #343434",
";	c #353535",
">	c #393939",
",	c #383838",
"'	c #3B3B3B",
")	c #3C3C3C",
"!	c #3D3D3D",
"~	c #3E3E3E",
"{	c #373737",
"]	c #363636",
"^	c #3A3A3A",
"/	c #313131",
"(	c #2E2E2E",
"_	c #2B2B2B",
":	c #292929",
"<	c #2D2D2D",
"[	c #333333",
"}	c #323232",
"|	c #2F2F2F",
"1	c #1F1F1F",
"2	c #1D1D1D",
"3	c #202020",
"4	c #404040",
"5	c #1C1C1C",
"6	c #1E1E1E",
"7	c #1B1B1B",
"8	c #3F3F3F",
"9	c #1A1A1A",
"0	c #2C2C2C",
"a	c #434343",
"b	c #454545",
"c	c #474747",
"d	c #464646",
"e	c #494949",
"f	c #4C4C4C",
"g	c #4D4D4D",
"h	c #444444",
"i	c #484848",
"j	c #424242",
"k	c #414141",
"..++@###$%&$*=-;>>,>>')!~'{;]>)~'^{-/(_*:++:</[[;-[}==||<<<<",
"%&&&&&&&&123@</[,{{{,>>^'>{;;,)4)'^,-=_:.@#@_|//[[[}=|(<(||(",
"522222661276$_/[,,,,{{]]]]];-{)4~88~^;|_.@$#*(/}---[}=|<=//=",
"99775522&656#0};^^^>,{;-[-]];{)8abcda);/*.@+_=[-]]{{;[/=}[[/",
"99775222%121@(-{!!)'>{;-/-{{{,)8cefgea']<*.:<};{,>>>,]-}-;;}",
"775226113161#<]')^{]]]-[/=|/]^)!hdiidj!><0__0|}-{,>^>][/-;;;",
"775226113163#({)>{-[[[}==((/]^)!4kaak!,;(<00<=[;;],>>{;--;;;",
"775226113163@|,!,;[}}}/|(<0|;>)!!~44~^][=|((|}-;[;],,,{];;;;",
"555226663163@|,!>]-[--[/0__([,')88kk8),]//==/[;];;]{{{];;;;-"};
