/* XPM */
static char * chart_grid_xpm[] = {
"60 2 3 1",
" 	c None",
".	c #DBDBDD",
"+	c #1C1E2D",
"............................................................",
"++++++++++++++++++++++++++++++++++++++++++++++++++++++++++++"};
