/* XPM */
static char * eject_clicked_xpm[] = {
"12 9 9 1",
" 	c None",
".	c #6B6363",
"+	c #000000",
"@	c #888282",
"#	c #A6A1A1",
"$	c #C3C0C0",
"%	c #E1DFDF",
"&	c #B5B0B0",
"*	c #8F8989",
"...........+",
"@@@@@@@@@@@+",
"#####+#####+",
"$$$$+++$$$$+",
"%%%+++++%%%+",
"%%%%%%%%%%%+",
"&&&+++++&&&+",
"***********+",
"...........+"};
