/* XPM */
static char * next_xpm[] = {
"12 9 6 1",
" 	c None",
".	c #6B6363",
"+	c #888282",
"@	c #A6A1A1",
"#	c #C3C0C0",
"$	c #E1DFDF",
"............",
"++++++++++++",
"@@@.@.@@@@@@",
"###.#..#####",
"$$$.$...$$$$",
"###.#..#####",
"@@@.@.@@@@@@",
"++++++++++++",
"............"};
