/* XPM */
static char * play_pause_clicked_xpm[] = {
"12 9 10 1",
" 	c None",
".	c #6B6363",
"+	c #888282",
"@	c #A6A1A1",
"#	c #000000",
"$	c #C3C0C0",
"%	c #E1DFDF",
"&	c #D9D7D7",
"*	c #B5B0B0",
"=	c #8F8989",
"............",
"++++++++++++",
"@@#@@@#@#@@@",
"$$##$$#$#$$$",
"%%###%#%#%%%",
"&&##&&#&#&&&",
"**#***#*#***",
"============",
"............"};
