/* XPM */
static char * frame_bottom_xpm[] = {
"68 2 55 1",
" 	c None",
".	c #848484",
"+	c #5A5A5A",
"@	c #535353",
"#	c #5B5B5B",
"$	c #616161",
"%	c #636363",
"&	c #606060",
"*	c #6A6A6A",
"=	c #5D5D5D",
"-	c #646464",
";	c #505050",
">	c #545454",
",	c #585858",
"'	c #565656",
")	c #575757",
"!	c #595959",
"~	c #5F5F5F",
"{	c #5E5E5E",
"]	c #4C4C4C",
"^	c #5C5C5C",
"/	c #4D4D4D",
"(	c #464646",
"_	c #4B4B4B",
":	c #4F4F4F",
"<	c #484848",
"[	c #707070",
"}	c #626262",
"|	c #656565",
"1	c #6C6C6C",
"2	c #555555",
"3	c #3F3F3F",
"4	c #3A3A3A",
"5	c #373737",
"6	c #393939",
"7	c #353535",
"8	c #3D3D3D",
"9	c #3B3B3B",
"0	c #404040",
"a	c #343434",
"b	c #383838",
"c	c #3C3C3C",
"d	c #363636",
"e	c #303030",
"f	c #323232",
"g	c #333333",
"h	c #313131",
"i	c #232323",
"j	c #292929",
"k	c #2A2A2A",
"l	c #282828",
"m	c #2D2D2D",
"n	c #3E3E3E",
"o	c #424242",
"p	c #262626",
".+@+#$%&*==-;>@,';,)!>~{+;!)>]&++&^,#/(_:</,{{#[-}%}}|!1){%+;2,!)'>3",
"|45678464690a7b5647465c4d77e7fadgadchijfeklmb9noncb7b6fbhn066963dcgp"};
