/* XPM */
static char * eject_xpm[] = {
"12 12 6 1",
" 	c None",
".	c #FFFFFF",
"+	c #D6D6D3",
"@	c #B2B2B2",
"#	c #000000",
"$	c #D1D2D0",
"...........+",
".@@@@@@@@@@#",
".@@@@@@@@@@#",
".@@@@##@@@@#",
".@@@####@@@#",
".@@######@@#",
".@@@@@@@@@@#",
".@@######@@#",
".@@######@@#",
".@@@@@@@@@@#",
".@@@@@@@@@@#",
"$###########"};
