/* XPM */
static char * play_pause_clicked_xpm[] = {
"12 12 5 1",
" 	c None",
".	c #838383",
"+	c #FFFFFF",
"@	c #B2B2B2",
"#	c #000000",
"............",
"...........+",
"..@@@@@@@@++",
"..@@##@@@@++",
"..@@###@@@++",
"..@@####@@++",
"..@@####@@++",
"..@@###@@@++",
"..@@##@@@@++",
"..@@@@@@@@++",
".+++++++++++",
"++++++++++++"};
