/* XPM */
static char * bg_meter_host_xpm[] = {
"68 9 52 1",
" 	c None",
".	c #303030",
"+	c #2F2F2F",
"@	c #2E2E2E",
"#	c #282828",
"$	c #272727",
"%	c #262626",
"&	c #252525",
"*	c #242424",
"=	c #222222",
"-	c #212121",
";	c #2A2A2A",
">	c #343434",
",	c #353535",
"'	c #393939",
")	c #383838",
"!	c #3B3B3B",
"~	c #3C3C3C",
"{	c #3D3D3D",
"]	c #3E3E3E",
"^	c #373737",
"/	c #363636",
"(	c #3A3A3A",
"_	c #313131",
":	c #2B2B2B",
"<	c #292929",
"[	c #2D2D2D",
"}	c #333333",
"|	c #323232",
"1	c #1F1F1F",
"2	c #1D1D1D",
"3	c #202020",
"4	c #404040",
"5	c #232323",
"6	c #1C1C1C",
"7	c #1E1E1E",
"8	c #1B1B1B",
"9	c #3F3F3F",
"0	c #1A1A1A",
"a	c #2C2C2C",
"b	c #434343",
"c	c #454545",
"d	c #474747",
"e	c #464646",
"f	c #494949",
"g	c #4C4C4C",
"h	c #4D4D4D",
"i	c #444444",
"j	c #484848",
"k	c #424242",
"l	c #414141",
"m	c #191919",
".+@@##$$%&&&*=-*;.>,'')''!~{]!^,/'~]!(^>_@:;<$$<[_}},>}|..++[[[[@@[[",
":<$%=--------123%[_})^^^)''(!'^,,)~4~!()>.:<#%&%:+__}}}|.+@[@++@[[@+",
"%5-3622222771287*:_}))))^^/////,>^~4]99](,+:#%*&;@_|>>>}|.+[.__.@[+_",
"532600886622-767&a|,(((')^,>}>//,^~9bcdeb~,_;#%$:.}>//^^,}_.|}}_@@_}",
"=16800886222=121%@>^{{~!'^,>_>^^^)~9dfghfb!/[;#<[|,^)''')/>|>,,|+@_,",
"1662886227113171&[/!~(^///>}_.+_/(~{iejjek{'[a::a+|>^)'('/}_>,,,|+:<",
"8008886227113173&@^~'^>}}}|..@@_/(~{4lbbl{),@[aa[.},,/)''^,>>,,,}+a;",
"mm06886227113173%+){),}|||_+@[a+,'~{{]44](/}.+@@+|>,},/)))^/,,,,}.[:",
"6827666227773173%+){'/>}>>}_a::@})!~99ll9~)/__.._},/,,/^^^/,,,,>|.@a"};
