/* XPM */
static char * frame_bottom_xpm[] = {
"140 4 305 2",
"  	c None",
". 	c #505050",
"+ 	c #4E4E4E",
"@ 	c #4D4D4D",
"# 	c #4B4B4B",
"$ 	c #494949",
"% 	c #474848",
"& 	c #474748",
"* 	c #464747",
"= 	c #454646",
"- 	c #444445",
"; 	c #464748",
"> 	c #414243",
", 	c #434546",
"' 	c #424344",
") 	c #434445",
"! 	c #444648",
"~ 	c #3F4042",
"{ 	c #454749",
"] 	c #3F4142",
"^ 	c #414245",
"/ 	c #414345",
"( 	c #444749",
"_ 	c #3F4144",
": 	c #45484A",
"< 	c #3F4143",
"[ 	c #46494C",
"} 	c #404245",
"| 	c #434549",
"1 	c #424548",
"2 	c #43474A",
"3 	c #3E4044",
"4 	c #44474B",
"5 	c #3C3F43",
"6 	c #43464A",
"7 	c #404347",
"8 	c #404247",
"9 	c #414449",
"0 	c #3E4045",
"a 	c #3D3F44",
"b 	c #42464A",
"c 	c #3D4044",
"d 	c #42454A",
"e 	c #3F4146",
"f 	c #43474B",
"g 	c #42464B",
"h 	c #44484C",
"i 	c #3E4145",
"j 	c #424549",
"k 	c #414448",
"l 	c #45484D",
"m 	c #424449",
"n 	c #43464B",
"o 	c #3F4246",
"p 	c #45494D",
"q 	c #3D3F43",
"r 	c #3E4146",
"s 	c #404448",
"t 	c #3F4245",
"u 	c #45484C",
"v 	c #464A4C",
"w 	c #45484B",
"x 	c #424446",
"y 	c #404244",
"z 	c #404143",
"A 	c #454748",
"B 	c #424445",
"C 	c #444547",
"D 	c #454647",
"E 	c #48494A",
"F 	c #484849",
"G 	c #4A4B4B",
"H 	c #4C4D4D",
"I 	c #4F4F4F",
"J 	c #4C4C4C",
"K 	c #484848",
"L 	c #474747",
"M 	c #444444",
"N 	c #3D3D3E",
"O 	c #363839",
"P 	c #3E3F42",
"Q 	c #383A3D",
"R 	c #35373A",
"S 	c #414347",
"T 	c #2B2D30",
"U 	c #46484D",
"V 	c #2B2E32",
"W 	c #46494E",
"X 	c #303339",
"Y 	c #3B3F45",
"Z 	c #42464C",
"` 	c #2C2F36",
" .	c #52575E",
"..	c #2B2F36",
"+.	c #51565E",
"@.	c #2F343C",
"#.	c #4A5059",
"$.	c #3F444D",
"%.	c #363C45",
"&.	c #525862",
"*.	c #292E38",
"=.	c #535A65",
"-.	c #2C323D",
";.	c #4E5662",
">.	c #333945",
",.	c #3E4552",
"'.	c #454D5A",
").	c #2A313E",
"!.	c #535B69",
"~.	c #282F3D",
"{.	c #4E5766",
"].	c #2C3341",
"^.	c #464E5E",
"/.	c #3A4251",
"(.	c #333A49",
"_.	c #4D5665",
":.	c #262D3B",
"<.	c #505968",
"[.	c #2A313F",
"}.	c #4C5564",
"|.	c #313947",
"1.	c #3C4553",
"2.	c #444D5B",
"3.	c #29313F",
"4.	c #525C6A",
"5.	c #2C3441",
"6.	c #464F5E",
"7.	c #3B4351",
"8.	c #333B49",
"9.	c #3C4453",
"0.	c #525B6A",
"a.	c #4E5765",
"b.	c #454D5C",
"c.	c #28303D",
"d.	c #4F5866",
"e.	c #2C3442",
"f.	c #3B4352",
"g.	c #444C5B",
"h.	c #29303F",
"i.	c #2B3340",
"j.	c #464E5D",
"k.	c #262D3A",
"l.	c #515967",
"m.	c #2B313E",
"n.	c #4E5562",
"o.	c #3E4550",
"p.	c #474D58",
"q.	c #2B303B",
"r.	c #535963",
"s.	c #2A2E37",
"t.	c #4C515A",
"u.	c #2D3239",
"v.	c #42474E",
"w.	c #393D44",
"x.	c #32363C",
"y.	c #454950",
"z.	c #2B2D33",
"A.	c #313337",
"B.	c #393B3E",
"C.	c #3E4043",
"D.	c #414244",
"E.	c #3E3F40",
"F.	c #414141",
"G.	c #3F3F3F",
"H.	c #404040",
"I.	c #3C3D3D",
"J.	c #363637",
"K.	c #363739",
"L.	c #2C2D2E",
"M.	c #323335",
"N.	c #28292C",
"O.	c #292B2D",
"P.	c #2A2C2F",
"Q.	c #202225",
"R.	c #2D3034",
"S.	c #1B1C21",
"T.	c #2F3237",
"U.	c #1A1C21",
"V.	c #292D32",
"W.	c #25282D",
"X.	c #202329",
"Y.	c #30343B",
"Z.	c #1C1F25",
"`.	c #343840",
" +	c #181C22",
".+	c #343841",
"++	c #21252D",
"@+	c #272B34",
"#+	c #2D323B",
"$+	c #1C2129",
"%+	c #323842",
"&+	c #191D26",
"*+	c #343B47",
"=+	c #191D28",
"-+	c #2A313D",
";+	c #252B36",
">+	c #1E232F",
",+	c #2F3542",
"'+	c #181E2A",
")+	c #313847",
"!+	c #161B26",
"~+	c #303746",
"{+	c #1E2430",
"]+	c #232A37",
"^+	c #1A202C",
"/+	c #303745",
"(+	c #171D28",
"_+	c #323A49",
":+	c #181D29",
"<+	c #242B37",
"[+	c #1D2330",
"}+	c #2E3543",
"|+	c #191E2A",
"1+	c #242A37",
"2+	c #232A38",
"3+	c #2E3643",
"4+	c #161B27",
"5+	c #1A202B",
"6+	c #313744",
"7+	c #181D27",
"8+	c #343A47",
"9+	c #2B313C",
"0+	c #262B35",
"a+	c #1F242D",
"b+	c #30353E",
"c+	c #1A1E25",
"d+	c #181B21",
"e+	c #2E323A",
"f+	c #25282E",
"g+	c #2B2E34",
"h+	c #202328",
"i+	c #2F3236",
"j+	c #242629",
"k+	c #333539",
"l+	c #2A2C2E",
"m+	c #333537",
"n+	c #36383A",
"o+	c #3A3B3C",
"p+	c #404041",
"q+	c #3F3F40",
"r+	c #383839",
"s+	c #1F1F1F",
"t+	c #1E1E1F",
"u+	c #1F2020",
"v+	c #1C1C1D",
"w+	c #1A1A1B",
"x+	c #191A1A",
"y+	c #181818",
"z+	c #161617",
"A+	c #131414",
"B+	c #141515",
"C+	c #121213",
"D+	c #101112",
"E+	c #0F1011",
"F+	c #111213",
"G+	c #0D0D0E",
"H+	c #0B0C0D",
"I+	c #0F1012",
"J+	c #0A0B0D",
"K+	c #0D0E10",
"L+	c #0C0D0F",
"M+	c #0D0E11",
"N+	c #080A0B",
"O+	c #0C0E10",
"P+	c #08090B",
"Q+	c #0A0B0E",
"R+	c #0B0D10",
"S+	c #08090C",
"T+	c #0B0E11",
"U+	c #080A0C",
"V+	c #0A0C0F",
"W+	c #0A0B0F",
"X+	c #080A0D",
"Y+	c #0B0D11",
"Z+	c #07090C",
"`+	c #07090B",
" @	c #0B0E12",
".@	c #090B0E",
"+@	c #0C0E12",
"@@	c #0A0C10",
"#@	c #090A0E",
"$@	c #090B0F",
"%@	c #0A0D10",
"&@	c #08090D",
"*@	c #0C0F13",
"=@	c #090A0D",
"-@	c #080A0E",
";@	c #0C0E11",
">@	c #090A0C",
",@	c #0E1012",
"'@	c #0D0F11",
")@	c #0E0F11",
"!@	c #101113",
"~@	c #0E0F10",
"{@	c #121315",
"]@	c #101012",
"^@	c #141516",
"/@	c #131415",
"(@	c #151617",
"_@	c #161717",
":@	c #1A1B1C",
"<@	c #1D1D1E",
"[@	c #202020",
"}@	c #1E1E1E",
"|@	c #1B1B1B",
". + @ # $ % & * = % - ; > , ' ) ! ~ { ] { ^ / ( _ : < [ } | 1 _ 2 3 4 5 6 7 8 9 0 6 a b c d 7 e f 3 f 5 g 7 7 f 0 h c h i j k e f a h i l k m 6 e n a f 0 j 9 o n c p c h j d p 8 p i h i d k i f q n 5 n r e s c g a 4 3 k j t u 3 v _ w x x ( y { z A B C D ) E F G H I J K $ # @ + . ",
"L L M M - N ' O P Q R S T U V W X Y Z `  ...+.@.#.$.%.&.*.=.-.;.>.,.'.).!.~.{.].^./.(._.:.<.[.}.|.1.2.3.4.~.{.5.6.7.8.{.:.<.[.}.|.9.2.3.0.~.{.].6./.(.a.:.<.[.}.|.1.b.3.4.c.d.e.6.f.8.{.:.<.[.}.|.9.g.h.0.~.{.i.j.7.(.{.k.l.m.n.>.o.p.q.r.s.t.u.v.w.x.y.z.l A.m B.C.x D.F - E.- M M L L ",
"F.F.G.H.I.J.K.L.M.N.O.P.Q.R.S.T.U.V.W.X.Y.Z.`. +.+++@+#+$+%+&+*+=+-+;+>+,+'+)+!+~+{+]+).^+/+(+_+:+[.<+[+}+|+|.!+~+{+]+).^+/+(+_+:+).1+[+}+'+)+!+~+{+2+[.^+/+(+_+:+[.<+[+3+'+|.!+~+{+]+[.^+/+(+_+:+).1+[+}+'+)+4+~+{+]+[.5+6+7+8+=+9+0+a+b+c+b+d+e+X.f+g+h+i+j+k+l+m+n+o+p+q+r+I.H.G.F.F.",
"s+s+t+u+v+w+x+y+z+A+B+C+C+D+E+F+G+E+H+I+J+K+L+J+M+N+O+P+M+J+Q+R+S+T+U+T+S+V+W+X+Y+Z+Y+`+ @.@.@Y+X+T+S++@S+@@V+X+T+S++@`+Y+#@$@%@Z+Y+Z+T+&@V+W+X+Y+S+*@U+Y+#@.@R+X+T+Z++@&@@@V+=@Y+S+T+Z+T+#@.@%@Z+Y+Z+T+S+V+$@-@+@U+T+Z+Y+.@W+Y+S+;@>@,@Q+'@)@L+!@~@{@]@^@/@(@(@_@:@v+<@[@}@|@v+u+t+s+s+"};
