/* XPM */
static char * bg_panel_xpm[] = {
"68 9 602 2",
"  	c None",
". 	c #83476A",
"+ 	c #94577B",
"@ 	c #A05682",
"# 	c #AB5C8B",
"$ 	c #A05983",
"% 	c #925978",
"& 	c #8C5974",
"* 	c #87506E",
"= 	c #8D5575",
"- 	c #874E6E",
"; 	c #8B5875",
"> 	c #925478",
", 	c #934F78",
"' 	c #914E76",
") 	c #944D77",
"! 	c #954576",
"~ 	c #8C386B",
"{ 	c #913A71",
"] 	c #933770",
"^ 	c #963774",
"/ 	c #9B3977",
"( 	c #9F417D",
"_ 	c #A04881",
": 	c #A85388",
"< 	c #AB548D",
"[ 	c #AD558F",
"} 	c #AD5991",
"| 	c #AB5C91",
"1 	c #AB6595",
"2 	c #A15D8C",
"3 	c #9D5F8B",
"4 	c #A46593",
"5 	c #AB6C9E",
"6 	c #B981B2",
"7 	c #AE8BB9",
"8 	c #DACFF6",
"9 	c #D2B3DE",
"0 	c #A778A4",
"a 	c #9A608F",
"b 	c #985788",
"c 	c #954D81",
"d 	c #994B83",
"e 	c #95437A",
"f 	c #903B75",
"g 	c #943C77",
"h 	c #953E78",
"i 	c #97447B",
"j 	c #9A4C80",
"k 	c #A45789",
"l 	c #A9588D",
"m 	c #A44D87",
"n 	c #A04381",
"o 	c #9A3978",
"p 	c #963C78",
"q 	c #974078",
"r 	c #9C467F",
"s 	c #A34B84",
"t 	c #A84E88",
"u 	c #A84D89",
"v 	c #A14D84",
"w 	c #994F7F",
"x 	c #93517C",
"y 	c #90517A",
"z 	c #8B5678",
"A 	c #815B73",
"B 	c #7F5D73",
"C 	c #916F85",
"D 	c #97778B",
"E 	c #74365B",
"F 	c #824267",
"G 	c #974B77",
"H 	c #954373",
"I 	c #8C456B",
"J 	c #844567",
"K 	c #854668",
"L 	c #7F3C5F",
"M 	c #8B406A",
"N 	c #8A4069",
"O 	c #843D66",
"P 	c #89406B",
"Q 	c #8D3C6B",
"R 	c #913D70",
"S 	c #943870",
"T 	c #8D2F6A",
"U 	c #842B62",
"V 	c #832861",
"W 	c #8B2A67",
"X 	c #8E2969",
"Y 	c #912D6D",
"Z 	c #983474",
"` 	c #933471",
" .	c #963B75",
"..	c #9E447E",
"+.	c #9B467D",
"@.	c #9E4981",
"#.	c #A14C85",
"$.	c #A45489",
"%.	c #9E5488",
"&.	c #985685",
"*.	c #9A5F8B",
"=.	c #9F6695",
"-.	c #B384B2",
";.	c #EDE2FC",
">.	c #FFFCFC",
",.	c #CEC4ED",
"'.	c #AA73A7",
").	c #A45B94",
"!.	c #9F4E89",
"~.	c #9C4482",
"{.	c #993E7D",
"].	c #8E3A73",
"^.	c #8C3470",
"/.	c #933474",
"(.	c #903372",
"_.	c #8C386F",
":.	c #893D6F",
"<.	c #94477A",
"[.	c #97487C",
"}.	c #903A71",
"|.	c #8D306D",
"1.	c #8B2B6A",
"2.	c #8F2D6D",
"3.	c #922D70",
"4.	c #9A3478",
"5.	c #9D397B",
"6.	c #9F387C",
"7.	c #9A3578",
"8.	c #913771",
"9.	c #893D6E",
"0.	c #813D69",
"a.	c #7F3F68",
"b.	c #753C60",
"c.	c #714160",
"d.	c #7E4D6D",
"e.	c #926080",
"f.	c #9C6D8B",
"g.	c #5D1F43",
"h.	c #6A274D",
"i.	c #7A2C57",
"j.	c #762751",
"k.	c #773055",
"l.	c #6E2C4B",
"m.	c #6D2E4D",
"n.	c #72264D",
"o.	c #7E2757",
"p.	c #7F2A58",
"q.	c #772252",
"r.	c #7D2758",
"s.	c #7C2257",
"t.	c #85235F",
"u.	c #8C2664",
"v.	c #821B5A",
"w.	c #811A59",
"x.	c #7D1757",
"y.	c #861D5E",
"z.	c #831C5E",
"A.	c #841B5E",
"B.	c #8E2467",
"C.	c #8A2165",
"D.	c #8F2369",
"E.	c #942C6E",
"F.	c #8D2B6B",
"G.	c #8B2F6D",
"H.	c #882C69",
"I.	c #8D3A72",
"J.	c #8C4074",
"K.	c #894275",
"L.	c #844272",
"M.	c #844A7A",
"N.	c #8D5C8A",
"O.	c #CBADDA",
"P.	c #FCF1FC",
"Q.	c #BE9ACA",
"R.	c #AE72A8",
"S.	c #984A87",
"T.	c #903D7A",
"U.	c #852E6B",
"V.	c #89326F",
"W.	c #832A68",
"X.	c #882869",
"Y.	c #8A2568",
"Z.	c #892367",
"`.	c #812260",
" +	c #802662",
".+	c #852A65",
"++	c #7F2660",
"@+	c #7E215F",
"#+	c #7C1A5B",
"$+	c #7F1B5C",
"%+	c #881A62",
"&+	c #8E1D67",
"*+	c #931E6B",
"=+	c #941F6B",
"-+	c #8C1C67",
";+	c #881E62",
">+	c #7F1E5D",
",+	c #721E55",
"'+	c #6F2053",
")+	c #6E1D52",
"!+	c #6C1C50",
"~+	c #6F1F53",
"{+	c #782F5E",
"]+	c #82456C",
"^+	c #8D5A7B",
"/+	c #4E1133",
"(+	c #551639",
"_+	c #621B41",
":+	c #661D42",
"<+	c #5F1F3D",
"[+	c #7E3557",
"}+	c #7A2750",
"|+	c #7D2552",
"1+	c #822256",
"2+	c #7E1E53",
"3+	c #7B1C51",
"4+	c #832058",
"5+	c #7F1A55",
"6+	c #801655",
"7+	c #831758",
"8+	c #7B1653",
"9+	c #7B1B57",
"0+	c #761351",
"a+	c #771752",
"b+	c #71114F",
"c+	c #7A1553",
"d+	c #80185A",
"e+	c #83175C",
"f+	c #86185F",
"g+	c #85185E",
"h+	c #881E63",
"i+	c #841A60",
"j+	c #861E64",
"k+	c #812663",
"l+	c #702359",
"m+	c #7B2D64",
"n+	c #772A63",
"o+	c #823C72",
"p+	c #95568A",
"q+	c #A2699E",
"r+	c #B07BAF",
"s+	c #A568A0",
"t+	c #964C89",
"u+	c #994584",
"v+	c #8F3976",
"w+	c #8E2D72",
"x+	c #8C236C",
"y+	c #952572",
"z+	c #8B1A66",
"A+	c #8A1C67",
"B+	c #83115D",
"C+	c #851860",
"D+	c #84155E",
"E+	c #891763",
"F+	c #87155F",
"G+	c #83125C",
"H+	c #800E59",
"I+	c #7A0E55",
"J+	c #790E53",
"K+	c #830D59",
"L+	c #870C5E",
"M+	c #850D5A",
"N+	c #7E0D56",
"O+	c #720A4E",
"P+	c #690C48",
"Q+	c #5C0B3F",
"R+	c #580D3C",
"S+	c #5F0A42",
"T+	c #690A49",
"U+	c #6D0F4B",
"V+	c #661B4B",
"W+	c #693154",
"X+	c #784A67",
"Y+	c #3D0E28",
"Z+	c #45112C",
"`+	c #5A1D3A",
" @	c #5E243E",
".@	c #7D3855",
"+@	c #752748",
"@@	c #8C315C",
"#@	c #922D5D",
"$@	c #8A2759",
"%@	c #7D2050",
"&@	c #792050",
"*@	c #771B4E",
"=@	c #7E1953",
"-@	c #841A58",
";@	c #781550",
">@	c #711C4E",
",@	c #681647",
"'@	c #6E194D",
")@	c #651246",
"!@	c #6B1249",
"~@	c #741550",
"{@	c #761152",
"]@	c #771454",
"^@	c #771553",
"/@	c #7C1658",
"(@	c #7D1959",
"_@	c #7B1758",
":@	c #7C195A",
"<@	c #791B5A",
"[@	c #761C59",
"}@	c #77235E",
"|@	c #7E2D68",
"1@	c #863770",
"2@	c #8C3F7A",
"3@	c #873B76",
"4@	c #99508A",
"5@	c #8C3F7B",
"6@	c #8C3B79",
"7@	c #83316E",
"8@	c #872B6D",
"9@	c #872367",
"0@	c #8E246E",
"a@	c #8C1D69",
"b@	c #881764",
"c@	c #871562",
"d@	c #891764",
"e@	c #8A1864",
"f@	c #84115E",
"g@	c #891162",
"h@	c #8C1063",
"i@	c #880C5E",
"j@	c #860E5C",
"k@	c #840F5C",
"l@	c #860D5D",
"m@	c #890D5E",
"n@	c #850B5A",
"o@	c #760B52",
"p@	c #660B45",
"q@	c #640A42",
"r@	c #640A44",
"s@	c #610A42",
"t@	c #680947",
"u@	c #680948",
"v@	c #630A44",
"w@	c #631447",
"x@	c #6D2F56",
"y@	c #794365",
"z@	c #380F24",
"A@	c #401329",
"B@	c #4B152F",
"C@	c #622541",
"D@	c #7B314F",
"E@	c #8C3356",
"F@	c #A24368",
"G@	c #983961",
"H@	c #8B2C58",
"I@	c #842656",
"J@	c #862358",
"K@	c #8F2963",
"L@	c #85205A",
"M@	c #7C1A53",
"N@	c #6F134A",
"O@	c #6D1549",
"P@	c #6B1449",
"Q@	c #71144D",
"R@	c #741350",
"S@	c #71124D",
"T@	c #691349",
"U@	c #651447",
"V@	c #6D134C",
"W@	c #741252",
"X@	c #791355",
"Y@	c #761554",
"Z@	c #68134B",
"`@	c #68144C",
" #	c #6C1C52",
".#	c #6C1B51",
"+#	c #6C1F55",
"@#	c #75265D",
"##	c #77265F",
"$#	c #7E2F67",
"%#	c #7E3169",
"&#	c #843770",
"*#	c #84376E",
"=#	c #7E3068",
"-#	c #832E68",
";#	c #7D2361",
">#	c #7D2061",
",#	c #872168",
"'#	c #861A62",
")#	c #861A64",
"!#	c #851661",
"~#	c #851560",
"{#	c #85135F",
"]#	c #85105D",
"^#	c #8A1162",
"/#	c #8E1264",
"(#	c #8D1062",
"_#	c #850C5B",
":#	c #850C5C",
"<#	c #880D5D",
"[#	c #800B57",
"}#	c #72084D",
"|#	c #640945",
"1#	c #610B41",
"2#	c #550A3C",
"3#	c #4F0936",
"4#	c #520939",
"5#	c #59083C",
"6#	c #620742",
"7#	c #650745",
"8#	c #660743",
"9#	c #68114A",
"0#	c #762C5B",
"a#	c #813E6A",
"b#	c #320F22",
"c#	c #3E1329",
"d#	c #4E1931",
"e#	c #662642",
"f#	c #7B2B4C",
"g#	c #AE536E",
"h#	c #C87285",
"i#	c #9F4761",
"j#	c #873556",
"k#	c #89345E",
"l#	c #701C48",
"m#	c #6E1948",
"n#	c #691545",
"o#	c #651543",
"p#	c #641442",
"q#	c #630F41",
"r#	c #681045",
"s#	c #70124D",
"t#	c #6B114A",
"u#	c #611242",
"v#	c #57113D",
"w#	c #5C1341",
"x#	c #6A1249",
"y#	c #72134F",
"z#	c #6E134E",
"A#	c #601044",
"B#	c #5D1544",
"C#	c #5A1442",
"D#	c #5F1647",
"E#	c #62184A",
"F#	c #641C4D",
"G#	c #63174A",
"H#	c #6A1E54",
"I#	c #6C2256",
"J#	c #6C2156",
"K#	c #75285E",
"L#	c #74265D",
"M#	c #6B1D55",
"N#	c #731E59",
"O#	c #6F1955",
"P#	c #721957",
"Q#	c #7A185A",
"R#	c #7A155A",
"S#	c #761255",
"T#	c #791458",
"U#	c #7C1058",
"V#	c #810F5A",
"W#	c #820E5A",
"X#	c #820F5A",
"Y#	c #7A0B55",
"Z#	c #7A0D54",
"`#	c #720C4F",
" $	c #6A0F4C",
".$	c #630B44",
"+$	c #620843",
"@$	c #670946",
"#$	c #5F0941",
"$$	c #590A3D",
"%$	c #520838",
"&$	c #520736",
"*$	c #56073A",
"=$	c #57083B",
"-$	c #56083B",
";$	c #5A0A3E",
">$	c #651649",
",$	c #742C5A",
"'$	c #7C3F66",
")$	c #2E0D1E",
"!$	c #3B1026",
"~$	c #4D1933",
"{$	c #5F243D",
"]$	c #813754",
"^$	c #B26A7A",
"/$	c #AEAEAE",
"($	c #AF6677",
"_$	c #833554",
":$	c #76254D",
"<$	c #6F1D49",
"[$	c #681844",
"}$	c #60153F",
"|$	c #59133C",
"1$	c #58133B",
"2$	c #5B113E",
"3$	c #5C0F3E",
"4$	c #5B103E",
"5$	c #520E38",
"6$	c #570F3B",
"7$	c #560E3C",
"8$	c #5E1043",
"9$	c #5B0D3F",
"0$	c #57103E",
"a$	c #4C0E37",
"b$	c #4E0F38",
"c$	c #581140",
"d$	c #5C1043",
"e$	c #611548",
"f$	c #61184A",
"g$	c #5D1647",
"h$	c #60174A",
"i$	c #691D51",
"j$	c #64164C",
"k$	c #66164C",
"l$	c #69184F",
"m$	c #69154E",
"n$	c #68134D",
"o$	c #6B124F",
"p$	c #6F1352",
"q$	c #6E104F",
"r$	c #711252",
"s$	c #6D0D4D",
"t$	c #720F51",
"u$	c #730E51",
"v$	c #6B0B4A",
"w$	c #680C49",
"x$	c #660B47",
"y$	c #640A45",
"z$	c #620A43",
"A$	c #57093C",
"B$	c #560A3A",
"C$	c #560A3B",
"D$	c #510737",
"E$	c #4D0735",
"F$	c #510736",
"G$	c #500736",
"H$	c #4C0833",
"I$	c #4F0836",
"J$	c #540638",
"K$	c #59113F",
"L$	c #5D2549",
"M$	c #663D58",
"N$	c #3E122A",
"O$	c #420F2B",
"P$	c #5A173A",
"Q$	c #63193D",
"R$	c #7F3052",
"S$	c #9B4963",
"T$	c #AF5A6B",
"U$	c #94415C",
"V$	c #7A284C",
"W$	c #71234A",
"X$	c #661A42",
"Y$	c #561338",
"Z$	c #541639",
"`$	c #501335",
" %	c #4C0D32",
".%	c #530E37",
"+%	c #560C39",
"@%	c #520A37",
"#%	c #510B36",
"$%	c #490A32",
"%%	c #460C2F",
"&%	c #460A30",
"*%	c #4C0D34",
"=%	c #500D37",
"-%	c #510E39",
";%	c #4D0B36",
">%	c #4C0B35",
",%	c #4E0C37",
"'%	c #56103E",
")%	c #550E3D",
"!%	c #591241",
"~%	c #581241",
"{%	c #54103E",
"]%	c #561141",
"^%	c #5B1545",
"/%	c #63174B",
"(%	c #64184B",
"_%	c #601347",
":%	c #631249",
"<%	c #64134A",
"[%	c #66114B",
"}%	c #6D1450",
"|%	c #6D0F4E",
"1%	c #6E0F4E",
"2%	c #6C0F4D",
"3%	c #6A0C4B",
"4%	c #650B47",
"5%	c #620B44",
"6%	c #610C44",
"7%	c #5D0940",
"8%	c #5A0A3F",
"9%	c #56093D",
"0%	c #480931",
"a%	c #470831",
"b%	c #4D0835",
"c%	c #4A0732",
"d%	c #4E0735",
"e%	c #520738",
"f%	c #4E0835",
"g%	c #4D0534",
"h%	c #510537",
"i%	c #490F34",
"j%	c #512742",
"k%	c #613C53",
". + @ # $ % & * = - ; > , ' ) ! ~ { ] ^ / ( _ : < [ } | 1 2 3 4 5 6 7 8 9 0 a b c d e f g h i j k l m n o p q r s t u v w x y z A B C D ",
"E F G H I J K L M N O P Q R S T U V W X Y Z `  ...+.@.#.$.%.&.*.=.-.;.>.,.'.).!.~.{.].^./.(._.:.<.[.}.|.1.2.3.4.5.6.7.8.9.0.a.b.c.d.e.f.",
"g.h.i.j.k.l.m.n.o.p.q.r.s.t.u.v.w.x.y.z.A.B.C.D.E.F.G.H.I.J.K.L.M.N.O.P.Q.R.S.T.U.V.W.X.Y.Z.`. +.+++@+#+$+%+&+*+=+-+;+>+,+'+)+!+~+{+]+^+",
"/+(+_+:+<+[+}+|+1+2+3+4+5+6+7+8+9+0+a+b+c+d+e+f+g+h+i+j+k+l+m+n+o+p+q+r+s+t+u+v+w+x+y+z+A+B+C+D+E+F+G+H+I+J+K+L+M+N+O+P+Q+R+S+T+U+V+W+X+",
"Y+Z+`+ @.@+@@@#@$@%@&@*@=@-@;@>@,@'@)@!@~@{@]@^@/@(@_@:@<@[@}@|@1@2@3@4@5@6@7@8@9@0@a@b@c@d@e@f@g@h@i@j@k@l@m@n@o@p@q@r@s@s@t@u@v@w@x@y@",
"z@A@B@C@D@E@F@G@H@I@J@K@L@M@N@O@P@Q@R@S@T@U@V@W@X@Y@Z@`@ #.#+#@###$#%#&#*#=#-#;#>#,#'#)#!#~#{#]#^#/#(#_#:#<#[#}#|#1#2#3#4#5#6#7#8#9#0#a#",
"b#c#d#e#f#g#h#i#j#k#l#m#n#o#p#q#r#s#t#u#v#w#x#y#z#A#B#C#D#E#F#G#H#I#J#K#L#M#N#O#P#Q#R#S#T#T#U#V#W#X#Y#Z#`# $.$+$@$#$$$%$&$*$=$-$;$>$,$'$",
")$!$~${$]$^$/$($_$:$<$[$}$|$1$2$3$3$4$5$6$7$8$9$0$a$b$c$d$e$D#E#f$g$h$i$j$k$l$m$n$o$p$q$r$s$t$u$v$w$x$y$z$A$4#4#B$C$D$E$F$G$H$I$J$K$L$M$",
"N$O$P$Q$R$S$T$U$V$W$X$Y$Z$`$ %.%+%@%#%$%%%&%*%=%-%;%>%,%'%)%!%~%{%]%^%/%(%_%:%<%[%}%|%1%2%3%w$4%5%6%7%8%9%0%a%b%c%d%e%I$f%G$g%h%G$i%j%k%"};
