/* XPM */
static char * frame_bottom_xpm[] = {
"80 5 341 2",
"  	c None",
". 	c #69455D",
"+ 	c #784467",
"@ 	c #703F5F",
"# 	c #673B59",
"$ 	c #703B5F",
"% 	c #71395E",
"& 	c #7C3866",
"* 	c #813B6A",
"= 	c #813A6A",
"- 	c #873D6F",
"; 	c #8A3A70",
"> 	c #8A3970",
", 	c #853C6E",
"' 	c #7D3C68",
") 	c #7D4169",
"! 	c #874A73",
"~ 	c #8A5177",
"{ 	c #8D5079",
"] 	c #954F7F",
"^ 	c #984C7F",
"/ 	c #9A477F",
"( 	c #9B4A81",
"_ 	c #94517E",
": 	c #8E587C",
"< 	c #865876",
"[ 	c #885277",
"} 	c #934F7D",
"| 	c #994D80",
"1 	c #984F80",
"2 	c #8B4D78",
"3 	c #80466D",
"4 	c #84456F",
"5 	c #8D4375",
"6 	c #95427B",
"7 	c #9B457F",
"8 	c #9B427E",
"9 	c #9B3E7C",
"0 	c #9B3C7D",
"a 	c #A44A87",
"b 	c #AC5A92",
"c 	c #AE6295",
"d 	c #AE6496",
"e 	c #AC6393",
"f 	c #A86292",
"g 	c #A45D8D",
"h 	c #A4558A",
"i 	c #A34C87",
"j 	c #A14785",
"k 	c #9E4780",
"l 	c #98447C",
"m 	c #96467D",
"n 	c #9B467F",
"o 	c #9C4681",
"p 	c #913F75",
"q 	c #8C3D74",
"r 	c #8F4676",
"s 	c #944E7D",
"t 	c #9F4F84",
"u 	c #8B3E73",
"v 	c #89366E",
"w 	c #8A346E",
"x 	c #8D3871",
"y 	c #98447D",
"z 	c #9A4A80",
"A 	c #9D4B83",
"B 	c #9C4981",
"C 	c #954A7D",
"D 	c #924C7B",
"E 	c #8D5179",
"F 	c #8A5478",
"G 	c #8B5077",
"H 	c #7D4A6D",
"I 	c #724663",
"J 	c #6D4661",
"K 	c #744665",
"L 	c #7A466A",
"M 	c #784266",
"N 	c #784367",
"O 	c #6F405F",
"P 	c #512643",
"Q 	c #582648",
"R 	c #592145",
"S 	c #621F4D",
"T 	c #61204B",
"U 	c #5D2049",
"V 	c #6B2354",
"W 	c #6C2255",
"X 	c #6B2153",
"Y 	c #702257",
"Z 	c #75215A",
"` 	c #79245E",
" .	c #7D2761",
"..	c #712758",
"+.	c #6C2957",
"@.	c #75295C",
"#.	c #812E67",
"$.	c #872C6A",
"%.	c #872A69",
"&.	c #852A67",
"*.	c #802863",
"=.	c #772B5F",
"-.	c #742E5E",
";.	c #7B3363",
">.	c #7E3466",
",.	c #7B2E62",
"'.	c #7E2F64",
").	c #742B5C",
"!.	c #732C5B",
"~.	c #772B5E",
"{.	c #76245A",
"].	c #78235C",
"^.	c #7F2160",
"/.	c #7F2261",
"(.	c #822464",
"_.	c #862165",
":.	c #882368",
"<.	c #8B246A",
"[.	c #943174",
"}.	c #9D407F",
"|.	c #A14584",
"1.	c #A24784",
"2.	c #9F4583",
"3.	c #A14583",
"4.	c #A14182",
"5.	c #9E367C",
"6.	c #9C2D77",
"7.	c #982673",
"8.	c #942770",
"9.	c #8E266C",
"0.	c #862466",
"a.	c #7F2661",
"b.	c #842867",
"c.	c #872667",
"d.	c #872669",
"e.	c #8D2D6E",
"f.	c #852D69",
"g.	c #832F68",
"h.	c #7F2C63",
"i.	c #7E2460",
"j.	c #832263",
"k.	c #882066",
"l.	c #8D236A",
"m.	c #8C2E6D",
"n.	c #87366D",
"o.	c #85386D",
"p.	c #823467",
"q.	c #803868",
"r.	c #763662",
"s.	c #6E355C",
"t.	c #643053",
"u.	c #572A48",
"v.	c #522744",
"w.	c #542443",
"x.	c #5B2449",
"y.	c #692253",
"z.	c #691E51",
"A.	c #65224F",
"B.	c #60264D",
"C.	c #622D51",
"D.	c #340626",
"E.	c #4C0435",
"F.	c #57033A",
"G.	c #57033C",
"H.	c #520539",
"I.	c #4F0537",
"J.	c #57063B",
"K.	c #5A063F",
"L.	c #5C0440",
"M.	c #59033D",
"N.	c #56083C",
"O.	c #5C0B42",
"P.	c #5A0A40",
"Q.	c #5E0642",
"R.	c #690547",
"S.	c #650748",
"T.	c #650746",
"U.	c #660446",
"V.	c #6E064C",
"W.	c #6E084B",
"X.	c #660747",
"Y.	c #630946",
"Z.	c #650947",
"`.	c #610845",
" +	c #600843",
".+	c #650747",
"++	c #6C0A4B",
"@+	c #6D084C",
"#+	c #6A064A",
"$+	c #6B064B",
"%+	c #6E054C",
"&+	c #6C064B",
"*+	c #6C064C",
"=+	c #70054D",
"-+	c #750550",
";+	c #7B0555",
">+	c #7E0959",
",+	c #7D0A57",
"'+	c #820F5E",
")+	c #8C1265",
"!+	c #8F1165",
"~+	c #8D1266",
"{+	c #8D1165",
"]+	c #8A0C62",
"^+	c #890860",
"/+	c #87075E",
"(+	c #810659",
"_+	c #7D0757",
":+	c #72084F",
"<+	c #700A50",
"[+	c #760951",
"}+	c #6F094D",
"|+	c #7F0A59",
"1+	c #800859",
"2+	c #770A53",
"3+	c #760953",
"4+	c #730851",
"5+	c #72074F",
"6+	c #780854",
"7+	c #7D0958",
"8+	c #760952",
"9+	c #730D53",
"0+	c #701051",
"a+	c #6C104D",
"b+	c #6D1350",
"c+	c #5C1043",
"d+	c #4D103A",
"e+	c #470C34",
"f+	c #450830",
"g+	c #41062E",
"h+	c #3C052B",
"i+	c #450530",
"j+	c #450430",
"k+	c #500537",
"l+	c #520639",
"m+	c #470731",
"n+	c #4B1439",
"o+	c #4E1A3D",
"p+	c #230017",
"q+	c #3C0028",
"r+	c #4E0034",
"s+	c #530038",
"t+	c #54003A",
"u+	c #520038",
"v+	c #460030",
"w+	c #43002D",
"x+	c #46002F",
"y+	c #4A0032",
"z+	c #490032",
"A+	c #470030",
"B+	c #44002E",
"C+	c #43002E",
"D+	c #59003C",
"E+	c #640043",
"F+	c #5F0040",
"G+	c #5B003E",
"H+	c #640044",
"I+	c #660045",
"J+	c #56003A",
"K+	c #490031",
"L+	c #3F002A",
"M+	c #4D0034",
"N+	c #5F0041",
"O+	c #620041",
"P+	c #5E0040",
"Q+	c #630042",
"R+	c #620043",
"S+	c #6A0048",
"T+	c #660044",
"U+	c #610042",
"V+	c #670046",
"W+	c #690046",
"X+	c #6A0049",
"Y+	c #6E004A",
"Z+	c #70004B",
"`+	c #71004D",
" @	c #6F004C",
".@	c #73004E",
"+@	c #74004E",
"@@	c #7A0053",
"#@	c #7B0054",
"$@	c #7C0054",
"%@	c #7B0053",
"&@	c #750050",
"*@	c #72004D",
"=@	c #70004C",
"-@	c #6C0049",
";@	c #7C0053",
">@	c #780051",
",@	c #6B0049",
"'@	c #600041",
")@	c #540039",
"!@	c #4F0035",
"~@	c #4B0033",
"{@	c #4E0036",
"]@	c #520036",
"^@	c #43002C",
"/@	c #47002F",
"(@	c #4C0034",
"_@	c #56073B",
":@	c #5C1044",
"<@	c #591644",
"[@	c #300020",
"}@	c #3A0027",
"|@	c #4C0033",
"1@	c #4A0033",
"2@	c #45002F",
"3@	c #3D0029",
"4@	c #390026",
"5@	c #41002C",
"6@	c #42002C",
"7@	c #5B003D",
"8@	c #57003B",
"9@	c #490030",
"0@	c #480031",
"a@	c #360026",
"b@	c #330022",
"c@	c #42002D",
"d@	c #540038",
"e@	c #530037",
"f@	c #5D003E",
"g@	c #5D0040",
"h@	c #5A003D",
"i@	c #5C003E",
"j@	c #5E003F",
"k@	c #650044",
"l@	c #72004E",
"m@	c #690047",
"n@	c #620042",
"o@	c #6E004B",
"p@	c #6C004A",
"q@	c #630043",
"r@	c #5A003C",
"s@	c #55003A",
"t@	c #4B0032",
"u@	c #45002E",
"v@	c #4D0033",
"w@	c #46002E",
"x@	c #43062F",
"y@	c #4E123A",
"z@	c #5D1846",
". + @ # $ % & * = - ; > , ' ) ! ~ { ] ^ / ( _ : < [ } | 1 2 3 4 5 6 7 8 9 0 a b c d e f g h i j k l m n o p q r s t ( u v w x y z A B C D E F G H I J K L M N O ",
"P Q R S T U V W X Y Z `  ...+.@.#.$.%.&.*.=.-.;.>.,.'.).!.~.{.].^./.(._.:.<.[.}.|.1.2.3.4.5.6.7.8.9.0.a.b.c.d.e.f.g.h.i.j.k.l.m.n.o.p.q.r.s.t.u.v.w.x.y.z.A.B.C.",
"D.E.F.G.H.I.J.K.K.L.M.N.O.P.Q.R.S.T.U.V.W.X.Y.Z.`. +.+++@+#+$+%+&+*+=+-+;+>+,+'+)+!+~+{+{+]+^+/+(+_+:+<+[+}+|+1+2+3+4+5+6+7+8+9+0+a+b+c+d+e+f+g+h+i+j+k+l+m+n+o+",
"p+q+r+s+t+u+v+w+x+y+z+A+B+C+D+E+F+G+G+G+H+I+J+K+L+M+G+N+O+P+Q+E+R+S+T+U+V+W+X+Y+Z+`+ @.@.@+@@@#@$@%@&@*@=@-@+@%@;@>@*@,@ @+@.@.@,@I+'@)@!@~@y+{@]@M+^@/@(@_@:@<@",
"[@}@C+|@1@2@3@4@5@x+6@/@x+/@)@7@8@s+(@9@0@6@a@b@4@c@M+d@d@!@e@D+f@g@f@D+7@7@h@h@i@g@j@P+U+k@V+S+ @l@Z+m@H+n@H+o@=@Y+p@I+q@I+I+U+r@s@t@w+u@v@r+u@2@5@2@w@L+x@y@z@"};
