/* XPM */
static char * bg_meter_host_xpm[] = {
"68 9 92 2",
"  	c None",
". 	c #2D2D2D",
"+ 	c #484848",
"@ 	c #787878",
"# 	c #878787",
"$ 	c #898989",
"% 	c #848484",
"& 	c #7E7E7E",
"* 	c #7A7A7A",
"= 	c #767676",
"- 	c #727272",
"; 	c #6F6F6F",
"> 	c #6D6D6D",
", 	c #6E6E6E",
"' 	c #6B6B6B",
") 	c #686868",
"! 	c #636363",
"~ 	c #606060",
"{ 	c #5E5E5E",
"] 	c #5C5C5C",
"^ 	c #5A5A5A",
"/ 	c #585858",
"( 	c #5D5D5D",
"_ 	c #616161",
": 	c #676767",
"< 	c #575757",
"[ 	c #505050",
"} 	c #4C4C4C",
"| 	c #494949",
"1 	c #4A4A4A",
"2 	c #4D4D4D",
"3 	c #4F4F4F",
"4 	c #444444",
"5 	c #3C3C3C",
"6 	c #303030",
"7 	c #2B2B2B",
"8 	c #292929",
"9 	c #282828",
"0 	c #272727",
"a 	c #2C2C2C",
"b 	c #2E2E2E",
"c 	c #2A2A2A",
"d 	c #262626",
"e 	c #222222",
"f 	c #212121",
"g 	c #232323",
"h 	c #333333",
"i 	c #1F1F1F",
"j 	c #343434",
"k 	c #707070",
"l 	c #5F5F5F",
"m 	c #555555",
"n 	c #535353",
"o 	c #4B4B4B",
"p 	c #464646",
"q 	c #414141",
"r 	c #3F3F3F",
"s 	c #3E3E3E",
"t 	c #3D3D3D",
"u 	c #3B3B3B",
"v 	c #404040",
"w 	c #454545",
"x 	c #424242",
"y 	c #434343",
"z 	c #3A3A3A",
"A 	c #393939",
"B 	c #373737",
"C 	c #242424",
"D 	c #202020",
"E 	c #1C1C1C",
"F 	c #191919",
"G 	c #161616",
"H 	c #141414",
"I 	c #171717",
"J 	c #1D1D1D",
"K 	c #2F2F2F",
"L 	c #515151",
"M 	c #525252",
"N 	c #4E4E4E",
"O 	c #474747",
"P 	c #353535",
"Q 	c #363636",
"R 	c #323232",
"S 	c #313131",
"T 	c #252525",
"U 	c #1B1B1B",
"V 	c #151515",
"W 	c #1E1E1E",
"X 	c #1A1A1A",
"Y 	c #181818",
"Z 	c #383838",
"` 	c #131313",
". + @ # $ % & * @ @ @ = - ; > ; , > ' ) ! ~ { ] ^ / ^ ( _ : : ! < [ } | | 1 2 3 3 } 4 5 6 7 8 8 7 7 7 9 8 9 0 9 a . b b b c d e f g 8 h ",
"i j { ; k ' ! l ^ m n [ [ 2 } o o | p 4 q r s t 5 u t v 4 w 4 x r s s r v q x y y y y q t z A B h 6 a d d C e d 9 d g D E F G H I J g C ",
"E K L ~ ! l / M N O 4 q v v s s s 5 z B P j j P j Q Q Q Q Q P j R S b 7 7 a b . a . a a 8 T g e f f e f D J J E U U F G I G V I D 7 b 7 ",
"U 7 + < < M } p q u z B P P j j h R 6 K 6 R h R S 6 6 6 K . 7 8 0 d T T C C C e f i W W U X E W f f e D W U U Y Y G G G G V G Y D 9 T W ",
"E c v + | y s u B j h R S 6 6 K K K b b K 6 6 K b 7 7 8 8 0 T g e e e f D i J U F Y X X U U E i E E J i D D f f f W W J W E U J 9 6 c f ",
"X g h A Z Q h S 6 b . a 7 7 7 a a 7 7 8 8 9 0 d T d d T g f i W J E U X X F Y I G V V V H V V G G I F X U E J f C e g g f D D C a S 7 W ",
"J T K K . 7 c 8 9 9 0 0 0 0 0 d d T C g e f f f f f D i J E U X F F Y Y F X U X F Y G V G V H H G Y X E W i e T 9 9 c 8 8 7 . R z A R 0 ",
"D g 0 c 7 c 7 c c 9 0 0 d T C e e e e f D i i i D D i i W E U X F Y G V V V V V H H ` H V G Y X J W D f g g C 8 7 . . a 7 7 a . . a 0 f ",
"9 c 9 c c 8 9 0 d T T C C g f D W J E U X X X X F F F Y Y I G G G G G G I I G H ` ` ` H V I F U J D f e D D D W E J E i f f i D i e e g "};
