/* XPM */
static char * frame_bottom_xpm[] = {
"80 4 94 2",
"  	c None",
". 	c #9C968A",
"+ 	c #7D766A",
"@ 	c #7D776A",
"# 	c #797466",
"$ 	c #6B635B",
"% 	c #646154",
"& 	c #676057",
"* 	c #656155",
"= 	c #675F57",
"- 	c #666056",
"; 	c #656055",
"> 	c #655F55",
", 	c #685F58",
"' 	c #676157",
") 	c #665F56",
"! 	c #686158",
"~ 	c #646054",
"{ 	c #666156",
"] 	c #6B655A",
"^ 	c #7C7668",
"/ 	c #7C776A",
"( 	c #7B766A",
"_ 	c #7D756A",
": 	c #7F756A",
"< 	c #7C766A",
"[ 	c #80756A",
"} 	c #7E766A",
"| 	c #7B776A",
"1 	c #80776A",
"2 	c #7B756A",
"3 	c #7C756A",
"4 	c #6C655A",
"5 	c #847E73",
"6 	c #736B60",
"7 	c #736A60",
"8 	c #70695D",
"9 	c #73695E",
"0 	c #706B5D",
"a 	c #726B61",
"b 	c #726B5F",
"c 	c #706C5D",
"d 	c #706C5E",
"e 	c #736A62",
"f 	c #706B60",
"g 	c #726A61",
"h 	c #736C5F",
"i 	c #736B5E",
"j 	c #706C5F",
"k 	c #706B5F",
"l 	c #736962",
"m 	c #736B5D",
"n 	c #706B5E",
"o 	c #736B61",
"p 	c #706A60",
"q 	c #726C5F",
"r 	c #716B5F",
"s 	c #736A5F",
"t 	c #6F6A5E",
"u 	c #6F695C",
"v 	c #716B5E",
"w 	c #726A5F",
"x 	c #716B60",
"y 	c #736C5C",
"z 	c #736961",
"A 	c #736B5F",
"B 	c #706A5F",
"C 	c #736C5D",
"D 	c #645C52",
"E 	c #6B635A",
"F 	c #5A554A",
"G 	c #5C554C",
"H 	c #5B554B",
"I 	c #5D554D",
"J 	c #5F554F",
"K 	c #5E554E",
"L 	c #584D45",
"M 	c #5B5549",
"N 	c #564A41",
"O 	c #524C41",
"P 	c #534C41",
"Q 	c #564A44",
"R 	c #544B41",
"S 	c #574A44",
"T 	c #544B44",
"U 	c #554A44",
"V 	c #554A43",
"W 	c #534B42",
"X 	c #554B44",
"Y 	c #574A41",
"Z 	c #534B41",
"` 	c #564A43",
" .	c #554A42",
"..	c #554A41",
". + @ # $ % & * * = - ; > , - & ; - ' - & ) ! & ~ ~ & & - > & ~ ' % > > * { ] ^ / ( ( / _ ( : < @ + [ _ + / } | + _ @ + @ } + + + ( 1 @ } 2 ( _ + + ( 3 @ @ | 4 ",
"5 6 6 7 8 9 0 a b c d e f 0 7 f g a h i j h k 6 l 7 f m n o 0 p 0 l q r s t u 7 6 a v w x c n j 7 x b v f l f o y f 6 c 6 z 7 f A n 6 v B n z 6 p A n C 6 6 e D ",
"E F F F F F G F F G F F F G H I F F F G G F F H H F F G G G G F G F F F F H H F F F F G F F H H F F G F J F F F G G F F F G F F H K G G F G F F F F F G F F F L ",
"M N O N P Q P R S O T S R P O R S R S O O O T O T U V O O R W W R N X O Y O R R R R T R R X R T U Z R O R `  .U Z O O T O T T R T O P R T R R S O ..Z R R R R T "};
