/* XPM */
static char * frame_top_xpm[] = {
"80 4 91 1",
" 	c None",
".	c #FEFEFE",
"+	c #FEF9F6",
"@	c #FDF9F6",
"#	c #FDFAF6",
"$	c #FAFBF7",
"%	c #FAF9F7",
"&	c #FFF9F6",
"*	c #FFF8F6",
"=	c #FFFAF6",
"-	c #FAFAF7",
";	c #FCF9F6",
">	c #FBF9F7",
",	c #FEF8F6",
"'	c #FCFAF6",
")	c #FBFBF7",
"!	c #FBF9F6",
"~	c #FDF8F6",
"{	c #FBFAF6",
"]	c #DDDDD5",
"^	c #F8F2EF",
"/	c #ECEAE4",
"(	c #EEEAE6",
"_	c #EAEAE2",
":	c #EDEAE5",
"<	c #C8C2BD",
"[	c #D9D9D0",
"}	c #CFCAC1",
"|	c #D0CAC0",
"1	c #D1CAC1",
"2	c #CDCABF",
"3	c #CECAC1",
"4	c #CECAC0",
"5	c #CFCAC2",
"6	c #CDCAC0",
"7	c #CFCAC3",
"8	c #D2CAC2",
"9	c #CDCAC2",
"0	c #CECAC3",
"a	c #CFCAC5",
"b	c #D2CAC4",
"c	c #CECABE",
"d	c #CDCAC1",
"e	c #CFCAC0",
"f	c #D0CAC3",
"g	c #D0CAC2",
"h	c #CFCABF",
"i	c #CECAC5",
"j	c #D1CAC3",
"k	c #CFCAC4",
"l	c #ACA89B",
"m	c #CDC7BF",
"n	c #BBB5AA",
"o	c #BDB5A9",
"p	c #BBB6AA",
"q	c #BCB5AB",
"r	c #BDB4AC",
"s	c #BAB6AA",
"t	c #BDB4AA",
"u	c #BAB5AA",
"v	c #BDB4AB",
"w	c #B8B6A6",
"x	c #B7B6A7",
"y	c #BAB4AA",
"z	c #BAB5A7",
"A	c #BDB5AB",
"B	c #BAB4A8",
"C	c #BAB6A7",
"D	c #BBB5A9",
"E	c #B9B6A9",
"F	c #B9B5A9",
"G	c #BDB4A9",
"H	c #BBB6A8",
"I	c #BDB6A9",
"J	c #BAB6A8",
"K	c #BAB5A8",
"L	c #BDB5AC",
"M	c #BBB5A7",
"N	c #BDB5AA",
"O	c #BAB5A9",
"P	c #B7B6A6",
"Q	c #B9B4A8",
"R	c #BAB5A6",
"S	c #BAB6A9",
"T	c #BDB5A8",
"U	c #B8B6A7",
"V	c #BAB4A7",
"W	c #B8B5A5",
"X	c #BDB6AA",
"Y	c #BBB6A7",
"Z	c #A2988F",
".+@#$#%@@#&*=@@@@-#@;>@@$,+')#!;#~+!;)#~#'{%@#@&*&@@'~$@@#>;@'~@#$#@;)~&%@)'~##]",
"^/(((/(/((_(_:(/::(((((((///(/((/(((((/(((/(/:(////(/(/(((((((///(/((::((((:/((<",
"[}|12342567829}54047a5b|c5d6de77f181ghh5822e6525f49}4}595ijf1h34925}fk888e}cj|}l",
"mnopqrstuvwxyzzuAByyCDEptEFGustzzHIJoKLMLursNOrzPQOROLzyySTUsNuuVysNoWXYsoRLCLuZ"};
