/* XPM */
static char * next_clicked_xpm[] = {
"12 9 25 1",
" 	c None",
".	c #968C80",
"+	c #A59C90",
"@	c #B1A99E",
"#	c #B9B2A8",
"$	c #BCB5AC",
"%	c #867C6D",
"&	c #766A5A",
"*	c #F6F2EE",
"=	c #A0978B",
"-	c #C0B8AF",
";	c #CBC4BC",
">	c #CFC9C2",
",	c #8F8577",
"'	c #7D7263",
")	c #A79E93",
"!	c #524431",
"~	c #E2DDD8",
"{	c #948A7D",
"]	c #827668",
"^	c #A9A196",
"/	c #83786A",
"(	c #8A7F71",
"_	c #7B7061",
":	c #6C604F",
".+@#$#@+.%&*",
"=@-;>;-@=,'*",
")#;!~!;#){]*",
"^$>!*!!$^./*",
")#;!~!!!){]*",
"=@-!>!!@=,'*",
".+@!$!@+.%&*",
"(.=)^)=.(_:*",
"************"};
