/* XPM */
static char *magick[] = {
/* columns rows colors chars-per-pixel */
"80 5 138 2",
"   c #070000",
".  c #090000",
"X  c #0b0000",
"o  c #0d0000",
"O  c #0f0000",
"+  c #150000",
"@  c #1f0000",
"#  c #230000",
"$  c #250000",
"%  c #270000",
"&  c #290000",
"*  c #2b0000",
"=  c #2d0000",
"-  c #2f0000",
";  c #330000",
":  c #350000",
">  c #370000",
",  c #390000",
"<  c #3b0000",
"1  c #3d0000",
"2  c #3f0000",
"3  c #410000",
"4  c #430000",
"5  c #450000",
"6  c #470000",
"7  c #490000",
"8  c #4b0000",
"9  c #4f0000",
"0  c #510000",
"q  c #530000",
"w  c #550000",
"e  c #570000",
"r  c #590000",
"t  c #5b0000",
"y  c #5d0000",
"u  c #5f0000",
"i  c #610000",
"p  c #630000",
"a  c #650000",
"s  c #670000",
"d  c #6b0000",
"f  c #6d0000",
"g  c #6f0000",
"h  c #710000",
"j  c #730000",
"k  c #750000",
"l  c #770000",
"z  c #790000",
"x  c #7b0000",
"c  c #7d0000",
"v  c #7f0000",
"b  c #810000",
"n  c #830000",
"m  c #850000",
"M  c #870000",
"N  c #890000",
"B  c #8b0000",
"V  c #8d0000",
"C  c #8f0000",
"Z  c #930000",
"A  c #950000",
"S  c #970000",
"D  c #990000",
"F  c #9b0000",
"G  c #9d0000",
"H  c #9f0000",
"J  c #a10000",
"K  c #a30000",
"L  c #a50000",
"P  c #a70000",
"I  c #a90000",
"U  c #ab0000",
"Y  c #ad0000",
"T  c #af0000",
"R  c #b10000",
"E  c #b30000",
"W  c #b70000",
"Q  c #b90000",
"!  c #bb0000",
"~  c #bd0000",
"^  c #bf0000",
"/  c #c10000",
"(  c #c30000",
")  c #c50000",
"_  c #c70000",
"`  c #c90000",
"'  c #cb0000",
"]  c #cd0000",
"[  c #cf0000",
"{  c #d10000",
"}  c #d30000",
"|  c #d50000",
" . c #d70000",
".. c #d90000",
"X. c #db0000",
"o. c #dd0000",
"O. c #df0000",
"+. c #e10000",
"@. c #e30000",
"#. c #e50000",
"$. c #e70000",
"%. c #eb0000",
"&. c #ef0000",
"*. c #f10000",
"=. c #f30000",
"-. c #f70000",
";. c #f90000",
":. c #fb0000",
">. c #fd0000",
",. c Red",
"<. c #ff0600",
"1. c #ff0800",
"2. c #ff0a00",
"3. c #ff0e00",
"4. c #ff1000",
"5. c #ff1200",
"6. c #ff1400",
"7. c #ff1600",
"8. c #ff1800",
"9. c #ff1a00",
"0. c #ff1c00",
"q. c #ff1e00",
"w. c #ff2000",
"e. c #ff2200",
"r. c #ff2400",
"t. c #ff2600",
"y. c #ff2800",
"u. c #ff2c00",
"i. c #ff2e00",
"p. c #ff3000",
"a. c #ff3200",
"s. c #ff3400",
"d. c #ff3600",
"f. c #ff3800",
"g. c #ff3a00",
"h. c #ff3c00",
"j. c #ff3e00",
"k. c #ff4200",
/* pixels */
"O @ # $ * * - ; : 1 3 3 8 9 q r y s d h z c M V A G L Y W ^ ' { ..#.&.-.,.1.3.7.q.q.y.u.p.s.f.p.y.e.7.3.<.;.*.#.o.{ ' ^ W Y J D Z B n z k g s i r w 9 8 5 3 < : ",
"O : 9 q w r y i s s d g k z c n B V Z D J I Y E ! ( _ [ | ..@.%.*.;.,.1.1.3.5.7.7.7.8.8.q.q.q.7.3.<.,.-.*.#.@...{ ' ( ! E I L G D Z V M n z k h g s i y r w < < ",
"O w                                                                                                                         X                       X       < < ",
"O 8                                                                                                                                                         1 1 ",
"O 3                                                                                                                                                         8 1 ",
};
