/* XPM */
static char * bg_meter_xpm[] = {
"38 9 244 2",
"  	c None",
". 	c #020A18",
"+ 	c #091125",
"@ 	c #0D182C",
"# 	c #0E172D",
"$ 	c #0F172D",
"% 	c #0E192E",
"& 	c #0E172C",
"* 	c #0B172B",
"= 	c #0D152B",
"- 	c #0B1325",
"; 	c #0A1226",
"> 	c #0A1322",
", 	c #081023",
"' 	c #0B1021",
") 	c #0B1121",
"! 	c #0A1021",
"~ 	c #0A0F21",
"{ 	c #080C21",
"] 	c #0D1024",
"^ 	c #0C1024",
"/ 	c #0C0D23",
"( 	c #0C0F24",
"_ 	c #0E1226",
": 	c #0E1624",
"< 	c #0E1526",
"[ 	c #0C1527",
"} 	c #0E1626",
"| 	c #0D1526",
"1 	c #101123",
"2 	c #0E0E1F",
"3 	c #0E0E1E",
"4 	c #0C0C1D",
"5 	c #090A1A",
"6 	c #050816",
"7 	c #020E1F",
"8 	c #131E3B",
"9 	c #19274B",
"0 	c #172C4F",
"a 	c #1A2F53",
"b 	c #193055",
"c 	c #172C54",
"d 	c #162E52",
"e 	c #182C50",
"f 	c #152A4B",
"g 	c #152648",
"h 	c #152140",
"i 	c #121D39",
"j 	c #0E1832",
"k 	c #0E132E",
"l 	c #0F142E",
"m 	c #0C122A",
"n 	c #0A1428",
"o 	c #0B1128",
"p 	c #0A1028",
"q 	c #0D1529",
"r 	c #0C1529",
"s 	c #0E1328",
"t 	c #0B0F26",
"u 	c #0B0F24",
"v 	c #0E1222",
"w 	c #0D1223",
"x 	c #101524",
"y 	c #0D1321",
"z 	c #101023",
"A 	c #0F101F",
"B 	c #0D0E1E",
"C 	c #0D0D1D",
"D 	c #0C0C1C",
"E 	c #080819",
"F 	c #050716",
"G 	c #030E1C",
"H 	c #18213D",
"I 	c #1D284B",
"J 	c #19274A",
"K 	c #1B294C",
"L 	c #19294C",
"M 	c #182A4C",
"N 	c #142447",
"O 	c #172548",
"P 	c #192749",
"Q 	c #1B2747",
"R 	c #1A2444",
"S 	c #17213E",
"T 	c #131A35",
"U 	c #10152F",
"V 	c #0E1329",
"W 	c #0D1227",
"X 	c #0A1126",
"Y 	c #080D22",
"Z 	c #0A0E23",
"` 	c #0A0F24",
" .	c #0A1024",
"..	c #0B0F23",
"+.	c #0B0B1D",
"@.	c #0A0B1B",
"#.	c #0B0D1A",
"$.	c #0C0D1A",
"%.	c #0E0F1A",
"&.	c #0C0D18",
"*.	c #0B0B1C",
"=.	c #0B0C1B",
"-.	c #090919",
";.	c #0C0D1C",
">.	c #0A0A1A",
",.	c #060917",
"'.	c #050B15",
").	c #2A2F46",
"!.	c #2F354E",
"~.	c #292D47",
"{.	c #23263F",
"].	c #1C2239",
"^.	c #191C31",
"/.	c #13172D",
"(.	c #191C32",
"_.	c #1A1E34",
":.	c #171B30",
"<.	c #1A1E35",
"[.	c #1C2137",
"}.	c #181A32",
"|.	c #111529",
"1.	c #0F1321",
"2.	c #0D111F",
"3.	c #0C0E1E",
"4.	c #0C0F1E",
"5.	c #0D101E",
"6.	c #0C0D1E",
"7.	c #0C0F1F",
"8.	c #0A0D1E",
"9.	c #090B19",
"0.	c #0A0B15",
"a.	c #080813",
"b.	c #090A16",
"c.	c #0A0A15",
"d.	c #0A0914",
"e.	c #0A0917",
"f.	c #0A0916",
"g.	c #0B0B18",
"h.	c #0A0A18",
"i.	c #0D0C1A",
"j.	c #0C0B19",
"k.	c #070615",
"l.	c #060613",
"m.	c #02030B",
"n.	c #141729",
"o.	c #181A2D",
"p.	c #131426",
"q.	c #121224",
"r.	c #121021",
"s.	c #0F0E1E",
"t.	c #121221",
"u.	c #141424",
"v.	c #151525",
"w.	c #19182B",
"x.	c #161429",
"y.	c #18162A",
"z.	c #121120",
"A.	c #0E0E19",
"B.	c #0B0B17",
"C.	c #0D0D18",
"D.	c #0C0C17",
"E.	c #0E0E18",
"F.	c #0B0A16",
"G.	c #0A0A16",
"H.	c #090916",
"I.	c #0A0A17",
"J.	c #06050F",
"K.	c #07050E",
"L.	c #070610",
"M.	c #080710",
"N.	c #090710",
"O.	c #090812",
"P.	c #0C0B15",
"Q.	c #0C0A14",
"R.	c #090713",
"S.	c #06060F",
"T.	c #06050E",
"U.	c #000104",
"V.	c #0F0F1B",
"W.	c #0E0D19",
"X.	c #0D0B17",
"Y.	c #0B0915",
"Z.	c #0B0914",
"`.	c #090813",
" +	c #0F0D18",
".+	c #14111D",
"++	c #13101F",
"@+	c #130F1D",
"#+	c #0E0A16",
"$+	c #08060F",
"%+	c #06050D",
"&+	c #040409",
"*+	c #05040B",
"=+	c #05050B",
"-+	c #07060C",
";+	c #06050B",
">+	c #07060E",
",+	c #07060D",
"'+	c #09070F",
")+	c #09080E",
"!+	c #05040A",
"~+	c #04040A",
"{+	c #000001",
"]+	c #090810",
"^+	c #08050C",
"/+	c #06040A",
"(+	c #06050A",
"_+	c #09060E",
":+	c #0A060E",
"<+	c #0C080F",
"[+	c #0B0610",
"}+	c #09060D",
"|+	c #06030A",
"1+	c #050107",
"2+	c #030005",
"3+	c #040107",
"4+	c #050206",
"5+	c #050207",
"6+	c #030305",
"7+	c #020305",
"8+	c #040306",
"9+	c #030405",
"0+	c #040407",
"a+	c #040406",
"b+	c #030206",
"c+	c #040309",
"d+	c #050408",
"e+	c #050409",
"f+	c #040507",
"g+	c #030306",
"h+	c #000000",
"i+	c #020204",
"j+	c #010203",
"k+	c #020103",
"l+	c #010103",
"m+	c #010102",
"n+	c #000002",
"o+	c #020203",
"p+	c #010002",
"q+	c #010001",
"r+	c #000102",
"s+	c #020003",
"t+	c #000101",
"u+	c #030105",
". + @ # $ % & * = - ; > , ' ) ! ~ { ] ^ / ( _ : < < [ } | 1 2 3 3 2 2 4 5 6 ",
"7 8 9 0 a b c d e f g h i j k l m n o p q r s t u v w x y z A 3 B C B D E F ",
"G H I J K L M N O P Q R S T U V W X Y Z `  ...+.@.#.$.%.&.*.=.-.@.;.;.;.>.,.",
"'.).!.~.{.].^./.(._.:.<.[.}.|.1.2.3.4.5.6.7.8.9.0.a.b.c.d.e.f.g.h.i.j.e.k.l.",
"m.n.o.n.p.q.r.s.t.u.v.w.x.y.z.A.B.C.D.E.F.G.H.I.J.K.L.L.M.N.M.O.O.P.Q.R.S.T.",
"U.D.V.W.X.Y.Z.`. + + +.+++@+#+N.K.K.K.$+K.K.K.%+&+&+*+*+=+-+;+>+,+'+)+%+!+~+",
"{+-+]+>+^+/+(+*+_+:+<+<+[+}+|+1+1+1+2+2+1+3+4+5+6+7+8+8+9+0+a+b+8+c+d+e+f+g+",
"h+i+6+j+k+l+m+n+l+l+o+o+p+q+{+{+q+{+h+h+{+q+q+p+l+m+l+k+r+k+k+p+p+p+s+l+t+{+",
"h+h+h+h+h+h+h+h+h+h+h+h+h+h+h+h+h+h+h+h+h+h+{+h+p+m+j+k+o+s+s+s+s+u+u+k+m+r+"};
