/* XPM */
static char * frame_right_xpm[] = {
"4 32 34 1",
" 	c None",
".	c #111111",
"+	c #101010",
"@	c #0C0C0C",
"#	c #070707",
"$	c #161616",
"%	c #141414",
"&	c #090909",
"*	c #181818",
"=	c #171717",
"-	c #191919",
";	c #1A1A1A",
">	c #151515",
",	c #1B1B1B",
"'	c #1C1C1C",
")	c #0F0F0F",
"!	c #0E0E0E",
"~	c #080808",
"{	c #1D1D1D",
"]	c #131313",
"^	c #1E1E1E",
"/	c #222222",
"(	c #212121",
"_	c #262626",
":	c #242424",
"<	c #282828",
"[	c #292929",
"}	c #2A2A2A",
"|	c #232323",
"1	c #2B2B2B",
"2	c #2D2D2D",
"3	c #252525",
"4	c #2E2E2E",
"5	c #0D0D0D",
".+@#",
"$%+&",
"*=.&",
"-=.&",
"-$.&",
"*$+&",
";>+&",
",$+&",
"'>)&",
"'$+&",
",%!&",
",>)&",
"'=+&",
"'-.~",
"'-.~",
",-.~",
",-.#",
";-.#",
"';.#",
"{{]#",
"^/$#",
"(_*~",
":_*~",
"_:$~",
"<:$~",
"[(%~",
"}|%~",
"1_%~",
"[[$~",
"<2=&",
"34=&",
">$5#"};
