/* XPM */
static char * frame_bottom_xpm[] = {
"68 2 31 1",
" 	c None",
".	c #0E0E0E",
"+	c #181818",
"@	c #242424",
"#	c #2A2A2A",
"$	c #2B2B2B",
"%	c #292929",
"&	c #282828",
"*	c #272727",
"=	c #262626",
"-	c #252525",
";	c #222222",
">	c #212121",
",	c #1F1F1F",
"'	c #1E1E1E",
")	c #1D1D1D",
"!	c #1C1C1C",
"~	c #1B1B1B",
"{	c #1A1A1A",
"]	c #191919",
"^	c #171717",
"/	c #151515",
"(	c #141414",
"_	c #070707",
":	c #0C0C0C",
"<	c #101010",
"[	c #121212",
"}	c #111111",
"|	c #0F0F0F",
"1	c #0D0D0D",
"2	c #090909",
".+@#$#%&&&*=-@@-=--@@@;>,')!~{]]]]{{{{{{]]++^^++]+^+++^^^^^+^^^^//(.",
"_:<[[}<}<<||||<<<<<}[[}}}|..1111111111..1111::1.111..111........1112"};
