/* XPM */
static char * frame_horizontal_xpm[] = {
"80 5 273 2",
"  	c None",
". 	c #0F0700",
"+ 	c #1B0F00",
"@ 	c #1D1100",
"# 	c #1E1200",
"$ 	c #211400",
"% 	c #231500",
"& 	c #251700",
"* 	c #271900",
"= 	c #2B1B00",
"- 	c #2D1E00",
"; 	c #302000",
"> 	c #322100",
", 	c #362500",
"' 	c #392700",
") 	c #3D2900",
"! 	c #402D00",
"~ 	c #443000",
"{ 	c #483200",
"] 	c #4B3600",
"^ 	c #503A00",
"/ 	c #543E01",
"( 	c #584101",
"_ 	c #5C4501",
": 	c #604901",
"< 	c #644D01",
"[ 	c #6A5101",
"} 	c #6F5601",
"| 	c #735A01",
"1 	c #786001",
"2 	c #7D6401",
"3 	c #826901",
"4 	c #896F01",
"5 	c #8E7301",
"6 	c #937801",
"7 	c #987E01",
"8 	c #9D8302",
"9 	c #A08702",
"0 	c #A48C02",
"a 	c #A89002",
"b 	c #AB9502",
"c 	c #AE9802",
"d 	c #B09B02",
"e 	c #B3A002",
"f 	c #B7A202",
"g 	c #B8A503",
"h 	c #BBA803",
"i 	c #BCAA03",
"j 	c #B4A003",
"k 	c #AF9B02",
"l 	c #AC9502",
"m 	c #A79102",
"n 	c #A38B02",
"o 	c #9E8502",
"p 	c #9A8002",
"q 	c #937B02",
"r 	c #8F7402",
"s 	c #8A6E02",
"t 	c #856801",
"u 	c #7F6301",
"v 	c #7B5E01",
"w 	c #735901",
"x 	c #6F5401",
"y 	c #695001",
"z 	c #644B01",
"A 	c #604701",
"B 	c #5B4301",
"C 	c #553F01",
"D 	c #523B01",
"E 	c #4D3701",
"F 	c #493401",
"G 	c #453101",
"H 	c #412D01",
"I 	c #3D2A00",
"J 	c #3A2700",
"K 	c #332200",
"L 	c #311F00",
"M 	c #2D1D00",
"N 	c #291A00",
"O 	c #392800",
"P 	c #3A2A00",
"Q 	c #3D2C00",
"R 	c #3F2D00",
"S 	c #412F00",
"T 	c #433100",
"U 	c #463300",
"V 	c #483500",
"W 	c #4B3700",
"X 	c #4D3900",
"Y 	c #513C00",
"Z 	c #533E00",
"` 	c #574000",
" .	c #5A4300",
"..	c #5E4600",
"+.	c #614800",
"@.	c #644C00",
"#.	c #685000",
"$.	c #6C5301",
"%.	c #725A01",
"&.	c #765D01",
"*.	c #796101",
"=.	c #7E6501",
"-.	c #826801",
";.	c #856C01",
">.	c #897101",
",.	c #8D7401",
"'.	c #907801",
").	c #957D01",
"!.	c #998001",
"~.	c #9D8402",
"{.	c #A18802",
"].	c #A58C02",
"^.	c #A68E02",
"/.	c #A79002",
"(.	c #A99202",
"_.	c #AA9402",
":.	c #AB9402",
"<.	c #AC9702",
"[.	c #AD9702",
"}.	c #AE9803",
"|.	c #AE9903",
"1.	c #AA9403",
"2.	c #A79003",
"3.	c #A38C02",
"4.	c #9C8402",
"5.	c #997F02",
"6.	c #947A02",
"7.	c #917602",
"8.	c #8B7202",
"9.	c #886D02",
"0.	c #846902",
"a.	c #806401",
"b.	c #7B6001",
"c.	c #785C01",
"d.	c #725901",
"e.	c #6F5501",
"f.	c #6B5201",
"g.	c #674E01",
"h.	c #604801",
"i.	c #5B4501",
"j.	c #594101",
"k.	c #523C01",
"l.	c #4F3901",
"m.	c #4B3701",
"n.	c #493400",
"o.	c #463200",
"p.	c #433000",
"q.	c #412E00",
"r.	c #3F2C00",
"s.	c #2C1C00",
"t.	c #2C1B00",
"u.	c #050505",
"v.	c #2B1C00",
"w.	c #2D1C00",
"x.	c #0E0600",
"y.	c #372500",
"z.	c #301F00",
"A.	c #2F1E00",
"B.	c #0D0600",
"C.	c #352400",
"D.	c #0C0500",
"E.	c #3B2900",
"F.	c #312000",
"G.	c #281800",
"H.	c #422D00",
"I.	c #322000",
"J.	c #493301",
"K.	c #332100",
"L.	c #0B0400",
"M.	c #201200",
"N.	c #554401",
"O.	c #564501",
"P.	c #584601",
"Q.	c #594701",
"R.	c #5A4801",
"S.	c #5C4901",
"T.	c #5D4A01",
"U.	c #5F4B01",
"V.	c #604D01",
"W.	c #624E01",
"X.	c #635001",
"Y.	c #655001",
"Z.	c #675201",
"`.	c #695401",
" +	c #6B5501",
".+	c #6D5701",
"++	c #6F5901",
"@+	c #715A01",
"#+	c #735C01",
"$+	c #755E01",
"%+	c #776001",
"&+	c #796201",
"*+	c #7C6401",
"=+	c #7E6601",
"-+	c #816801",
";+	c #836B01",
">+	c #866C01",
",+	c #886F01",
"'+	c #8C7201",
")+	c #8E7401",
"!+	c #917701",
"~+	c #947A01",
"{+	c #977C01",
"]+	c #9C8302",
"^+	c #AC9602",
"/+	c #AE9902",
"(+	c #B09C02",
"_+	c #B29E02",
":+	c #B3A003",
"<+	c #B6A203",
"[+	c #B8A403",
"}+	c #352300",
"|+	c #0A0400",
"1+	c #130900",
"2+	c #1F1500",
"3+	c #201500",
"4+	c #221600",
"5+	c #231700",
"6+	c #241800",
"7+	c #261A00",
"8+	c #281B00",
"9+	c #2B1D00",
"0+	c #2D1F00",
"a+	c #312200",
"b+	c #332300",
"c+	c #3C2A00",
"d+	c #473400",
"e+	c #4E3900",
"f+	c #563F01",
"g+	c #594201",
"h+	c #5D4601",
"i+	c #624901",
"j+	c #664E01",
"k+	c #745A01",
"l+	c #785D01",
"m+	c #7E6201",
"n+	c #826701",
"o+	c #876C01",
"p+	c #8C7101",
"q+	c #907501",
"r+	c #957A02",
"s+	c #9A8102",
"t+	c #9F8602",
"u+	c #A89102",
"v+	c #AA9502",
"w+	c #AE9A02",
"x+	c #B39E02",
"y+	c #B7A302",
"z+	c #B9A802",
"A+	c #BDAC03",
"B+	c #C1AF03",
"C+	c #C0AD03",
"D+	c #BBAA03",
"E+	c #B8A602",
"F+	c #B5A202",
"G+	c #B19D02",
"H+	c #A58E02",
"I+	c #987E02",
"J+	c #947801",
"K+	c #8A6F01",
"L+	c #856901",
"M+	c #7F6401",
"N+	c #7B6101",
"O+	c #775B01",
"P+	c #715801",
"Q+	c #684F01",
"R+	c #5F4801",
"S+	c #5C4401",
"T+	c #584201",
"U+	c #533E01",
"V+	c #513B00",
"W+	c #4D3800",
"X+	c #432E00",
"D.w.u.u.u.u.u.u.u.u.u.u.u.u.u.u.u.u.u.u.u.u.u.u.u.u.u.u.u.u.u.u.u.u.u.u.u.u.u.u.u.u.u.u.u.u.u.u.u.u.u.u.u.u.u.u.u.u.u.u.u.u.u.u.u.u.u.u.u.u.u.u.u.u.u.u.u.u.E.F.",
"D.G.u.u.u.u.u.u.u.u.u.u.u.u.u.u.u.u.u.u.u.u.u.u.u.u.u.u.u.u.u.u.u.u.u.u.u.u.u.u.u.u.u.u.u.u.u.u.u.u.u.u.u.u.u.u.u.u.u.u.u.u.u.u.u.u.u.u.u.u.u.u.u.u.u.u.u.u.H.I.",
"D.% u.u.u.u.u.u.u.u.u.u.u.u.u.u.u.u.u.u.u.u.u.u.u.u.u.u.u.u.u.u.u.u.u.u.u.u.u.u.u.u.u.u.u.u.u.u.u.u.u.u.u.u.u.u.u.u.u.u.u.u.u.u.u.u.u.u.u.u.u.u.u.u.u.u.u.u.J.K.",
"L.M.N.O.P.Q.R.S.T.U.V.W.X.Y.Z.`. +.+++@+#+$+%+&+*+=+-+;+>+,+'+)+!+~+{+5.]+o {.3.^.m _.^+/+(+_+:+<+[+<+:+_+(+/+^+_.m ^.3.{.o ]+5.{+~+!+)+'+,+>+;+-+=+*+&+%+$+l.}+",
"|+1+2+3+4+5+6+7+8+9+0+; a+b+, O c+r.S ~ d+] e+k.f+g+h+i+j+[ e.k+l+m+n+o+p+q+r+s+t+n u+v+w+x+y+z+A+B+C+D+E+F+G+c (.H+{.8 I+J+)+K+L+M+N+O+P+$.Q+< R+S+T+U+V+W+X+y."};
