/* XPM */
static char * krell_meter_xpm[] = {
"15 8 257 2",
"  	c None",
". 	c #000000",
"+ 	c #000800",
"@ 	c #001000",
"# 	c #001800",
"$ 	c #002100",
"% 	c #002900",
"& 	c #080000",
"* 	c #080800",
"= 	c #100800",
"- 	c #180800",
"; 	c #181000",
"> 	c #210800",
", 	c #211000",
"' 	c #291000",
") 	c #080808",
"! 	c #100808",
"~ 	c #101008",
"{ 	c #181808",
"] 	c #211008",
"^ 	c #291008",
"/ 	c #291808",
"( 	c #311008",
"_ 	c #311808",
": 	c #391808",
"< 	c #392108",
"[ 	c #421808",
"} 	c #422108",
"| 	c #4A2108",
"1 	c #101010",
"2 	c #181010",
"3 	c #181810",
"4 	c #211810",
"5 	c #181818",
"6 	c #181821",
"7 	c #211818",
"8 	c #211821",
"9 	c #212118",
"0 	c #212121",
"a 	c #292110",
"b 	c #312110",
"c 	c #392312",
"d 	c #462510",
"e 	c #4A2910",
"f 	c #4A2918",
"g 	c #522910",
"h 	c #522918",
"i 	c #5A2910",
"j 	c #5A2918",
"k 	c #292121",
"l 	c #292921",
"m 	c #000029",
"n 	c #212129",
"o 	c #292129",
"p 	c #292929",
"q 	c #312929",
"r 	c #000031",
"s 	c #292931",
"t 	c #312931",
"u 	c #000839",
"v 	c #000842",
"w 	c #080842",
"x 	c #00084A",
"y 	c #08084A",
"z 	c #101873",
"A 	c #003100",
"B 	c #003900",
"C 	c #004200",
"D 	c #313129",
"E 	c #313131",
"F 	c #393118",
"G 	c #393131",
"H 	c #393139",
"I 	c #393931",
"J 	c #393939",
"K 	c #393942",
"L 	c #423939",
"M 	c #423942",
"N 	c #424239",
"O 	c #424242",
"P 	c #4A4242",
"Q 	c #563114",
"R 	c #5A3118",
"S 	c #633110",
"T 	c #633118",
"U 	c #524229",
"V 	c #633918",
"W 	c #633921",
"X 	c #6B3118",
"Y 	c #6B3918",
"Z 	c #6B3921",
"` 	c #6B4221",
" .	c #733918",
"..	c #733921",
"+.	c #783C1E",
"@.	c #7B4218",
"#.	c #7B4221",
"$.	c #044A04",
"%.	c #474444",
"&.	c #4A4A42",
"*.	c #4A4A4A",
"=.	c #4A4A52",
"-.	c #524A4A",
";.	c #524A52",
">.	c #52524A",
",.	c #525252",
"'.	c #52525A",
").	c #5A4A31",
"!.	c #5A5252",
"~.	c #5A525A",
"{.	c #635231",
"].	c #734A29",
"^.	c #7B4A21",
"/.	c #415A3B",
"(.	c #5A5A5A",
"_.	c #5A5A63",
":.	c #635A63",
"<.	c #006300",
"[.	c #258F22",
"}.	c #63635A",
"|.	c #636363",
"1.	c #716241",
"2.	c #6B6B61",
"3.	c #6B676B",
"4.	c #736B6B",
"5.	c #6F6F71",
"6.	c #737373",
"7.	c #73737B",
"8.	c #737B7B",
"9.	c #844218",
"0.	c #844221",
"a.	c #844A21",
"b.	c #8C4221",
"c.	c #8C4A21",
"d.	c #944A21",
"e.	c #994F21",
"f.	c #A55221",
"g.	c #844A29",
"h.	c #8C4A29",
"i.	c #904E29",
"j.	c #915B37",
"k.	c #9C5629",
"l.	c #A55229",
"m.	c #9C6231",
"n.	c #9C6140",
"o.	c #AD4E25",
"p.	c #AD5229",
"q.	c #A55A29",
"r.	c #AD5A29",
"s.	c #A56329",
"t.	c #A56236",
"u.	c #AD6332",
"v.	c #B65F2F",
"w.	c #BD6329",
"x.	c #BD6331",
"y.	c #BD6339",
"z.	c #C66329",
"A.	c #C66331",
"B.	c #C66B31",
"C.	c #CB6531",
"D.	c #D86931",
"E.	c #996E47",
"F.	c #A96F4A",
"G.	c #B27141",
"H.	c #B77550",
"I.	c #7B737B",
"J.	c #7B7B5A",
"K.	c #7B7B63",
"L.	c #A67962",
"M.	c #CB7437",
"N.	c #D67036",
"O.	c #D67B39",
"P.	c #CB794D",
"Q.	c #E17333",
"R.	c #DE7E3C",
"S.	c #E97836",
"T.	c #F57E37",
"U.	c #90845A",
"V.	c #8C8C6B",
"W.	c #94946F",
"X.	c #9C9473",
"Y.	c #A28C58",
"Z.	c #9C9C7B",
"`.	c #D2844D",
" +	c #CA965E",
".+	c #F38640",
"++	c #FF8C42",
"@+	c #E19160",
"#+	c #F59054",
"$+	c #FBA34E",
"%+	c #F3A167",
"&+	c #F5B164",
"*+	c #F9C86E",
"=+	c #7E8085",
"-+	c #84848C",
";+	c #848991",
">+	c #8D9098",
",+	c #9FA194",
"'+	c #9EA0AB",
")+	c #A5A9B5",
"!+	c #ADADB5",
"~+	c #B5AD84",
"{+	c #B5B584",
"]+	c #BABA8E",
"^+	c #C6C68C",
"/+	c #C6C694",
"(+	c #C6C6AD",
"_+	c #ADADBD",
":+	c #ADB5BD",
"<+	c #CEC69C",
"[+	c #CECE9C",
"}+	c #D6D6A5",
"|+	c #DED6A5",
"1+	c #DEDEA5",
"2+	c #E9CEA7",
"3+	c #E7E784",
"4+	c #F7EF94",
"5+	c #E7DEAD",
"6+	c #E7E7AD",
"7+	c #C6C6B5",
"8+	c #E7E7B5",
"9+	c #EFE7B5",
"0+	c #EFEFB5",
"a+	c #F7E7BD",
"b+	c #E7E7E7",
"c+	c #FFCE7B",
"d+	c #FFCE84",
"e+	c #FFD67B",
"f+	c #FFDE7B",
"g+	c #FFD684",
"h+	c #FFDA88",
"i+	c #FFDE8C",
"j+	c #FFE784",
"k+	c #FFEF7B",
"l+	c #FFE78C",
"m+	c #FFEB90",
"n+	c #FFEF94",
"o+	c #FFF398",
"p+	c #FFF79C",
"q+	c #FFFF9C",
"r+	c #FFFFA5",
"s+	c #FFCEAD",
"t+	c #FFFFAD",
"u+	c #F7EFB5",
"v+	c #FFDEB5",
"w+	c #FFFFB5",
"x+	c #F7EFBD",
"y+	c #F7F7BD",
"z+	c #FFEFBD",
"A+	c #FFFFBD",
"B+	c #FFFFC6",
"C+	c #FFFFCE",
"D+	c #FFFFD6",
"E+	c #F7F7DE",
"F+	c #F7F7F7",
"G+	c #FFFFF7",
"H+	c #FFFFFF",
"5 5 5 0 0 0 0 a+0 0 0 0 0 0 0 ",
". r+r+r+r+r+r+! n+l+g+c+*+&+,+",
"r+o+l+h+d+*+&+)  + +Y.E.E.1.. ",
"r+m+i+g+c+*+&+)  +Y.Y.E.1.1.. ",
"r+l+h+d+*+&+ +)  +Y.E.E.1.{.. ",
"r+i+g+c+*+&+ +) Y.Y.E.1.1.{.. ",
"r+U.E.1.1.).U ) l a 2 * . . . ",
"E E E 4 4 4 4 ! 4 4 9 9 9 9 . "};
