/* XPM */
static char * bg_panel_xpm[] = {
"68 9 73 1",
" 	c None",
".	c #002B00",
"+	c #004600",
"@	c #007600",
"#	c #008500",
"$	c #008800",
"%	c #008200",
"&	c #007C00",
"*	c #007800",
"=	c #007400",
"-	c #007100",
";	c #006E00",
">	c #006B00",
",	c #006C00",
"'	c #006A00",
")	c #006700",
"!	c #006100",
"~	c #005E00",
"{	c #005D00",
"]	c #005B00",
"^	c #005800",
"/	c #005600",
"(	c #006000",
"_	c #006500",
":	c #004E00",
"<	c #004A00",
"[	c #004800",
"}	c #004900",
"|	c #004C00",
"1	c #004D00",
"2	c #004300",
"3	c #003A00",
"4	c #002F00",
"5	c #002900",
"6	c #002800",
"7	c #002600",
"8	c #002A00",
"9	c #002D00",
"0	c #002500",
"a	c #002100",
"b	c #001F00",
"c	c #003200",
"d	c #001E00",
"e	c #006F00",
"f	c #005400",
"g	c #005100",
"h	c #004400",
"i	c #004000",
"j	c #003D00",
"k	c #003C00",
"l	c #003B00",
"m	c #003900",
"n	c #003F00",
"o	c #004200",
"p	c #003800",
"q	c #003600",
"r	c #002200",
"s	c #001B00",
"t	c #001700",
"u	c #001400",
"v	c #001200",
"w	c #001500",
"x	c #001C00",
"y	c #002E00",
"z	c #004F00",
"A	c #004500",
"B	c #003300",
"C	c #003400",
"D	c #003000",
"E	c #002400",
"F	c #001900",
"G	c #001800",
"H	c #003700",
".+@#$%&*@@@=-;>;,>')!~{]^/^](__!/:<[[}|11<234566555767778.99960aba6c",
"dc{;e'!~^fg::|<<<[h2ijkl3mln222ijkkjniiooooilmpqc4800ra070adstuvwxar",
"syz~!~/g1A2innkkk3mqBccBcCCCCCBcD495589.8.886EaabbabdxxsFFtuwuuwd595",
"F5+//g<himmqBBcccD4y4DcD4444y.5670EErrrabdxxFGsxbbadxFFttuuuuuutd7Ex",
"s6n+[okmqccD444yyy99y44y955667EaaaabddxFttGGFFsdssxdddbbbxxxxsFx746b",
"GacpHCc449.8555885566770E00EabdxxsFGGttwuuuuvuuuuwtGFsxbraaabddr845x",
"xEyy.566777777700EraabbbbbddxsFGtttttGFGttuuuuvvutGsxdaE776665.DmpD7",
"da76565667770EraaaabddddddddxsFGttuuuuuuvvvvuutGxxdbaar65..8558..87b",
"767666770EErrabdxxsFGGGGtttttwuuuuuuwwuvvvvvuwtFxdbadddxsxsdbbdddaaa"};
