/* XPM */
static char * frame_bottom_xpm[] = {
"80 5 95 2",
"  	c None",
". 	c #000000",
"+ 	c #002600",
"@ 	c #002200",
"# 	c #001E00",
"$ 	c #001C00",
"% 	c #002F00",
"& 	c #003800",
"* 	c #003D00",
"= 	c #004600",
"- 	c #004C00",
"; 	c #004300",
"> 	c #003F00",
", 	c #003900",
"' 	c #003600",
") 	c #003200",
"! 	c #003000",
"~ 	c #002D00",
"{ 	c #002A00",
"] 	c #002100",
"^ 	c #001F00",
"/ 	c #001900",
"( 	c #001B00",
"_ 	c #002400",
": 	c #002800",
"< 	c #002500",
"[ 	c #000B00",
"} 	c #002E00",
"| 	c #003400",
"1 	c #003A00",
"2 	c #004E00",
"3 	c #006100",
"4 	c #006E00",
"5 	c #007800",
"6 	c #008300",
"7 	c #008C00",
"8 	c #008800",
"9 	c #008200",
"0 	c #007D00",
"a 	c #007200",
"b 	c #006F00",
"c 	c #006A00",
"d 	c #006500",
"e 	c #005B00",
"f 	c #005400",
"g 	c #004A00",
"h 	c #003B00",
"i 	c #003700",
"j 	c #002B00",
"k 	c #001800",
"l 	c #001700",
"m 	c #001500",
"n 	c #002900",
"o 	c #003300",
"p 	c #000D00",
"q 	c #004D00",
"r 	c #007B00",
"s 	c #008F00",
"t 	c #00AA00",
"u 	c #00B100",
"v 	c #00B500",
"w 	c #00B700",
"x 	c #00BA00",
"y 	c #00A800",
"z 	c #00A000",
"A 	c #009700",
"B 	c #009600",
"C 	c #008D00",
"D 	c #008900",
"E 	c #007900",
"F 	c #006200",
"G 	c #005D00",
"H 	c #005600",
"I 	c #005300",
"J 	c #004F00",
"K 	c #004500",
"L 	c #004000",
"M 	c #001400",
"N 	c #003C00",
"O 	c #001000",
"P 	c #008500",
"Q 	c #008A00",
"R 	c #007400",
"S 	c #007100",
"T 	c #006B00",
"U 	c #006800",
"V 	c #006000",
"W 	c #005A00",
"X 	c #004800",
"Y 	c #000100",
"Z 	c #000400",
"` 	c #000700",
" .	c #000800",
"..	c #000600",
"+.	c #000300",
". + @ # $ $ $ + % & * = - ; > , & ' ) ! % ~ { + + @ ] ] ^ ] # $ $ $ $ $ / ( $ $ $ $ $ $ ( $ $ # $ # # # ^ # # ^ ] # ] ] ] ] ] @ _ + + : < @ _ + : ~ % ! ) + [ . ",
". ~ : < } | 1 2 3 4 5 6 7 8 9 0 a 4 b c d 3 e f 2 g ; * h , i ! % j : + ] # $ ( k l l m l l l l k k $ # ] @ _ < + : : : n { { j j j j n { } o | , 1 1 h 1 j p . ",
". ] ] _ , q 3 r s t u v w w x v t y y z A B C D 9 E 4 d F G H I J - g K L | % % } : < ] ^ $ / l l m M l / $ ^ @ _ + : ~ ~ % ) o ' & i i , N L L ; ; ; ; L % O . ",
". } % ) , L g f e P Q 7 7 8 Q 7 9 9 9 5 R S S T T T c U U V W H f I 2 q X L > > * 1 i ' ! % j : < @ ^ ^ # # ^ # $ $ $ # # ] ] < < + + : ~ ! , 1 * L L L N ~ p . ",
"O Y Z `  . .` [ p O p [ `  ... .......+.+.+.Y Y Y +.+.+.+.Y . . . . . . . . . . . . . . . . . . . . . . . . . . . . . . . . . . . . . . . . . . . . . . . . . . "};
