/* XPM */
static char * frame_top_xpm[] = {
"80 5 95 2",
"  	c None",
". 	c #000000",
"+ 	c #001E00",
"@ 	c #002F00",
"# 	c #002200",
"$ 	c #001C00",
"% 	c #000300",
"& 	c #000B00",
"* 	c #000100",
"= 	c #002A00",
"- 	c #002D00",
"; 	c #002900",
"> 	c #003800",
", 	c #003900",
"' 	c #003C00",
") 	c #004000",
"! 	c #004900",
"~ 	c #004E00",
"{ 	c #005100",
"] 	c #005400",
"^ 	c #005600",
"/ 	c #005800",
"( 	c #005A00",
"_ 	c #005B00",
": 	c #005D00",
"< 	c #005E00",
"[ 	c #006000",
"} 	c #006100",
"| 	c #006200",
"1 	c #006400",
"2 	c #006500",
"3 	c #006700",
"4 	c #006800",
"5 	c #006A00",
"6 	c #006F00",
"7 	c #007800",
"8 	c #008000",
"9 	c #008600",
"0 	c #009400",
"a 	c #009F00",
"b 	c #00A800",
"c 	c #00AD00",
"d 	c #00B500",
"e 	c #00B700",
"f 	c #00BA00",
"g 	c #00BF00",
"h 	c #00CE00",
"i 	c #00DA00",
"j 	c #00D300",
"k 	c #00C400",
"l 	c #008C00",
"m 	c #006B00",
"n 	c #004D00",
"o 	c #001000",
"p 	c #003000",
"q 	c #002800",
"r 	c #002100",
"s 	c #002B00",
"t 	c #003600",
"u 	c #004300",
"v 	c #004400",
"w 	c #004600",
"x 	c #004500",
"y 	c #004800",
"z 	c #004A00",
"A 	c #004F00",
"B 	c #005700",
"C 	c #007600",
"D 	c #007B00",
"E 	c #008500",
"F 	c #008800",
"G 	c #008900",
"H 	c #009100",
"I 	c #009E00",
"J 	c #009700",
"K 	c #007200",
"L 	c #002600",
"M 	c #001F00",
"N 	c #001900",
"O 	c #001800",
"P 	c #002500",
"Q 	c #003200",
"R 	c #003400",
"S 	c #003700",
"T 	c #003A00",
"U 	c #003D00",
"V 	c #003F00",
"W 	c #004200",
"X 	c #002400",
"Y 	c #000800",
"Z 	c #001B00",
"` 	c #002E00",
" .	c #003300",
"..	c #003B00",
"+.	c #000A00",
". + @ # + $ $ + + . % % . . . . . . . . . . . . . . . . . . . . . . . . . . . . . . . . . . . . . . . . . . . . . . . . . . . . . . . . . . . & * * * * . . . * ",
". = - # + $ $ $ + # ; > , ' ) ! ~ { { ] ] ^ / / ( _ _ _ : : < < [ [ [ < [ [ } | | | | | 1 2 2 2 3 3 3 3 4 3 3 3 5 6 7 8 9 0 a b c d e f g h i j k c l m n @ o % ",
". p q r + $ $ $ + q s s = @ t ' ) ) ) u u v w x x w y ! z y z z n n ~ n ~ A { ] ^ ^ ^ B / / / ( : _ _ : : : < < [ | 2 5 5 6 C 7 D E F G H I a J F K / u @ $ & * ",
". s L r + $ $ + + M + N O $ r P L L L L L q ; ; = ; ; = s s = s @ @ p p p Q R R S > , , , T T ' U V ) ) ) W u v x w ! ! ! z n ~ { ^ _ [ : < ^ { x T @ L X O Y . ",
". s L M + $ $ + M + M + + $ $ + Z $ N Z Z Z N Z N N O Z Z Z O O Z $ $ + $ M r r X P L q q ; ; = s s - - ` @ @ @ p p p Q Q  .R > > , , .., R ` s L P # P q M +.. "};
