/* XPM */
static char * frame_top_xpm[] = {
"32 2 3 1",
" 	c None",
".	c #FFFFFF",
"+	c #D6D6D6",
"................................",
".++++++++++++++++++++++++++++++."};
