/* XPM */
static char * bg_meter_xpm[] = {
"60 9 11 1",
" 	c None",
".	c #E9E9E9",
"+	c #8F8F8F",
"@	c #E2E2E2",
"#	c #D8D8D8",
"$	c #CCCCCC",
"%	c #BBBBBB",
"&	c #BABABA",
"*	c #AAAAAA",
"=	c #9F9F9F",
"-	c #A0A0A0",
"............................................................",
"...........................................................+",
".@@@@@@@@@@@@@@@@@@@@@@@@@@@@@@@@@@@@@@@@@@@@@@@@@@@@@@@@@@+",
".##########################################################+",
".$$$$$$$$$$$$$$$$$$$$$$$$$$$$$$$$$$$$$$$$$$$$$$$$$$$$$$$$$$+",
".%%%%%%%%%%%%%%%%%%%%%&&&&&&&&&&&&&&&&&&&&&&&&&&&&&&&&&&&&&+",
".**********************************************************+",
".=====================-------------------------------------+",
"++++++++++++++++++++++++++++++++++++++++++++++++++++++++++++"};
