/* XPM */
static char * next_xpm[] = {
"12 9 35 1",
" 	c None",
".	c #414052",
"+	c #9FC7FF",
"@	c #88A9D8",
"#	c #9DC3FA",
"$	c #99BFF4",
"%	c #96BAEF",
"&	c #85A5D4",
"*	c #000000",
"=	c #9ABFF5",
"-	c #96BBF0",
";	c #93B7EA",
">	c #8FB2E5",
",	c #8CAEDF",
"'	c #82A1CF",
")	c #97BBF0",
"!	c #93B7EB",
"~	c #90B3E5",
"{	c #8CAFE0",
"]	c #89AADA",
"^	c #86A6D5",
"/	c #82A2CF",
"(	c #7F9ECA",
"_	c #94B8EB",
":	c #90B3E6",
"<	c #8DAFE1",
"[	c #89ABDB",
"}	c #86A7D6",
"|	c #7C9AC5",
"1	c #91B4E7",
"2	c #8DB0E1",
"3	c #8AABDC",
"4	c #7996C0",
"5	c #8EB0E2",
"6	c #7692BC",
"............",
"..+......@..",
"..#$%....&*.",
"..=-;>,..'*.",
"..)!~{]^/(*.",
".._:<[}**|*.",
"..123***.4*.",
"..5***...6*.",
"...*......*."};
