/* XPM */
static char * play_pause_xpm[] = {
"12 9 4 1",
" 	c None",
".	c #414052",
"+	c #7399BD",
"@	c #000000",
"............",
".+......+.+.",
".+++....+@+@",
".+++++..+@+@",
".++++++++@+@",
".+++++@@+@+@",
".+++@@@.+@+@",
".+@@@...+@+@",
"..@......@.@"};
