/* XPM */
static char * play_pause_xpm[] = {
"12 9 38 1",
" 	c None",
".	c #414052",
"+	c #9FC7FF",
"@	c #607799",
"#	c #8CAEDF",
"$	c #83A2D0",
"%	c #9DC4FB",
"&	c #9AC0F6",
"*	c #97BCF1",
"=	c #8AACDC",
"-	c #000000",
";	c #809FCC",
">	c #9BC1F7",
",	c #98BDF2",
"'	c #95B9ED",
")	c #91B5E8",
"!	c #8EB1E3",
"~	c #88A9D8",
"{	c #7E9DC9",
"]	c #99BEF4",
"^	c #96BAEE",
"/	c #92B6E9",
"(	c #8FB2E4",
"_	c #7C9AC5",
":	c #96BBF0",
"<	c #93B7EB",
"[	c #90B3E6",
"}	c #8DAFE1",
"|	c #8AABDB",
"1	c #83A3D1",
"2	c #7997C2",
"3	c #94B8EC",
"4	c #91B4E7",
"5	c #8EB0E2",
"6	c #81A0CD",
"7	c #7794BE",
"8	c #7F9DCA",
"9	c #7591BA",
"............",
".+....@#.@$.",
".%&*..@=-@;-",
".>,')!@~-@{-",
".]^/(#++-@_-",
".:<[}|@1-@2-",
".345--@6-@7-",
"./---.@8-@9-",
"..-.....-..-"};
