/* XPM */
static char * stop_xpm[] = {
"12 9 45 1",
" 	c None",
".	c #414052",
"+	c #9FC7FF",
"@	c #9CC2F9",
"#	c #99BEF4",
"$	c #95BAEE",
"%	c #92B6E9",
"&	c #8FB1E3",
"*	c #9CC2F8",
"=	c #98BDF3",
"-	c #95B9ED",
";	c #91B5E8",
">	c #8EB1E2",
",	c #8BACDD",
"'	c #000000",
")	c #98BDF2",
"!	c #94B8EC",
"~	c #91B4E7",
"{	c #8DB0E2",
"]	c #8AACDC",
"^	c #87A7D7",
"/	c #94B8EB",
"(	c #90B3E6",
"_	c #8DAFE1",
":	c #89ABDB",
"<	c #86A7D6",
"[	c #83A2D0",
"}	c #90B3E5",
"|	c #8CAFE0",
"1	c #89AADA",
"2	c #86A6D5",
"3	c #82A2CF",
"4	c #7F9ECA",
"5	c #8CAEDF",
"6	c #88AAD9",
"7	c #85A5D4",
"8	c #82A1CE",
"9	c #7E9DC9",
"0	c #7B99C4",
"a	c #88A9D8",
"b	c #84A5D3",
"c	c #81A0CE",
"d	c #7E9CC8",
"e	c #7A98C3",
"f	c #7794BD",
"............",
"...+@#$%&...",
"...*=-;>,'..",
"...)!~{]^'..",
".../(_:<['..",
"...}|1234'..",
"...567890'..",
"...abcdef'..",
"....''''''.."};
