/* XPM */
static char * chart_grid_xpm[] = {
"60 2 73 1",
" 	c None",
".	c #1D2328",
"+	c #1E2329",
"@	c #20252A",
"#	c #23282D",
"$	c #262B31",
"%	c #2A2F34",
"&	c #2B3035",
"*	c #2C3136",
"=	c #2D3237",
"-	c #2E3338",
";	c #2F3439",
">	c #30353A",
",	c #31363B",
"'	c #32373B",
")	c #33373C",
"!	c #33383D",
"~	c #34393D",
"{	c #35393E",
"]	c #353A3E",
"^	c #353A3F",
"/	c #363A3F",
"(	c #363B3F",
"_	c #34393E",
":	c #33383C",
"<	c #32373C",
"[	c #32363B",
"}	c #303439",
"|	c #292E33",
"1	c #282D32",
"2	c #252A2F",
"3	c #24292E",
"4	c #22272C",
"5	c #21262B",
"6	c #1F242A",
"7	c #1E2429",
"8	c #4A5866",
"9	c #4B5967",
"0	c #4E5B68",
"a	c #525F6B",
"b	c #57636F",
"c	c #5C6773",
"d	c #5D6974",
"e	c #5F6A75",
"f	c #606B76",
"g	c #626C77",
"h	c #636E78",
"i	c #646F79",
"j	c #66707A",
"k	c #67717B",
"l	c #68727C",
"m	c #69737C",
"n	c #6A737D",
"o	c #6B747E",
"p	c #6B757E",
"q	c #6C757E",
"r	c #6C757F",
"s	c #6C767F",
"t	c #6A747D",
"u	c #656F79",
"v	c #646E79",
"w	c #636D78",
"x	c #5E6975",
"y	c #5D6874",
"z	c #5A6672",
"A	c #596470",
"B	c #55616E",
"C	c #53606D",
"D	c #505D6A",
"E	c #4F5C69",
"F	c #4D5A68",
"G	c #4C5967",
"H	c #4B5866",
".+@#$%&*=-;>,')!~{]^/((((//^]{_~!:<[,>};-=**&%|1$23#45@67+..",
"890abcdefghijklmnopqrssssrrqpotnmlkkjuvwgfexyczAbBCaDE0FG9H8"};
