/* XPM */
static char * bg_meter_xpm[] = {
"128 32 79 1",
" 	c None",
".	c #A0A0B2",
"+	c #9191A7",
"@	c #808099",
"#	c #7F7F98",
"$	c #7D7D97",
"%	c #7D7D93",
"&	c #70708A",
"*	c #646476",
"=	c #6D6D89",
"-	c #696988",
";	c #686886",
">	c #676783",
",	c #62627A",
"'	c #545468",
")	c #595979",
"!	c #575777",
"~	c #545473",
"{	c #535373",
"]	c #50506F",
"^	c #4C4C6B",
"/	c #44445C",
"(	c #4F4F6F",
"_	c #41415A",
":	c #484867",
"<	c #3F3F57",
"[	c #7A7A93",
"}	c #4A4A6A",
"|	c #444463",
"1	c #393957",
"2	c #777790",
"3	c #62627F",
"4	c #464665",
"5	c #40405F",
"6	c #3A3A50",
"7	c #3C3C5B",
"8	c #37374F",
"9	c #75758E",
"0	c #5F5F7C",
"a	c #424261",
"b	c #72728D",
"c	c #5D5D79",
"d	c #33334A",
"e	c #5A5A77",
"f	c #3E3E5D",
"g	c #303047",
"h	c #6E6E87",
"i	c #353553",
"j	c #2F2F47",
"k	c #3A3A58",
"l	c #6A6A83",
"m	c #54546F",
"n	c #31314F",
"o	c #373755",
"p	c #2B2B42",
"q	c #67677F",
"r	c #333351",
"s	c #2D2D4B",
"t	c #27273F",
"u	c #2F2F4D",
"v	c #282846",
"w	c #5F5F77",
"x	c #23233B",
"y	c #2B2B49",
"z	c #242443",
"A	c #5A5A72",
"B	c #1F1F37",
"C	c #262645",
"D	c #23233F",
"E	c #232342",
"F	c #1D1D38",
"G	c #191930",
"H	c #4A4A5F",
"I	c #15152C",
"J	c #404051",
"K	c #2C2C40",
"L	c #19192F",
"M	c #15152A",
"N	c #131323",
".+@@@@@@@@@@@@@@@@@@@@@@@@@@@@@@@@@@@@@@@@@@@@@@@@@@@@@@@##$$$$$%%%%%%%%%%%%%%%%$$$$#########@@@@@@@@@@@@@@@@@@@@@@@@@@@@@@@@@&*",
"+#========----------=======================--------------;;;;>>>>>>>>>>>>>>>>>>>>>;;;;;;;;;;;;;;-------------=================,'",
"@=)))))))!!!!!!!!!!!!!!!!!!!!!!!!!!!!!!!!!!!!!!!!!!!!!!!!!!~{{{{]]]]]]]]]]]]]]]{{{{{~~~!!!!!!!!!!!!!!!!!!!!!!!!!!!!!!!))))))))^/",
"#-!!!!!!!!!~~~~~~~!!!!!~~~~~{{{{{{{{~~~~~!!!!!!!!!!!~~~~~{{{{]]]((((((((((((((((]]{{{{{{{{{{{{{{{~~~~~~~~~!!!!!!!!!!!!!!!!!!!!^_",
"$;!!!!!~{{{{{{{{{{{{{{{{{{{{{]]]]]]]{{{{{{{{{{{{{{{{{{{{{{{](((^^^^^^^^^^^^^^^^^((((]]]]{{{{{{{{{{{{{{{{{{{{{{{{{{{{{{{{{{{!!!:<",
"[>{{{{{{{{]((((]]]]]]]](((((((((((((((((((((((((]]]]{{{{{](((^^^^}}}}}}}}}}}}}}^^^^(((((((((((((((((((((((]]]]]]((((((]]]{{{{{|<",
"[>{{{{(((((((((((((((((((^^^^}}}}}}}}}}}}}}^^^^(((((((((((((^^}}}}}}}}}}}}}}}}}}}}}}^^^^^(((((((((^^^^^(((((((((((((((((((((((|1",
"23(((((((^}}}}}}}}}}}}}}}}}}}::::::::::::::::}}}}}}}^^^^^^}}}}}}:::44444444444::::}}}}}}}}}}}}}}}}}}}}}}}}}}}}}}}}}}}}}}}}}}^^56",
"23((((}}}}}}}}}}}}}}:::::::44444444444444444444::::}}}}}}}}}}:::44444444444444444444444::::::::::::::::::::::::::::::::}}}}}}}78",
"90}}}}}}}::444444444444444444||||||aaaaaaaa||||||4444444444444444444||||||||||||||||44444444444444444444444444444444444444444478",
"bc}}:44444444444|||||||||||||aaaaaaa55555555555aaaaa|||||44444444|||aaaaaaaaaaaaaaaaaaaaaaaaa|||||||||||||||||||||||||||||||||1d",
"&e444444444||aaaaaaaaaaaaaaaaa5555555555555555555555aaaaaaaaaaaaaaaaaaaaaaaaaaaaaa55555555555aaaaaa5555555aaaaaaaaaaaaaaaaaaaa1d",
"=e||||aaaaaaaaaaa555555555555555fffff777777777777fffff555555aaaaaaaaaa5555555555555fffffffffff5555555555555555555aaaaa555555556g",
"h!aaaaaaaaaaa5555fffffffffffffff77777777777777777777777fffffffff5555fffffffffffffff7777777777fffffffffffffffffffffffffffffffffij",
"h~555555fffffffffff777777777777777kkkkk1111111111kk7777777777ffffffffffff777777777777kkkkkk777777777777777777fffffffffffffffffij",
"lmfffffffffffff7777kkkkkkkkkkkkkk111111111111111111kkkkkkkkkkkk777777777kkkkkkkkkkkkkkkkkkkkkkkkkkkkkkkkkkkkk7777ffff777777777nj",
"l]777777777kkkkkkkkkkkk1111111111111111111111111111111111111kkkkkkkkkkkkkkkkkkk1111111111111kkkkkkkkkkkkkkkkkkkkkkkkkkkkkkkkkknj",
">]kkkkkkkkkkkkkkk111111oooooooooooooooooooooooooooooooo111111111111111111111111111111111111111kkkkkkkkk11111kkkkkkkkkkkkkkkkkknp",
"q^k111111111oooooooooooooiiiiiiiiiiiiiiiiiiiiiiioooooooooooooooooooooooooooooooooooooooooooooo1111k1111oooooooo111111111111111np",
"q^oooooooooooooiiiiiiiiiiiirrrrrriiiiiiiiiiiiiiiiiioooooiiiiiiiiiiiiiiiiiiiiiiiiiiiiiiiioooooooooooooooooooooooooooooooooooooosp",
"q^ooiiiiiiirrrrrrrrrrrrrrrrrrrrrrrrrrrrrrrrrrrrrrrrrrrrrrrrrrrrrrrrrrrrrrrrrrrrrrrrrrrrrrriiiooooooooooooiiiiiiiiiiiiiiiiiiiiist",
",:rrrrrrrrrrrnnnnnnnnnnnnnnnnnnnnrrrrrrrrrrrrrrrrrrrrrrrrrrrnnnnnnrrrrnnnnnnnnnnrrrrrrrrrrrrrrrrrrrrrrrrrrrrrrrrrrrrrrrrrrrrrrjt",
",:rrnnnnuuuuuuuuuuuuuuuuuuuuuuuuuuuunnnnnnnnnnnnnrrrrrrrrnnuuuuuuuuuuuuuuuuuuuuuuuuuunnnnnnrrrrrrrrrrrrrrnnnnnnnnnnnnnnnnnnrrrvt",
"w|uuuuuuuuuuussssssssssssssssuuuuuuuuuuuuuuuuuuuuuuuuuuuuuuuuuuuuuuuuuuuuuuuuuuuuuuuuuuuuuuuuuuuuuuuuuuuuuuuuuuuuuuuuuuuuuuuuuvx",
"w|uusssssssyyyyyyyyyyyyyyyyyyysssuuuuuuuuuuuuuuuuuuuuuuuuuuusssssssssssssssssssssssssssssssuuuuuuuuuuuuuusssssssssssssuuuuuuuuzx",
"w5yyyyyyyyyyyyyyyyyyyyyyyyyyyyyyyyyyyyyyyyyyyyyyyyyyyyyyyyyyyyyyyyyyyyyyyyyyyyyyyyyyyyyyyyyyyyyyyyyyyyyyyyyyyyyyyyyyyyyyyyyyyyzx",
"A5yyvvvvvvvvvvvvvvvvvvvvvvvvvvvyyyyyyyyyyyyyyyyyyyyyyyyyyyyyyyyyyyyyyyyyyyyyyyyyyyyyvvvvvvyyyyyyyyyyyyyyyyyyyyyyyyyyyyyyyyyyyytB",
"A7CCCCCCCCCCCCCCCCCCCCCCCCCCCCCCCCCCCCvvvvvvvvvvvvyyyyyvvvvCCCCCCCCCCCCCCCCCCCCCCCCCCCCCCCCCCCvvvvCCCCCCCCCCCCCCCCCCCCCCCCvvvyDB",
"m7CCCCCCCCCCCCCCCCCCCCCCCCCCCCCCCCCCCCCCCCCCCCCCCCCCCCCCCCCCCCCCCCCCCCCCCCCCCCCCCCCCCCCCCCCCCCCCCCCCCCCCCCCCCCCCCCCCCCCCCCCCCCDB",
"m1EEEEEEEEEEEEEEEEEEEEEEEEEEEEEEzzzzzzCCCCCCCCCCCCCCCCCCCCCCCCCCCCCCCCCCCCCCCCzzzzzEEEEEEEEEzzzzzzEEEEEEEEEEEEEEEEEEzzzzzzCCCCFG",
"HnFFFFFFFFFFFFFFFFFFFFFFFFFFFFFFFFFFFFFFFFFFFFFFFFFFFFFFFFFFFFFFFFFFFFFFFFFFFFFFFFFFFFFFFFFFFFFFFFFFFFFFFFFFFFFFFFFFFFFFFFFFFFGI",
"JKLLLLLLLLLLLLLLLLLLLLLLLLLLLLLLLLLLLLGGGGGGGGGGGGGGGGGGGGGGGGGGGGGGGGGGGGGGGGGGLLLLLLLLLLLLLLLLLLLLLLLLLLLLLLLLLLLLLLLLGGGGGGMN"};
