/* XPM */
static char * bg_spacer_xpm[] = {
"68 9 228 2",
"  	c None",
". 	c #C8C5BB",
"+ 	c #C4C0B8",
"@ 	c #ADA99F",
"# 	c #C9C6BE",
"$ 	c #CFCDC5",
"% 	c #D1CFC7",
"& 	c #C5C2BA",
"* 	c #D5D3CC",
"= 	c #D7D5CE",
"- 	c #C7C4BD",
"; 	c #DBD9D3",
"> 	c #DAD8D2",
", 	c #D1CFC8",
"' 	c #E1DFDA",
") 	c #D2D0CB",
"! 	c #E4E3DE",
"~ 	c #E1E0DB",
"{ 	c #E1DFDB",
"] 	c #EAE9E5",
"^ 	c #E3E1DE",
"/ 	c #EEEDEA",
"( 	c #F0EFEC",
"_ 	c #F2F1EF",
": 	c #F5F5F3",
"< 	c #F7F7F6",
"[ 	c #F9F9F8",
"} 	c #FBFAFA",
"| 	c #FDFDFD",
"1 	c #FFFFFF",
"2 	c #FCFCFB",
"3 	c #F9F8F7",
"4 	c #F6F5F4",
"5 	c #F4F3F1",
"6 	c #F4F4F2",
"7 	c #F3F2F0",
"8 	c #F1F0EE",
"9 	c #EFEEEB",
"0 	c #E5E4E1",
"a 	c #E7E6E3",
"b 	c #EBEAE7",
"c 	c #E2E0DC",
"d 	c #E8E7E3",
"e 	c #DEDDD8",
"f 	c #E5E4DF",
"g 	c #D4D2CD",
"h 	c #D3D1CC",
"i 	c #DFDED8",
"j 	c #D2D0CA",
"k 	c #DCDBD4",
"l 	c #CBC8C2",
"m 	c #D9D7D1",
"n 	c #D8D6CF",
"o 	c #D6D4CD",
"p 	c #D5D3CB",
"q 	c #D0CEC6",
"r 	c #D2CFC8",
"s 	c #CFCCC4",
"t 	c #CDCBC2",
"u 	c #CCC9C0",
"v 	c #CAC8BE",
"w 	c #C9C6BD",
"x 	c #C7C4BB",
"y 	c #C6C3B9",
"z 	c #CAC7BE",
"A 	c #BDBAB1",
"B 	c #CDCAC1",
"C 	c #BAB6AE",
"D 	c #CFCCC5",
"E 	c #D9D7D0",
"F 	c #DDDBD5",
"G 	c #DFDDD7",
"H 	c #E2E1DC",
"I 	c #E6E5E1",
"J 	c #E9E8E4",
"K 	c #E4E3DF",
"L 	c #EDEBE8",
"M 	c #ECEBE8",
"N 	c #EFEFEC",
"O 	c #F5F4F3",
"P 	c #FBFBFA",
"Q 	c #FCFCFC",
"R 	c #FAFAF9",
"S 	c #F6F6F4",
"T 	c #EDECEA",
"U 	c #EFEEEC",
"V 	c #EEEEEB",
"W 	c #EAE8E5",
"X 	c #E3E1DD",
"Y 	c #DDDBD7",
"Z 	c #E0DFDA",
"` 	c #DBDAD5",
" .	c #CFCDC6",
"..	c #C2BFB8",
"+.	c #D3D1C9",
"@.	c #BAB7AE",
"#.	c #C5C1B8",
"$.	c #ADA99E",
"%.	c #A39F94",
"&.	c #BFBBB2",
"*.	c #C8C4BB",
"=.	c #D0CDC5",
"-.	c #D9D7D2",
";.	c #D5D3CE",
">.	c #FAF9F8",
",.	c #F5F4F2",
"'.	c #EDECE9",
").	c #E3E1DC",
"!.	c #DCDAD5",
"~.	c #CDCBC5",
"{.	c #DEDCD7",
"].	c #C7C5BF",
"^.	c #D3D1CB",
"/.	c #D5D4CD",
"(.	c #D2D0C8",
"_.	c #B9B6AE",
":.	c #BEBBB3",
"<.	c #CCC9C2",
"[.	c #BEBBB2",
"}.	c #B8B5AC",
"|.	c #B4B0A6",
"1.	c #C0BDB3",
"2.	c #CECBC2",
"3.	c #C2BFB6",
"4.	c #D2D0C9",
"5.	c #C6C3BC",
"6.	c #D7D5D0",
"7.	c #DDDCD7",
"8.	c #E6E4E1",
"9.	c #F1F1EF",
"0.	c #F8F7F6",
"a.	c #FAF9F9",
"b.	c #FAFAFA",
"c.	c #E8E7E4",
"d.	c #D7D5CF",
"e.	c #CECBC5",
"f.	c #C9C6C0",
"g.	c #C9C7BF",
"h.	c #CECBC4",
"i.	c #CBC8C1",
"j.	c #B5B2A8",
"k.	c #ABA79C",
"l.	c #C2BFB5",
"m.	c #A9A59B",
"n.	c #C1BEB4",
"o.	c #D1CEC7",
"p.	c #D6D3CC",
"q.	c #DCD9D4",
"r.	c #D8D6D1",
"s.	c #F6F6F5",
"t.	c #FDFDFC",
"u.	c #F7F6F5",
"v.	c #F1F1EE",
"w.	c #EAE9E6",
"x.	c #E3E2DE",
"y.	c #E7E6E1",
"z.	c #DFDDD8",
"A.	c #CBC9C1",
"B.	c #C4C1B9",
"C.	c #C3C0B8",
"D.	c #B9B5AC",
"E.	c #A8A499",
"F.	c #B9B6AC",
"G.	c #B5B1A8",
"H.	c #C7C4BC",
"I.	c #C3C1BA",
"J.	c #C7C5BE",
"K.	c #D6D4CE",
"L.	c #D4D2CC",
"M.	c #E4E2DE",
"N.	c #E6E5E2",
"O.	c #F2F2F0",
"P.	c #EBEAE8",
"Q.	c #E7E5E3",
"R.	c #E1E0DC",
"S.	c #E0DEDA",
"T.	c #C9C6BF",
"U.	c #D3D0CA",
"V.	c #CECCC3",
"W.	c #CCC8C0",
"X.	c #B2AFA6",
"Y.	c #CDCAC2",
"Z.	c #C7C3BA",
"`.	c #BEBBB1",
" +	c #BBB7AE",
".+	c #C7C3BB",
"++	c #CDCBC4",
"@+	c #C8C6BE",
"#+	c #C4C2BB",
"$+	c #DAD7D2",
"%+	c #D5D4CE",
"&+	c #E5E4E0",
"*+	c #DAD8D3",
"=+	c #DBD9D4",
"-+	c #DEDCD6",
";+	c #D7D4CF",
">+	c #D6D3CD",
",+	c #B6B3AA",
"'+	c #BFBDB3",
")+	c #B3B0A6",
"!+	c #A5A297",
"~+	c #BBB8AF",
"{+	c #C6C4BC",
"]+	c #CCC9C3",
"^+	c #E3E2DD",
"/+	c #EFEFED",
"(+	c #F3F3F1",
"_+	c #F8F8F7",
":+	c #E2E1DD",
"<+	c #D7D6D0",
"[+	c #DBDAD4",
"}+	c #D5D3CD",
"|+	c #D5D2CC",
"1+	c #B8B4AB",
"2+	c #C1BEB5",
"3+	c #C1BDB3",
"4+	c #BEBAB2",
"5+	c #B8B5AB",
"6+	c #D3D0C9",
"7+	c #F3F2F1",
"8+	c #E9E7E4",
"9+	c #E0DFDB",
"0+	c #DBD9D5",
"a+	c #CAC8C1",
"b+	c #D7D4CE",
"c+	c #D3D0C8",
"d+	c #AFABA2",
"e+	c #AEABA1",
". + @ # $ % & * = - ; > , ' ) ! ~ { ] ^ / ( _ _ : < [ } | 1 | 2 3 3 4 5 6 7 8 9 0 a b c d e f g h ' i j k l m n o p q r q s t u v w x y ",
". z A B C & D * = E ; F G ' H ! I d J K L M _ N _ O < P Q 1 | 2 R S < : 6 7 T U V W b X Y Z f ` H ' i  .k ; m ..o p +.r @.s t u v #.$.%.",
". &.u *.$ =.r * = - ; F -.' ;.! I d J M I 0 _ 5 : 6 [ P | 1 | P >.3 S ,.6 7 8 ( a '.^ K d X f ).!.~.{.].k ^./.n - (._.:.<.[.}.u @ w x |.",
". 1.u 2.3.% +.4.5.E ; ; F ^.6.7.I d ] 8./ b ( U 9.O 0.a.| 1 | b.[ 3 < 4 6 N / T V c.d ] d e f ! H d.i e., * f.g.o h.# r i.s t u j.k.x l.",
". m.n.2.$ o.<.D = p.> F q.' ' r.H d c b / ( _ 5 7 < s.P Q 1 t.P R 3 u.O 6 7 v.( w.'.x.] d y.-.! z.d.F , k ; m A.B.C.+.r q s 3.D.v w E.y ",
". z F.G.$ H.+.* * E I.J.K.' L.;.M.d ] N.K ( _ 5 : < < P Q 1 | 2 < 4 < 4 O.7 P.Q.V R.b I S.S.S.! H ' K.K.k T.U.n o p V.W.q X.Y.u Z.w x `.",
" +z u .+$ g.+.++@+#+; $+G z.H %+M.K &+M / ( _ 5 : < [ R t.1 t.R R 3 < 4 6 7 P.P.V '.b ] d y.Y *+H =+{.-+k ;+m n >+p & r B.,+t u '+w x y ",
")+!+u 2.$ ~++.* = {+]+F G j g ^+I { ] J / '._ /+,.(+[ P Q 1 | P _+3 O 4 6 7 v.c.a w.b ] :+` f ! <+' [+}+k ;+|+n :.h.+.,+q s t 1+v 2+3+y ",
"4+z 5+2.$ % V.6+= E ; F G =+H ! I S.] &+/ M _ 5 7 u.[ R | 1 | P [ 3 < 7+U 7 v.( V 8+9+K d 0+f ! ' ' ~.}+k a+m b+A.c++.r ~+F.d+u e+w x y "};
