/* XPM */
static char *magick[] = {
/* columns rows colors chars-per-pixel */
"90 5 116 2",
"   c Gray93",
".  c Gray78",
"X  c #b7b7b7",
"o  c #bbbbbb",
"O  c Gray71",
"+  c #afafaf",
"@  c #b4b4b4",
"#  c Gray72",
"$  c Gray68",
"%  c Gray69",
"&  c #b9b9b9",
"*  c Gray73",
"=  c #aaaaaa",
"-  c #b6b6b6",
";  c #bebebe",
":  c Gray75",
">  c Gray70",
",  c #b1b1b1",
"<  c Gray67",
"1  c Gray66",
"2  c #aeaeae",
"3  c #a7a7a7",
"4  c #a5a5a5",
"5  c #a2a2a2",
"6  c #a4a4a4",
"7  c #acacac",
"8  c Gray62",
"9  c #a9a9a9",
"0  c Gray64",
"q  c Gray60",
"w  c #a0a0a0",
"e  c Gray39",
"r  c Gray87",
"t  c Gray55",
"y  c #838383",
"u  c Gray53",
"i  c #888888",
"p  c #868686",
"a  c #898989",
"s  c Gray51",
"d  c Gray43",
"f  c #777777",
"g  c Gray50",
"h  c #747474",
"j  c #6f6f6f",
"k  c #6c6c6c",
"l  c Gray48",
"z  c #7b7b7b",
"x  c #808080",
"c  c Gray45",
"v  c #767676",
"b  c Gray52",
"n  c #848484",
"m  c #8d8d8d",
"M  c #8e8e8e",
"N  c Gray47",
"B  c Gray49",
"V  c #6d6d6d",
"C  c Gray42",
"Z  c Gray44",
"A  c Gray",
"S  c #818181",
"D  c Gray54",
"F  c Gray56",
"G  c #7c7c7c",
"H  c #797979",
"J  c #727272",
"K  c Gray16",
"L  c Gray88",
"P  c Gray46",
"I  c #717171",
"U  c #2a2a2a",
"Y  c #2c3039",
"T  c #272727",
"R  c Gray85",
"E  c #929292",
"W  c #8b8b8b",
"Q  c #282828",
"!  c Gray84",
"~  c Gray59",
"^  c #989898",
"/  c #909090",
"(  c #9a9a9a",
")  c Gray58",
"_  c Gray57",
"`  c #979797",
"'  c #2d2d2d",
"]  c #cbcbcb",
"[  c #959595",
"{  c #939393",
"}  c Gray25",
"|  c #373737",
" . c #353535",
".. c Gray20",
"X. c #343434",
"o. c Gray21",
"O. c Gray22",
"+. c Gray24",
"@. c #3e3e3e",
"#. c #3f3f3f",
"$. c Gray26",
"%. c #434343",
"&. c #444444",
"*. c #484848",
"=. c Gray27",
"-. c #4c4c4c",
";. c Gray28",
":. c #464646",
">. c #414141",
",. c Gray23",
"<. c Gray30",
"1. c Gray29",
"2. c #3a3a3a",
"3. c #494949",
"4. c #4b4b4b",
"5. c Gray12",
/* pixels */
"  . X o O + + @ # X $ % o X & * = % * - & & * ; # : # O # O % @ - - > # * o , % + O # @ < @ * O & # 1 @ & X & X , , 2 > = 3 = 4 5 6 1 3 6 1 7 < 5 5 5 1 < 6 8 9 $ 1 $ 0 q 9 9 = w e ",
"r t y u i p t a u s d f p g h j k d l z x p x c k v b n a m M b g n z N b p i p m a u B k g b z c V C Z z A S p B j V z b b D F t y x y f G p u i u t i p N d s y H J k C h l x J K ",
"L M c Z N N v A l h v f P d H v d C h g u t A j N b p a a y n b A y g N J I l N N B H J l v J I l h V k N s a D l j z p i u u y b b A y A v I c l N l G N I z f Z h l I k d l n H U ",
"Y Y Y Y Y Y Y Y Y Y Y Y Y Y Y Y Y Y Y Y Y Y Y Y Y Y Y Y Y Y Y Y Y Y Y Y Y Y Y Y Y Y Y Y Y Y Y Y Y Y Y Y Y Y Y Y Y Y Y Y Y Y Y Y Y Y Y Y Y Y Y Y Y Y Y Y Y Y Y Y Y Y Y Y Y Y Y Y Y K ",
"Y Y Y Y Y Y Y Y Y Y Y Y Y Y Y Y Y Y Y Y Y Y Y Y Y Y Y Y Y Y Y Y Y Y Y Y Y Y Y Y Y Y Y Y Y Y Y Y Y Y Y Y Y Y Y Y Y Y Y Y Y Y Y Y Y Y Y Y Y Y Y Y Y Y Y Y Y Y Y Y Y Y Y Y Y Y Y Y Y U ",
};
