/* XPM */
static char *magick[] = {
/* columns rows colors chars-per-pixel */
"90 5 116 2",
"   c Gray93",
".  c Gray78",
"X  c #b7b7b7",
"o  c #bbbbbb",
"O  c Gray71",
"+  c #afafaf",
"@  c #b4b4b4",
"#  c Gray72",
"$  c Gray68",
"%  c Gray69",
"&  c #b9b9b9",
"*  c Gray73",
"=  c #aaaaaa",
"-  c #b6b6b6",
";  c #bebebe",
":  c Gray75",
">  c Gray70",
",  c #b1b1b1",
"<  c Gray67",
"1  c Gray66",
"2  c #aeaeae",
"3  c #a7a7a7",
"4  c #a5a5a5",
"5  c #a2a2a2",
"6  c #a4a4a4",
"7  c #acacac",
"8  c Gray62",
"9  c #a9a9a9",
"0  c Gray64",
"q  c Gray60",
"w  c #a0a0a0",
"e  c Gray39",
"r  c Gray87",
"t  c Gray55",
"y  c #838383",
"u  c Gray53",
"i  c #888888",
"p  c #868686",
"a  c #898989",
"s  c Gray51",
"d  c Gray43",
"f  c #777777",
"g  c Gray50",
"h  c #747474",
"j  c #6f6f6f",
"k  c #6c6c6c",
"l  c Gray48",
"z  c #7b7b7b",
"x  c #808080",
"c  c Gray45",
"v  c #767676",
"b  c Gray52",
"n  c #848484",
"m  c #8d8d8d",
"M  c #8e8e8e",
"N  c Gray47",
"B  c Gray49",
"V  c #6d6d6d",
"C  c Gray42",
"Z  c Gray44",
"A  c Gray",
"S  c #818181",
"D  c Gray54",
"F  c Gray56",
"G  c #7c7c7c",
"H  c #797979",
"J  c #727272",
"K  c Gray16",
"L  c Gray88",
"P  c Gray46",
"I  c #717171",
"U  c #2a2a2a",
"Y  c #2c3039",
"T  c #272727",
"R  c Gray85",
"E  c #929292",
"W  c #8b8b8b",
"Q  c #282828",
"!  c Gray84",
"~  c Gray59",
"^  c #989898",
"/  c #909090",
"(  c #9a9a9a",
")  c Gray58",
"_  c Gray57",
"`  c #979797",
"'  c #2d2d2d",
"]  c #cbcbcb",
"[  c #959595",
"{  c #939393",
"}  c Gray25",
"|  c #373737",
" . c #353535",
".. c Gray20",
"X. c #343434",
"o. c Gray21",
"O. c Gray22",
"+. c Gray24",
"@. c #3e3e3e",
"#. c #3f3f3f",
"$. c Gray26",
"%. c #434343",
"&. c #444444",
"*. c #484848",
"=. c Gray27",
"-. c #4c4c4c",
";. c Gray28",
":. c #464646",
">. c #414141",
",. c Gray23",
"<. c Gray30",
"1. c Gray29",
"2. c #3a3a3a",
"3. c #494949",
"4. c #4b4b4b",
"5. c Gray12",
/* pixels */
"Y Y Y Y Y Y Y Y Y Y Y Y Y Y Y Y Y Y Y Y Y Y Y Y Y Y Y Y Y Y Y Y Y Y Y Y Y Y Y Y Y Y Y Y Y Y Y Y Y Y Y Y Y Y Y Y Y Y Y Y Y Y Y Y Y Y Y Y Y Y Y Y Y Y Y Y Y Y Y Y Y Y Y Y Y Y Y Y Y T ",
"R E y x l H v l f B G h l l A B p b s b S n g A b A H b N x i y b n W s x y f H v l f A z c B H A g p u x p x s x x n z G n v b u S u b D s B s N N N l N A N h A z G s n p s b I Q ",
"! ~ p B A S S Z I f A G g s s u a u M E u M ^ / ( ( ) i D a _ i m t a i n G x y B d h N x G A n x W p W F / p E ` E q ( _ u D a _ i F D D i s G x y H d v H x B A n x m n M _ m v ' ",
"] _ b y N G G z x x z g b u m ) D [ W p a a F D _ i n a i i W m _ ` M t p i H g A g n s B y p i / { t [ u i i a E W W i n W i u m t ~ ) m W n b l x A S n S A y u a E F / E p D f U ",
"N } |  ...X.....o. . .O.+.@.+.#.+.$.%.%.%.&.*.=.-.-.;.*.*.*.;.;.=.:.;.:.>.} +.#.,.+.>.@.} @.} +.+.#.+.%.%.&.%.=.;.:.<.1.*.*.*.*.:.*.&.:.:.%.} @.+.@.2.@.} @.%.:.3.=.=.;.:.-.4.<.&.5."
};
