/* XPM */
static char * bg_panel_net_xpm[] = {
"50 18 231 2",
"  	c None",
". 	c #AEB7AF",
"+ 	c #AFB7AF",
"@ 	c #ACB4AD",
"# 	c #A9B1AA",
"$ 	c #AAB2AB",
"% 	c #AEB6AF",
"& 	c #ABB3AC",
"* 	c #ABB5AD",
"= 	c #A7B0A8",
"- 	c #AAB4AC",
"; 	c #AFB9B1",
"> 	c #AFB8B0",
", 	c #ACB6AD",
"' 	c #ADB7AE",
") 	c #AFB8AF",
"! 	c #A6B0A7",
"~ 	c #A2ACA3",
"{ 	c #A1ABA2",
"] 	c #A5AFA6",
"^ 	c #A9B3AA",
"/ 	c #A8B2A9",
"( 	c #AAB4AB",
"_ 	c #A9B4AB",
": 	c #A8B3AA",
"< 	c #A7B2A9",
"[ 	c #A4AFA5",
"} 	c #A5B0A7",
"| 	c #A6B1A7",
"1 	c #A7B2A8",
"2 	c #A8B3A9",
"3 	c #A9B4AA",
"4 	c #ABB6AD",
"5 	c #AAB5AB",
"6 	c #516353",
"7 	c #4E6050",
"8 	c #4A5C4C",
"9 	c #4D5F4F",
"0 	c #536555",
"a 	c #4B604F",
"b 	c #4D6251",
"c 	c #506554",
"d 	c #475C4B",
"e 	c #4E6352",
"f 	c #576C5B",
"g 	c #566B5A",
"h 	c #495E4B",
"i 	c #516653",
"j 	c #576C59",
"k 	c #445946",
"l 	c #3A4F3C",
"m 	c #394E3B",
"n 	c #3D523F",
"o 	c #435845",
"p 	c #4B604D",
"q 	c #475C49",
"r 	c #4A5F4C",
"s 	c #465B48",
"t 	c #455A47",
"u 	c #475F49",
"v 	c #445C46",
"w 	c #415943",
"x 	c #435B45",
"y 	c #465E48",
"z 	c #3C543E",
"A 	c #405842",
"B 	c #425A44",
"C 	c #425945",
"D 	c #405743",
"E 	c #435A46",
"F 	c #506252",
"G 	c #546656",
"H 	c #4C6150",
"I 	c #4F6453",
"J 	c #526756",
"K 	c #556A59",
"L 	c #546958",
"M 	c #556A57",
"N 	c #586D5A",
"O 	c #3B503D",
"P 	c #364B38",
"Q 	c #3C513E",
"R 	c #425744",
"S 	c #4D624F",
"T 	c #485D4A",
"U 	c #455D47",
"V 	c #49614B",
"W 	c #4A624C",
"X 	c #48604A",
"Y 	c #4B634D",
"Z 	c #4C644E",
"` 	c #536A56",
" .	c #4F6652",
"..	c #4B624E",
"+.	c #526454",
"@.	c #516856",
"#.	c #526957",
"$.	c #506755",
"%.	c #4F6654",
"&.	c #526754",
"*.	c #566B58",
"=.	c #415643",
"-.	c #354A37",
";.	c #384D3A",
">.	c #4E6350",
",.	c #445D47",
"'.	c #47604A",
").	c #49624C",
"!.	c #4A634D",
"~.	c #4B644E",
"{.	c #4E6751",
"].	c #4D6650",
"^.	c #506953",
"/.	c #526B55",
"(.	c #546D57",
"_.	c #5D7460",
":.	c #59705C",
"<.	c #566D59",
"[.	c #516655",
"}.	c #536A58",
"|.	c #4B6250",
"1.	c #4D6452",
"2.	c #536855",
"3.	c #4F6451",
"4.	c #49604C",
"5.	c #4F6852",
"6.	c #4C654F",
"7.	c #536C56",
"8.	c #506753",
"9.	c #526955",
"0.	c #4A5F4E",
"a.	c #4E6553",
"b.	c #49604E",
"c.	c #4C614E",
"d.	c #3E5340",
"e.	c #485F4B",
"f.	c #4E6650",
"g.	c #48614B",
"h.	c #576959",
"i.	c #556757",
"j.	c #536857",
"k.	c #4C6351",
"l.	c #3F5441",
"m.	c #465F49",
"n.	c #4A614D",
"o.	c #4E6551",
"p.	c #4C634F",
"q.	c #546D58",
"r.	c #506954",
"s.	c #4C6550",
"t.	c #405542",
"u.	c #4D654F",
"v.	c #4A604B",
"w.	c #4E644F",
"x.	c #516752",
"y.	c #506552",
"z.	c #4D6450",
"A.	c #4E6752",
"B.	c #536C57",
"C.	c #4B644F",
"D.	c #4B614C",
"E.	c #4F6550",
"F.	c #536954",
"G.	c #526B56",
"H.	c #4A634E",
"I.	c #455B46",
"J.	c #495F4A",
"K.	c #4D634E",
"L.	c #516A55",
"M.	c #49624D",
"N.	c #374C39",
"O.	c #3E543F",
"P.	c #425843",
"Q.	c #465C47",
"R.	c #475D48",
"S.	c #47604B",
"T.	c #445D48",
"U.	c #3F5741",
"V.	c #3E5640",
"W.	c #3D553F",
"X.	c #485E49",
"Y.	c #4C624D",
"Z.	c #516854",
"`.	c #465F4A",
" +	c #48614C",
".+	c #3F5642",
"++	c #546A55",
"@+	c #566C57",
"#+	c #475E4A",
"$+	c #39503C",
"%+	c #4F6751",
"&+	c #506852",
"*+	c #516953",
"=+	c #526A54",
"-+	c #556B56",
";+	c #364D39",
">+	c #465D49",
",+	c #455C48",
"'+	c #415844",
")+	c #3A513D",
"!+	c #3C533F",
"~+	c #384F3B",
"{+	c #212D23",
"]+	c #222E24",
"^+	c #232E24",
"/+	c #222D23",
"(+	c #212C23",
"_+	c #212C22",
":+	c #222D24",
"<+	c #232E25",
"[+	c #232D24",
"}+	c #1F2820",
"|+	c #1B251C",
"1+	c #202920",
"2+	c #202A21",
"3+	c #222C23",
"4+	c #1C261D",
"5+	c #182219",
"6+	c #1F2920",
"7+	c #252F26",
"8+	c #242E25",
"9+	c #212B22",
"0+	c #232F24",
"a+	c #253026",
"b+	c #243025",
"c+	c #202C21",
"d+	c #222E23",
"e+	c #212D22",
"f+	c #222C22",
"g+	c #232D23",
"h+	c #242E24",
". + @ # $ % & @ . * = - ; > , , ' ) , ! ~ { ] ^ ^ / ( , ( / _ : < < : < ! [ } ] ] } | 1 2 3 4 5 3 _ ",
"6 6 7 8 9 0 a b c b d e f g h i j i k l m n o p p q r r s t u v w x y y w z A A w w B x v v C D D E ",
"6 6 F 7 F G H e I e b J K L p M N r O P Q R s S p s T T s T v x x U V W X U V V V V W Y Z Z `  .....",
"6 +.0 +.I c b c c c @.#.$.%.&.*.&.=.-.;.=.s p >.h k s q q p x ,.'.).!.!.~.~.{.{.].].{.^./.(._.:.<.<.",
"6 0 0 6 b H b [.c I }.$.|.1.j 2.T l -.n s p 3.>.q o s q s 4.V ~.5.5.].6.6.{.6.6.~.~.6.5./.7.8.8.9.<.",
"G G c b H 0.b J e b @.a.b.%.*.c.d.P ;.R p 3.c.r o R T h s e.f.{.^.5.{.6.~.!.g.g.g.).!.~.].]. .8.9.` ",
"h.i.I b a 0.e j.b b.%.k.b.#.2.s m -.O k S &.t k l.=.r c.T h Z !.).!.~.!.'.,.m.'.g.!.~.~.!.!.e.n.o.8.",
"&.i S c.p.o.8.n.o.q.r.s.s.p.p R m l k S >.p d.t.o s q h c.3.u.Z W V X u u X Y Y W W W Z u.f.v.w.x.x.",
"i y.S p ..z.8...A.B.A.C.s.C.r d.P Q q c.r t =.t h c.p r r p W V X u u u X X V V X X V W Y Z D.E.F.F.",
"3.>.c.p n.p.8.z.r.G.s.H.s.C.s l P t.p r k t.t h >.3.c.T s t y U v v v U y u X X u y y u u X I.J.K.w.",
">.>.c.p n... .o.L.r.M.M.C.M.l.N.m s S q =.R r c.S p s R =.R x B w A A A w B v x x B w w w B O.P.Q.R.",
"S >.p...n.n.o. .9. .S.M.H.T.m N.l.c.S k R T 3.S h o l.l.t.R B w U.V.W.W.W.W.V.V.U.U.A w B B I.X.D.Y.",
"c.S p...n.4.p.o.Z.z.`.M. +.+;.O k S p k s >.y.r o d.n t.R k w A U.V.V.V.U.U.w B v y X W Z Z F.++@+@+",
"n...p...4.e...z. ...#+..e.$+O t.q r q t h i p t d.Q l.o k o A A w w B v y u W W Z f.%+&+*+=+++-+-+++",
"4.n...n.e.#+n.z.o.4.#+p.#+;+d.o q q t s p y.t l.l Q =.t k t.A A B v u W u.f.f.f.%+%+f.f.u.u.Y.D.v.v.",
"n...n.e.#+>+,+o.p.#+n.4.'+)+d.k t =.t >.>.q l ;.m t.t k =.l.w U V Y W Y u.%+Y Y Z Z Z Y W V v.J.J.J.",
"n.....4.#+>+e.o.p.e.4.,+!+~+=.s s k T 3.c.k P Q o q q t k o y Y &+&+u.W Y u.W W Y Y Y W V V v.v.D.D.",
"{+]+^+/+(+_+:+<+:+:+[+}+|+|+}+1+2+2+3+[+2+4+5+6+7+8+3+9+9+3+0+a+a+b+/+c+_+d+e+/+d+d+d+d+/+e+f+/+g+h+"};
