/* XPM */
static char * frame_side_xpm[] = {
"6 64 210 2",
"  	c None",
". 	c #89968B",
"+ 	c #526454",
"@ 	c #536755",
"# 	c #4E6350",
"$ 	c #4A614D",
"% 	c #314234",
"& 	c #8A968B",
"* 	c #526654",
"= 	c #4B624E",
"- 	c #324234",
"; 	c #879388",
"> 	c #4E6351",
", 	c #4C624E",
"' 	c #334234",
") 	c #839085",
"! 	c #506252",
"~ 	c #4C614F",
"{ 	c #4B614D",
"] 	c #324133",
"^ 	c #859186",
"/ 	c #4E6252",
"( 	c #4B624F",
"_ 	c #48604C",
": 	c #304032",
"< 	c #4E6352",
"[ 	c #4C6250",
"} 	c #485E4A",
"| 	c #303F31",
"1 	c #849287",
"2 	c #4D6251",
"3 	c #4F6552",
"4 	c #4F6652",
"5 	c #314033",
"6 	c #869388",
"7 	c #506554",
"8 	c #4E6451",
"9 	c #4E6551",
"0 	c #4D6450",
"a 	c #344336",
"b 	c #4F6453",
"c 	c #516955",
"d 	c #4E6652",
"e 	c #324235",
"f 	c #869489",
"g 	c #506854",
"h 	c #314134",
"i 	c #818F83",
"j 	c #516756",
"k 	c #4F6754",
"l 	c #49624D",
"m 	c #475F4B",
"n 	c #859488",
"o 	c #516755",
"p 	c #4C6450",
"q 	c #4A624E",
"r 	c #2E3D30",
"s 	c #8C9A8E",
"t 	c #4E6553",
"u 	c #4B634F",
"v 	c #4B644F",
"w 	c #465E4A",
"x 	c #29382A",
"y 	c #8B998D",
"z 	c #4F6654",
"A 	c #4E6552",
"B 	c #47604B",
"C 	c #3A503C",
"D 	c #28372A",
"E 	c #869487",
"F 	c #536855",
"G 	c #3F5441",
"H 	c #3C513E",
"I 	c #2C3A2E",
"J 	c #889689",
"K 	c #435845",
"L 	c #384D3A",
"M 	c #415643",
"N 	c #2F3C30",
"O 	c #8A988C",
"P 	c #4C614E",
"Q 	c #394E3B",
"R 	c #3B503D",
"S 	c #465B48",
"T 	c #2F3D30",
"U 	c #89978A",
"V 	c #3E5440",
"W 	c #475C49",
"X 	c #485D4A",
"Y 	c #829184",
"Z 	c #374C39",
"` 	c #7B8A7D",
" .	c #495E4B",
"..	c #344235",
"+.	c #78877A",
"@.	c #445846",
"#.	c #4A5F4C",
"$.	c #313F32",
"%.	c #79887B",
"&.	c #445946",
"*.	c #2B3A2D",
"=.	c #7E8C7F",
"-.	c #4B604D",
";.	c #425744",
">.	c #253427",
",.	c #839184",
"'.	c #4D624F",
").	c #2B3A2C",
"!.	c #839284",
"~.	c #3D523F",
"{.	c #818F82",
"].	c #849285",
"^.	c #455A47",
"/.	c #405542",
"(.	c #303E31",
"_.	c #859386",
":.	c #2F3E31",
"<.	c #829083",
"[.	c #495F4C",
"}.	c #425644",
"|.	c #2F3E30",
"1.	c #829284",
"2.	c #475F49",
"3.	c #4C644E",
"4.	c #435B45",
"5.	c #405842",
"6.	c #314232",
"7.	c #809182",
"8.	c #48614B",
"9.	c #4B634D",
"0.	c #425A44",
"a.	c #415943",
"b.	c #334435",
"c.	c #7F9081",
"d.	c #4A634D",
"e.	c #4A624C",
"f.	c #354536",
"g.	c #4B644E",
"h.	c #49624C",
"i.	c #344536",
"j.	c #445C46",
"k.	c #829283",
"l.	c #465E48",
"m.	c #314132",
"n.	c #7F8F81",
"o.	c #48604A",
"p.	c #324233",
"q.	c #7C8D7E",
"r.	c #49614B",
"s.	c #7E8F80",
"t.	c #7E8E80",
"u.	c #324334",
"v.	c #4C654F",
"w.	c #4D654F",
"x.	c #819182",
"y.	c #4E6650",
"z.	c #324333",
"A.	c #506953",
"B.	c #314233",
"C.	c #839384",
"D.	c #516A54",
"E.	c #455D47",
"F.	c #839385",
"G.	c #546B57",
"H.	c #4A614C",
"I.	c #445A45",
"J.	c #4F6550",
"K.	c #324032",
"L.	c #819184",
"M.	c #526A56",
"N.	c #4D644F",
"O.	c #485E49",
"P.	c #819082",
"Q.	c #526955",
"R.	c #516753",
"S.	c #4B614C",
"T.	c #506650",
"U.	c #536A56",
"V.	c #526853",
"W.	c #4C624D",
"X.	c #839285",
"Y.	c #344334",
"Z.	c #4C634E",
"`.	c #344435",
" +	c #819183",
".+	c #4E6450",
"++	c #516653",
"@+	c #526754",
"#+	c #4E6250",
"$+	c #354336",
"%+	c #808F82",
"&+	c #556A57",
"*+	c #819083",
"=+	c #576C59",
"-+	c #546856",
";+	c #566B58",
">+	c #4F6451",
",+	c #546956",
"'+	c #364538",
")+	c #506552",
"!+	c #374538",
"~+	c #849386",
"{+	c #526854",
"]+	c #566A58",
"^+	c #556A59",
"/+	c #374539",
"(+	c #506553",
"_+	c #536857",
":+	c #37453A",
"<+	c #364438",
". + @ # $ % ",
"& + * # = - ",
"; + > , = ' ",
") ! ~ { $ ] ",
"^ / ( $ _ : ",
"& < [ = } | ",
"1 2 3 4 $ 5 ",
"6 7 8 9 0 a ",
". b 8 c d e ",
"f b g g $ h ",
"i j k l m - ",
"n o p l q r ",
"s t u v w x ",
"y z A B C D ",
"E F # G H I ",
"J F K L M N ",
"O P Q R S T ",
"U V Q W X r ",
"Y Z M P W 5 ",
"` R  .W W ..",
"+.@.P K #.$.",
"%.} P &.# *.",
"=.-.;.-.W >.",
",.'.&.-.;.).",
"!.X &.-.~.$.",
"{.&.S } ~.5 ",
"].W  .^./.(.",
"_.X #.K K :.",
",.S #.;.K :.",
"<.[.-.K }.|.",
"1.2.3.4.5.6.",
"7.8.9.0.a.b.",
"c.d.e.a.0.f.",
"7.g.h.5.4.i.",
"1.3.h.5.j.- ",
"k.g.8.5.l.m.",
"n.g.o.a.o.p.",
"q.d.2.0.r.b.",
"s.g.r.4.e.p.",
"t.g.r.4.e.p.",
"t.9.r.4.9.u.",
"s.g.h.4.3.u.",
"c.v.e.4.w.u.",
"x.y.9.j.w.z.",
"1.A.3.j.w.B.",
"C.D.3.E.y.6.",
"F.G.H.I.J.K.",
"L.M.N.O.J.] ",
"P.Q.R.S.T.] ",
"Y U.V.W.J.' ",
"X.G.J.S.J.Y.",
"1.U.Z.S.T.`.",
" +U..+P ++a ",
"L.G.@+#+@+$+",
"%+&+'.P @+..",
"*+=+# P -+$+",
"<.;+>+# ,+'+",
",.-+)+# @+!+",
"~+{+# # F !+",
"E F P '.]+!+",
"X.++> < ^+/+",
"%+# (+7 _+:+",
"Y F ,+>+=+!+",
"].F =+# ,+<+"};
