/* XPM */
static char * frame_top_xpm[] = {
"50 12 172 2",
"  	c None",
". 	c #89968B",
"+ 	c #8A968B",
"@ 	c #879388",
"# 	c #839085",
"$ 	c #859186",
"% 	c #849287",
"& 	c #869388",
"* 	c #869489",
"= 	c #818F83",
"- 	c #859488",
"; 	c #8C9A8E",
"> 	c #8B998D",
", 	c #869487",
"' 	c #889689",
") 	c #8A988C",
"! 	c #89978A",
"~ 	c #829184",
"{ 	c #7B8A7D",
"] 	c #78877A",
"^ 	c #79887B",
"/ 	c #7E8C7F",
"( 	c #839184",
"_ 	c #839284",
": 	c #818F82",
"< 	c #849285",
"[ 	c #859386",
"} 	c #829083",
"| 	c #829284",
"1 	c #809182",
"2 	c #7F9081",
"3 	c #829283",
"4 	c #7F8F81",
"5 	c #7C8D7E",
"6 	c #7E8F80",
"7 	c #7E8E80",
"8 	c #819182",
"9 	c #839384",
"0 	c #839385",
"a 	c #819184",
"b 	c #819082",
"c 	c #526454",
"d 	c #506252",
"e 	c #4E6252",
"f 	c #4E6352",
"g 	c #4D6251",
"h 	c #506554",
"i 	c #4F6453",
"j 	c #516756",
"k 	c #516755",
"l 	c #4E6553",
"m 	c #4F6654",
"n 	c #536855",
"o 	c #4C614E",
"p 	c #3E5440",
"q 	c #374C39",
"r 	c #3B503D",
"s 	c #445846",
"t 	c #485E4A",
"u 	c #4B604D",
"v 	c #4D624F",
"w 	c #485D4A",
"x 	c #445946",
"y 	c #475C49",
"z 	c #465B48",
"A 	c #495F4C",
"B 	c #475F49",
"C 	c #48614B",
"D 	c #4A634D",
"E 	c #4B644E",
"F 	c #4C644E",
"G 	c #4B634D",
"H 	c #4C654F",
"I 	c #4E6650",
"J 	c #506953",
"K 	c #516A54",
"L 	c #546B57",
"M 	c #526A56",
"N 	c #526955",
"O 	c #324133",
"P 	c #4E6351",
"Q 	c #4C614F",
"R 	c #4B624F",
"S 	c #4C6250",
"T 	c #4F6552",
"U 	c #4E6451",
"V 	c #506854",
"W 	c #4F6754",
"X 	c #4C6450",
"Y 	c #4B634F",
"Z 	c #4E6552",
"` 	c #4E6350",
" .	c #435845",
"..	c #394E3B",
"+.	c #415643",
"@.	c #495E4B",
"#.	c #425744",
"$.	c #4A5F4C",
"%.	c #4A624C",
"&.	c #49624C",
"*.	c #48604A",
"=.	c #49614B",
"-.	c #4A614C",
";.	c #4D644F",
">.	c #516753",
",.	c #4C624E",
"'.	c #4B614D",
").	c #4A614D",
"!.	c #4B624E",
"~.	c #4F6652",
"{.	c #4E6551",
"].	c #516955",
"^.	c #49624D",
"/.	c #4B644F",
"(.	c #47604B",
"_.	c #3F5441",
":.	c #384D3A",
"<.	c #455A47",
"[.	c #435B45",
"}.	c #425A44",
"|.	c #415943",
"1.	c #405842",
"2.	c #445C46",
"3.	c #455D47",
"4.	c #445A45",
"5.	c #485E49",
"6.	c #4B614C",
"7.	c #48604C",
"8.	c #4D6450",
"9.	c #4E6652",
"0.	c #475F4B",
"a.	c #4A624E",
"b.	c #465E4A",
"c.	c #3A503C",
"d.	c #3C513E",
"e.	c #3D523F",
"f.	c #405542",
"g.	c #425644",
"h.	c #465E48",
"i.	c #4D654F",
"j.	c #4F6550",
"k.	c #506650",
"l.	c #334233",
"m.	c #526654",
"n.	c #344336",
"o.	c #324235",
"p.	c #314133",
"q.	c #314033",
"r.	c #324134",
"s.	c #2E3D30",
"t.	c #29382A",
"u.	c #283729",
"v.	c #2C3A2E",
"w.	c #2F3C30",
"x.	c #2F3D30",
"y.	c #344235",
"z.	c #313F32",
"A.	c #2B3A2D",
"B.	c #253427",
"C.	c #2B3A2C",
"D.	c #303E31",
"E.	c #2F3E31",
"F.	c #314232",
"G.	c #334435",
"H.	c #354536",
"I.	c #344536",
"J.	c #324234",
"K.	c #314132",
"L.	c #324233",
"M.	c #314233",
"N.	c #324334",
"O.	c #324333",
". + @ # $ + % & . * = - ; > , ' ) ! ~ { ] ^ / ( _ : < [ ( } | 1 2 1 | 3 4 5 6 7 7 6 2 8 | 9 0 a b ~ ",
". c c d e f g h i i j k l m n n o p q r s t u v w x y w z A B C D E F E E D E E G E H I J K L M N O ",
". P P Q R S T U U V W X Y Z `  .....+.@.o o #.x x z @.$.$.u F G %.&.&.C *.B =.=.=.&.%.G E F -.;.>.O ",
". ,.,.'.).!.~.{.].V ^.^./.(._.:.r y o y  .x u u u t <. .#. .[.}.|.1.1.1.|.}.[.[.[.[.[.2.2.3.4.5.6.O ",
". !.!.).7.t ).8.9.).0.a.b.c.d.+.z w y y $.` y #.e.e.f. . .g.1.|.}.[.2.h.*.=.%.%.G F i.i.i.I j.j.k.O ",
". !.!.).7.t ).8.9.).0.a.b.c.d.+.z w y y $.` y #.e.e.f. . .g.1.|.}.[.2.h.*.=.%.%.G F i.i.i.I j.j.k.l.",
". c c d e f g h i i j k l m n n o p q r s t u v w x y w z A B C D E F E E D E E G E H I J K L M N O ",
". c c d e f g h i i j k l m n n o p q r s t u v w x y w z A B C D E F E E D E E G E H I J K L M N O ",
". m.P Q R S T U U V W X Y Z `  .....+.@.o o #.x x z @.$.$.u F G %.&.&.C *.B =.=.=.&.%.G E F -.;.>.O ",
". ` ,.'.).!.~.{.].V ^.^./.(._.:.r y o y  .x u u u t <. .#. .[.}.|.1.1.1.|.}.[.[.[.[.[.2.2.3.4.5.6.O ",
". !.!.).7.t ).8.9.).0.a.b.c.d.+.z w y y $.` y #.e.e.f. . .g.1.|.}.[.2.h.*.=.%.%.G F i.i.i.I j.j.k.l.",
". !.!.n.o.p.q.n.o.p.r.s.t.u.v.w.x.s.q.y.z.A.B.C.z.q.D.E.E.x.F.G.H.I.J.K.L.G.M.L.N.N.N.O.N.N.N.k.k.l."};
