/* XPM */
static char * frame_bottom_xpm[] = {
"50 12 168 2",
"  	c None",
". 	c #89968B",
"+ 	c #526454",
"@ 	c #849287",
"# 	c #869388",
"$ 	c #869489",
"% 	c #818F83",
"& 	c #859488",
"* 	c #8C9A8E",
"= 	c #8B998D",
"- 	c #869487",
"; 	c #889689",
"> 	c #8A988C",
", 	c #89978A",
"' 	c #829184",
") 	c #7B8A7D",
"! 	c #78877A",
"~ 	c #79887B",
"{ 	c #7E8C7F",
"] 	c #839184",
"^ 	c #839284",
"/ 	c #818F82",
"( 	c #849285",
"_ 	c #859386",
": 	c #829083",
"< 	c #829284",
"[ 	c #809182",
"} 	c #7F9081",
"| 	c #829283",
"1 	c #7F8F81",
"2 	c #7C8D7E",
"3 	c #7E8F80",
"4 	c #7E8E80",
"5 	c #819182",
"6 	c #526A56",
"7 	c #526955",
"8 	c #324133",
"9 	c #506252",
"0 	c #4E6252",
"a 	c #4E6352",
"b 	c #4D6251",
"c 	c #506554",
"d 	c #4F6453",
"e 	c #516756",
"f 	c #516755",
"g 	c #4E6553",
"h 	c #4F6654",
"i 	c #536855",
"j 	c #4C614E",
"k 	c #3E5440",
"l 	c #374C39",
"m 	c #3B503D",
"n 	c #445846",
"o 	c #485E4A",
"p 	c #4B604D",
"q 	c #4D624F",
"r 	c #485D4A",
"s 	c #445946",
"t 	c #475C49",
"u 	c #465B48",
"v 	c #495F4C",
"w 	c #475F49",
"x 	c #48614B",
"y 	c #4A634D",
"z 	c #4B644E",
"A 	c #4C644E",
"B 	c #4B634D",
"C 	c #4C654F",
"D 	c #4E6650",
"E 	c #506953",
"F 	c #516A54",
"G 	c #546B57",
"H 	c #4E6351",
"I 	c #4C614F",
"J 	c #4B624F",
"K 	c #4C6250",
"L 	c #4F6552",
"M 	c #4E6451",
"N 	c #506854",
"O 	c #4F6754",
"P 	c #4C6450",
"Q 	c #4B634F",
"R 	c #4E6552",
"S 	c #4E6350",
"T 	c #435845",
"U 	c #394E3B",
"V 	c #415643",
"W 	c #495E4B",
"X 	c #425744",
"Y 	c #4A5F4C",
"Z 	c #4A624C",
"` 	c #49624C",
" .	c #48604A",
"..	c #49614B",
"+.	c #4A614C",
"@.	c #4D644F",
"#.	c #516753",
"$.	c #4C624E",
"%.	c #4B614D",
"&.	c #4A614D",
"*.	c #4B624E",
"=.	c #4F6652",
"-.	c #4E6551",
";.	c #516955",
">.	c #49624D",
",.	c #4B644F",
"'.	c #47604B",
").	c #3F5441",
"!.	c #384D3A",
"~.	c #455A47",
"{.	c #435B45",
"].	c #425A44",
"^.	c #415943",
"/.	c #405842",
"(.	c #445C46",
"_.	c #455D47",
":.	c #445A45",
"<.	c #485E49",
"[.	c #4B614C",
"}.	c #48604C",
"|.	c #4D6450",
"1.	c #4E6652",
"2.	c #475F4B",
"3.	c #4A624E",
"4.	c #465E4A",
"5.	c #3A503C",
"6.	c #3C513E",
"7.	c #3D523F",
"8.	c #405542",
"9.	c #425644",
"0.	c #465E48",
"a.	c #4D654F",
"b.	c #4F6550",
"c.	c #506650",
"d.	c #334233",
"e.	c #526654",
"f.	c #314133",
"g.	c #324234",
"h.	c #334234",
"i.	c #304032",
"j.	c #2F3F31",
"k.	c #314033",
"l.	c #344336",
"m.	c #324235",
"n.	c #324134",
"o.	c #2E3D30",
"p.	c #29382A",
"q.	c #283729",
"r.	c #2C3A2E",
"s.	c #2F3C30",
"t.	c #2F3D30",
"u.	c #344235",
"v.	c #313F32",
"w.	c #2B3A2D",
"x.	c #253427",
"y.	c #2B3A2C",
"z.	c #303E31",
"A.	c #2F3E31",
"B.	c #314232",
"C.	c #334435",
"D.	c #354536",
"E.	c #344536",
"F.	c #314132",
"G.	c #324233",
"H.	c #314233",
"I.	c #324334",
"J.	c #324333",
"K.	c #324032",
". + + @ # . $ # . $ % & * = - ; > , ' ) ! ~ { ] ^ / ( _ ] : < [ } [ < | 1 2 3 4 4 3 } 4 3 } 5 6 7 8 ",
". + + 9 0 a b c d d e f g h i i j k l m n o p q r s t r u v w x y z A z z y z z B z C D E F G 6 7 8 ",
". H H I J K L M M N O P Q R S T U U V W j j X s s u W Y Y p A B Z ` ` x  .w ......` Z B z A +.@.#.8 ",
". $.$.%.&.*.=.-.;.N >.>.,.'.).!.m t j t T s p p p o ~.T X T {.].^./././.^.].{.{.{.{.{.(.(._.:.<.[.8 ",
". *.*.&.}.o &.|.1.&.2.3.4.5.6.V u r t t Y S t X 7.7.8.T T 9./.^.].{.(.0. ...Z Z B A a.a.a.D b.b.c.8 ",
". *.*.&.}.o &.|.1.&.2.3.4.5.6.V u r t t Y S t X 7.7.8.T T 9./.^.].{.(.0. ...Z Z B A a.a.a.D b.b.c.d.",
". + + 9 0 a b c d d e f g h i i j k l m n o p q r s t r u v w x y z A z z y z z B z C D E F G 6 7 8 ",
". + + 9 0 a b c d d e f g h i i j k l m n o p q r s t r u v w x y z A z z y z z B z C D E F G 6 7 8 ",
". e.H I J K L M M N O P Q R S T U U V W j j X s s u W Y Y p A B Z ` ` x  .w ......` Z B z A +.@.#.8 ",
". S $.%.&.*.=.-.;.N >.>.,.'.).!.m t j t T s p p p o ~.T X T {.].^./././.^.].{.{.{.{.{.(.(._.:.<.[.8 ",
". *.*.&.}.o &.|.1.&.2.3.4.5.6.V u r t t Y S t X 7.7.8.T T 9./.^.].{.(.0. ...Z Z B A a.a.a.D b.b.c.d.",
"f.g.h.f.i.j.k.l.m.f.n.o.p.q.r.s.t.o.k.u.v.w.x.y.v.k.z.A.A.t.B.C.D.E.g.F.G.C.H.G.I.I.I.J.H.F.K.8 8 d."};
