/* XPM */
static char * frame_left_xpm[] = {
"6 64 170 2",
"  	c None",
". 	c #89968B",
"+ 	c #526454",
"@ 	c #536755",
"# 	c #4E6350",
"$ 	c #4A614D",
"% 	c #314234",
"& 	c #526654",
"* 	c #4B624E",
"= 	c #324234",
"- 	c #4E6351",
"; 	c #4C624E",
"> 	c #334234",
", 	c #506252",
"' 	c #4C614F",
") 	c #4B614D",
"! 	c #324133",
"~ 	c #4E6252",
"{ 	c #4B624F",
"] 	c #48604C",
"^ 	c #304032",
"/ 	c #4E6352",
"( 	c #4C6250",
"_ 	c #485E4A",
": 	c #303F31",
"< 	c #4D6251",
"[ 	c #4F6552",
"} 	c #4F6652",
"| 	c #314033",
"1 	c #506554",
"2 	c #4E6451",
"3 	c #4E6551",
"4 	c #4D6450",
"5 	c #344336",
"6 	c #4F6453",
"7 	c #516955",
"8 	c #4E6652",
"9 	c #324235",
"0 	c #506854",
"a 	c #314134",
"b 	c #516756",
"c 	c #4F6754",
"d 	c #49624D",
"e 	c #475F4B",
"f 	c #516755",
"g 	c #4C6450",
"h 	c #4A624E",
"i 	c #2E3D30",
"j 	c #8B988D",
"k 	c #4E6553",
"l 	c #4B634F",
"m 	c #4B644F",
"n 	c #465E4A",
"o 	c #29382A",
"p 	c #8A978C",
"q 	c #4F6654",
"r 	c #4E6552",
"s 	c #47604B",
"t 	c #3A503C",
"u 	c #28372A",
"v 	c #536855",
"w 	c #3F5441",
"x 	c #3C513E",
"y 	c #2C3A2E",
"z 	c #88968A",
"A 	c #435845",
"B 	c #384D3A",
"C 	c #415643",
"D 	c #2F3C30",
"E 	c #4C614E",
"F 	c #394E3B",
"G 	c #3B503D",
"H 	c #465B48",
"I 	c #2F3D30",
"J 	c #89968A",
"K 	c #3E5440",
"L 	c #475C49",
"M 	c #485D4A",
"N 	c #374C39",
"O 	c #495E4B",
"P 	c #344235",
"Q 	c #445846",
"R 	c #4A5F4C",
"S 	c #313F32",
"T 	c #445946",
"U 	c #2B3A2D",
"V 	c #4B604D",
"W 	c #425744",
"X 	c #253427",
"Y 	c #4D624F",
"Z 	c #2B3A2C",
"` 	c #3D523F",
" .	c #455A47",
"..	c #405542",
"+.	c #303E31",
"@.	c #2F3E31",
"#.	c #495F4C",
"$.	c #425644",
"%.	c #2F3E30",
"&.	c #475F49",
"*.	c #4C644E",
"=.	c #435B45",
"-.	c #405842",
";.	c #314232",
">.	c #48614B",
",.	c #4B634D",
"'.	c #425A44",
").	c #415943",
"!.	c #334435",
"~.	c #4A634D",
"{.	c #4A624C",
"].	c #354536",
"^.	c #4B644E",
"/.	c #49624C",
"(.	c #344536",
"_.	c #445C46",
":.	c #465E48",
"<.	c #314132",
"[.	c #48604A",
"}.	c #324233",
"|.	c #49614B",
"1.	c #324334",
"2.	c #4C654F",
"3.	c #4D654F",
"4.	c #4E6650",
"5.	c #324333",
"6.	c #506953",
"7.	c #314233",
"8.	c #516A54",
"9.	c #455D47",
"0.	c #546B57",
"a.	c #4A614C",
"b.	c #445A45",
"c.	c #4F6550",
"d.	c #324032",
"e.	c #526A56",
"f.	c #4D644F",
"g.	c #485E49",
"h.	c #526955",
"i.	c #516753",
"j.	c #4B614C",
"k.	c #506650",
"l.	c #536A56",
"m.	c #526853",
"n.	c #4C624D",
"o.	c #344334",
"p.	c #4C634E",
"q.	c #344435",
"r.	c #4E6450",
"s.	c #516653",
"t.	c #526754",
"u.	c #4E6250",
"v.	c #354336",
"w.	c #556A57",
"x.	c #576C59",
"y.	c #546856",
"z.	c #566B58",
"A.	c #4F6451",
"B.	c #546956",
"C.	c #364538",
"D.	c #506552",
"E.	c #374538",
"F.	c #526854",
"G.	c #566A58",
"H.	c #556A59",
"I.	c #374539",
"J.	c #506553",
"K.	c #536857",
"L.	c #37453A",
"M.	c #364438",
". + @ # $ % ",
". + & # * = ",
". + - ; * > ",
". , ' ) $ ! ",
". ~ { $ ] ^ ",
". / ( * _ : ",
". < [ } $ | ",
". 1 2 3 4 5 ",
". 6 2 7 8 9 ",
". 6 0 0 $ a ",
". b c d e = ",
". f g d h i ",
"j k l m n o ",
"p q r s t u ",
". v # w x y ",
"z v A B C D ",
". E F G H I ",
"J K F L M i ",
". N C E L | ",
". G O L L P ",
". Q E A R S ",
". _ E T # U ",
". V W V L X ",
". Y T V W Z ",
". M T V ` S ",
". T H _ ` | ",
". L O  ...+.",
". M R A A @.",
". H R W A @.",
". #.V A $.%.",
". &.*.=.-.;.",
". >.,.'.).!.",
". ~.{.).'.].",
". ^./.-.=.(.",
". *./.-._.= ",
". ^.>.-.:.<.",
". ^.[.).[.}.",
". ~.&.'.|.!.",
". ^.|.=.{.}.",
". ^.|.=.{.}.",
". ,.|.=.,.1.",
". ^./.=.*.1.",
". 2.{.=.3.1.",
". 4.,._.3.5.",
". 6.*._.3.7.",
". 8.*.9.4.;.",
". 0.a.b.c.d.",
". e.f.g.c.! ",
". h.i.j.k.! ",
". l.m.n.c.> ",
". 0.c.j.c.o.",
". l.p.j.k.q.",
". l.r.E s.5 ",
". 0.t.u.t.v.",
". w.Y E t.P ",
". x.# E y.v.",
". z.A.# B.C.",
". y.D.# t.E.",
". F.# # v E.",
". v E Y G.E.",
". s.- / H.I.",
". # J.1 K.L.",
". v B.A.x.E.",
". v x.# B.M."};
