/* XPM */
static char * frame_left_xpm[] = {
"4 32 61 1",
" 	c None",
".	c #818181",
"+	c #595959",
"@	c #565656",
"#	c #464646",
"$	c #676767",
"%	c #444444",
"&	c #434343",
"*	c #2C2C2C",
"=	c #797979",
"-	c #484848",
";	c #474747",
">	c #2E2E2E",
",	c #7D7D7D",
"'	c #4A4A4A",
")	c #454545",
"!	c #787878",
"~	c #494949",
"{	c #6F6F6F",
"]	c #2F2F2F",
"^	c #6A6A6A",
"/	c #3B3B3B",
"(	c #404040",
"_	c #2D2D2D",
":	c #6E6E6E",
"<	c #424242",
"[	c #6C6C6C",
"}	c #747474",
"|	c #303030",
"1	c #717171",
"2	c #3F3F3F",
"3	c #727272",
"4	c #3D3D3D",
"5	c #2A2A2A",
"6	c #353535",
"7	c #3A3A3A",
"8	c #7A7A7A",
"9	c #2B2B2B",
"0	c #767676",
"a	c #343434",
"b	c #333333",
"c	c #232323",
"d	c #696969",
"e	c #242424",
"f	c #646464",
"g	c #212121",
"h	c #414141",
"i	c #282828",
"j	c #757575",
"k	c #323232",
"l	c #7E7E7E",
"m	c #525252",
"n	c #4E4E4E",
"o	c #7F7F7F",
"p	c #777777",
"q	c #505050",
"r	c #4C4C4C",
"s	c #4B4B4B",
"t	c #292929",
"u	c #5C5C5C",
"v	c #373737",
".+@#",
"$%&*",
"=-;>",
",')>",
"!~)>",
"{~;]",
"^/(_",
":(<>",
"[/(]",
"[<%]",
"});|",
"12(_",
"34/5",
"[67*",
"82(9",
"=(45",
"022a",
"1b>c",
"d_/e",
"f|ag",
"{h6i",
"j);k",
"lmnk",
".#)]",
"o#h*",
"p'(*",
"{qh9",
"!rn]",
"$4-_",
":hs5",
"$%'t",
"u7ve"};
