/* XPM */
static char * frame_bottom_xpm[] = {
"114 3 4 1",
" 	c None",
".	c #C6DFF0",
"+	c #3E524F",
"@	c #000000",
".+@.............................................................................................................+@",
".++++++++++++++++++++++++++++++++++++++++++++++++++++++++++++++++++++++++++++++++++++++++++++++++++++++++++++++++@",
"+@@@@@@@@@@@@@@@@@@@@@@@@@@@@@@@@@@@@@@@@@@@@@@@@@@@@@@@@@@@@@@@@@@@@@@@@@@@@@@@@@@@@@@@@@@@@@@@@@@@@@@@@@@@@@@@@@"};
