/* XPM */
static char * bg_chart_xpm[] = {
"60 40 50 1",
" 	c None",
".	c #364961",
"+	c #364B63",
"@	c #3A4D63",
"#	c #3D5066",
"$	c #425469",
"%	c #45576A",
"&	c #49596A",
"*	c #49596C",
"=	c #4A5A6D",
"-	c #4C5C6D",
";	c #4E5B6D",
">	c #4F5C6E",
",	c #505D6F",
"'	c #52606F",
")	c #536170",
"!	c #526171",
"~	c #536272",
"{	c #546271",
"]	c #556372",
"^	c #556270",
"/	c #535E6E",
"(	c #525F6D",
"_	c #515E6C",
":	c #505D6B",
"<	c #4F5A6A",
"[	c #4D5B6A",
"}	c #4C5A69",
"|	c #4B5968",
"1	c #495566",
"2	c #475666",
"3	c #475564",
"4	c #455464",
"5	c #445261",
"6	c #425161",
"7	c #414F5E",
"8	c #3F4D5C",
"9	c #3B4B5C",
"0	c #3A4A5B",
"a	c #384757",
"b	c #364355",
"c	c #344153",
"d	c #323F51",
"e	c #304051",
"f	c #2E3E51",
"g	c #2D3D4E",
"h	c #2C3C4D",
"i	c #2B3B4C",
"j	c #2A3A4D",
"k	c #2A3A4B",
".+@#$%&*=-;>,')!~{{]]]]]]]^{^~)/(_:<[}|1234567890abcdefghijk",
".+@#$%&*=-;>,')!~{{]]]]]]]^{^~)/(_:<[}|1234567890abcdefghijk",
".+@#$%&*=-;>,')!~{{]]]]]]]^{^~)/(_:<[}|1234567890abcdefghijk",
".+@#$%&*=-;>,')!~{{]]]]]]]^{^~)/(_:<[}|1234567890abcdefghijk",
".+@#$%&*=-;>,')!~{{]]]]]]]^{^~)/(_:<[}|1234567890abcdefghijk",
".+@#$%&*=-;>,')!~{{]]]]]]]^{^~)/(_:<[}|1234567890abcdefghijk",
".+@#$%&*=-;>,')!~{{]]]]]]]^{^~)/(_:<[}|1234567890abcdefghijk",
".+@#$%&*=-;>,')!~{{]]]]]]]^{^~)/(_:<[}|1234567890abcdefghijk",
".+@#$%&*=-;>,')!~{{]]]]]]]^{^~)/(_:<[}|1234567890abcdefghijk",
".+@#$%&*=-;>,')!~{{]]]]]]]^{^~)/(_:<[}|1234567890abcdefghijk",
".+@#$%&*=-;>,')!~{{]]]]]]]^{^~)/(_:<[}|1234567890abcdefghijk",
".+@#$%&*=-;>,')!~{{]]]]]]]^{^~)/(_:<[}|1234567890abcdefghijk",
".+@#$%&*=-;>,')!~{{]]]]]]]^{^~)/(_:<[}|1234567890abcdefghijk",
".+@#$%&*=-;>,')!~{{]]]]]]]^{^~)/(_:<[}|1234567890abcdefghijk",
".+@#$%&*=-;>,')!~{{]]]]]]]^{^~)/(_:<[}|1234567890abcdefghijk",
".+@#$%&*=-;>,')!~{{]]]]]]]^{^~)/(_:<[}|1234567890abcdefghijk",
".+@#$%&*=-;>,')!~{{]]]]]]]^{^~)/(_:<[}|1234567890abcdefghijk",
".+@#$%&*=-;>,')!~{{]]]]]]]^{^~)/(_:<[}|1234567890abcdefghijk",
".+@#$%&*=-;>,')!~{{]]]]]]]^{^~)/(_:<[}|1234567890abcdefghijk",
".+@#$%&*=-;>,')!~{{]]]]]]]^{^~)/(_:<[}|1234567890abcdefghijk",
".+@#$%&*=-;>,')!~{{]]]]]]]^{^~)/(_:<[}|1234567890abcdefghijk",
".+@#$%&*=-;>,')!~{{]]]]]]]^{^~)/(_:<[}|1234567890abcdefghijk",
".+@#$%&*=-;>,')!~{{]]]]]]]^{^~)/(_:<[}|1234567890abcdefghijk",
".+@#$%&*=-;>,')!~{{]]]]]]]^{^~)/(_:<[}|1234567890abcdefghijk",
".+@#$%&*=-;>,')!~{{]]]]]]]^{^~)/(_:<[}|1234567890abcdefghijk",
".+@#$%&*=-;>,')!~{{]]]]]]]^{^~)/(_:<[}|1234567890abcdefghijk",
".+@#$%&*=-;>,')!~{{]]]]]]]^{^~)/(_:<[}|1234567890abcdefghijk",
".+@#$%&*=-;>,')!~{{]]]]]]]^{^~)/(_:<[}|1234567890abcdefghijk",
".+@#$%&*=-;>,')!~{{]]]]]]]^{^~)/(_:<[}|1234567890abcdefghijk",
".+@#$%&*=-;>,')!~{{]]]]]]]^{^~)/(_:<[}|1234567890abcdefghijk",
".+@#$%&*=-;>,')!~{{]]]]]]]^{^~)/(_:<[}|1234567890abcdefghijk",
".+@#$%&*=-;>,')!~{{]]]]]]]^{^~)/(_:<[}|1234567890abcdefghijk",
".+@#$%&*=-;>,')!~{{]]]]]]]^{^~)/(_:<[}|1234567890abcdefghijk",
".+@#$%&*=-;>,')!~{{]]]]]]]^{^~)/(_:<[}|1234567890abcdefghijk",
".+@#$%&*=-;>,')!~{{]]]]]]]^{^~)/(_:<[}|1234567890abcdefghijk",
".+@#$%&*=-;>,')!~{{]]]]]]]^{^~)/(_:<[}|1234567890abcdefghijk",
".+@#$%&*=-;>,')!~{{]]]]]]]^{^~)/(_:<[}|1234567890abcdefghijk",
".+@#$%&*=-;>,')!~{{]]]]]]]^{^~)/(_:<[}|1234567890abcdefghijk",
".+@#$%&*=-;>,')!~{{]]]]]]]^{^~)/(_:<[}|1234567890abcdefghijk",
".+@#$%&*=-;>,')!~{{]]]]]]]^{^~)/(_:<[}|1234567890abcdefghijk"};
