/* XPM */
static char * bg_panel_xpm[] = {
"68 13 62 1",
" 	c None",
".	c #848A9B",
"+	c #1C1E26",
"@	c #1F222A",
"#	c #23262F",
"$	c #272A32",
"%	c #2B2E37",
"&	c #2F323B",
"*	c #32353F",
"=	c #363A43",
"-	c #3A3D47",
";	c #3E414B",
">	c #42454F",
",	c #464953",
"'	c #494D57",
")	c #4D515C",
"!	c #515560",
"~	c #555964",
"{	c #595D68",
"]	c #5C606C",
"^	c #606470",
"/	c #646974",
"(	c #686C78",
"_	c #6C707C",
":	c #707481",
"<	c #737884",
"[	c #777C89",
"}	c #7B808D",
"|	c #7E8391",
"1	c #828895",
"2	c #868B99",
"3	c #8A8F9D",
"4	c #8B909E",
"5	c #878D9B",
"6	c #858A97",
"7	c #828794",
"8	c #7C808E",
"9	c #797D8A",
"0	c #767B87",
"a	c #737784",
"b	c #6C717D",
"c	c #696E7A",
"d	c #676B77",
"e	c #646874",
"f	c #616571",
"g	c #5E626D",
"h	c #5A5F6A",
"i	c #585C67",
"j	c #525660",
"k	c #4E525D",
"l	c #4B4F5A",
"m	c #434650",
"n	c #40434D",
"o	c #3C404A",
"p	c #373A44",
"q	c #333740",
"r	c #30343D",
"s	c #2D3039",
"t	c #282A33",
"u	c #252730",
"v	c #21242D",
"w	c #1E2129",
"....................................................................",
"+@#$%&*=-;>,')!~{]^/(_:<[}|1234567|890a:bcdefghi~jkl',mno-pqrs%tuvw+",
"+@#$%&*=-;>,')!~{]^/(_:<[}|1234567|890a:bcdefghi~jkl',mno-pqrs%tuvw+",
"+@#$%&*=-;>,')!~{]^/(_:<[}|1234567|890a:bcdefghi~jkl',mno-pqrs%tuvw+",
"+@#$%&*=-;>,')!~{]^/(_:<[}|1234567|890a:bcdefghi~jkl',mno-pqrs%tuvw+",
"+@#$%&*=-;>,')!~{]^/(_:<[}|1234567|890a:bcdefghi~jkl',mno-pqrs%tuvw+",
"+@#$%&*=-;>,')!~{]^/(_:<[}|1234567|890a:bcdefghi~jkl',mno-pqrs%tuvw+",
"+@#$%&*=-;>,')!~{]^/(_:<[}|1234567|890a:bcdefghi~jkl',mno-pqrs%tuvw+",
"+@#$%&*=-;>,')!~{]^/(_:<[}|1234567|890a:bcdefghi~jkl',mno-pqrs%tuvw+",
"+@#$%&*=-;>,')!~{]^/(_:<[}|1234567|890a:bcdefghi~jkl',mno-pqrs%tuvw+",
"+@#$%&*=-;>,')!~{]^/(_:<[}|1234567|890a:bcdefghi~jkl',mno-pqrs%tuvw+",
"+@#$%&*=-;>,')!~{]^/(_:<[}|1234567|890a:bcdefghi~jkl',mno-pqrs%tuvw+",
"...................................................................."};
