/* XPM */
static char * frame_horizontal_xpm[] = {
"68 4 58 1",
" 	c None",
".	c #C6C3B9",
"+	c #BAB7AD",
"@	c #ABA79C",
"#	c #C2BEB4",
"$	c #A39F94",
"%	c #BBB7AD",
"&	c #B5B1A7",
"*	c #BFBCB1",
"=	c #C3C0B6",
"-	c #C0BCB3",
";	c #C5C2B8",
">	c #C2BFB5",
",	c #B3AFA5",
"'	c #A09C91",
")	c #BDB9AF",
"!	c #A9A59A",
"~	c #B8B4AA",
"{	c #BAB6AC",
"]	c #B1ADA3",
"^	c #ADA99E",
"/	c #ACA89D",
"(	c #B7B3A9",
"_	c #B5B2A7",
":	c #B7B4A9",
"<	c #B6B3A8",
"[	c #ADA99F",
"}	c #BCB9AF",
"|	c #C3BFB5",
"1	c #B0ADA2",
"2	c #B3B0A5",
"3	c #B0ACA2",
"4	c #C4C1B7",
"5	c #B0ACA1",
"6	c #9E9A8F",
"7	c #A4A095",
"8	c #B9B5AB",
"9	c #A6A297",
"0	c #C1BDB3",
"a	c #BCB8AE",
"b	c #A7A399",
"c	c #C6C2B9",
"d	c #BAB7AC",
"e	c #B8B5AA",
"f	c #ADAA9F",
"g	c #B2AEA3",
"h	c #A4A096",
"i	c #AAA69B",
"j	c #BEBAB0",
"k	c #A7A398",
"l	c #B2AEA4",
"m	c #A19D92",
"n	c #A5A196",
"o	c #B1AEA3",
"p	c #C1BDB4",
"q	c #BEBBB1",
"r	c #B4B0A6",
"s	c #BFBCB2",
".+@#....$%.&*..=-..;>,'.)!~{..].^../.(_#@&;.,.:...<.[......{..$,$}..",
"|(.....=[.#...1....23....4**........56...)57..#.894...0=a.b.]..>.c.|",
"d....e......!bfg.e.@99|.h9*;.1.i..jk0/;.{l2|e.....9....9..<..m..(~.l",
";-..}.j.;.:{n.o.n.p@#.......>..9{.q..;...8.=r....$.q],s..(..b..f..,."};
