/* XPM */
static char * frame_side_xpm[] = {
"4 32 39 1",
" 	c None",
".	c #C6C3B9",
"+	c #B0ADA2",
"@	c #AAA69B",
"#	c #A6A297",
"$	c #BAB6AC",
"%	c #B8B5AA",
"&	c #B1ADA3",
"*	c #B2AEA4",
"=	c #C1BDB3",
"-	c #B9B5AB",
";	c #9F9B90",
">	c #B3AFA5",
",	c #BDB9AF",
"'	c #C5C2B8",
")	c #B7B3A9",
"!	c #BEBAB0",
"~	c #B5B1A7",
"{	c #C6C2B9",
"]	c #A9A59A",
"^	c #B5B2A7",
"/	c #C0BDB3",
"(	c #B1AEA3",
"_	c #A6A298",
":	c #BAB7AD",
"<	c #BCB8AF",
"[	c #A29E93",
"}	c #ADA99F",
"|	c #B4B0A6",
"1	c #A19D92",
"2	c #ACA99E",
"3	c #C4C1B7",
"4	c #B8B4AA",
"5	c #ACA89D",
"6	c #BAB7AC",
"7	c #AEAAA0",
"8	c #B0ACA1",
"9	c #A5A196",
"0	c #A39F94",
"....",
"+.@.",
"..#$",
"..%.",
"&..*",
"..=.",
"-+.;",
".>,.",
".%'.",
",)..",
"....",
"!.~.",
".{]^",
"./]]",
"....",
"-...",
"%&(_",
".:.<",
"....",
"[...",
"}.|.",
".).1",
"2{.~",
"'/34",
"...5",
"....",
"6...",
"._..",
"!7..",
".(..",
"+.8.",
"9.0#"};
