/* XPM */
static char * button_xpm[] = {
"12 9 54 1",
" 	c None",
".	c #9579B4",
"+	c #9774AF",
"@	c #8B6F9E",
"#	c #8C6C9F",
"$	c #8B6DA0",
"%	c #8E6DA0",
"&	c #856A97",
"*	c #6C607D",
"=	c #8E75AA",
"-	c #886F9E",
";	c #776287",
">	c #796287",
",	c #7A6089",
"'	c #705D7C",
")	c #392F42",
"!	c #79688F",
"~	c #6C6079",
"{	c #61566B",
"]	c #62546B",
"^	c #63566D",
"/	c #63576C",
"(	c #4F4457",
"_	c #07031A",
":	c #78678C",
"<	c #6A5D76",
"[	c #5D5265",
"}	c #5B5065",
"|	c #564D5E",
"1	c #605469",
"2	c #493E53",
"3	c #756588",
"4	c #655A71",
"5	c #5A4F62",
"6	c #584F60",
"7	c #534A5D",
"8	c #463C4F",
"9	c #6D627B",
"0	c #585263",
"a	c #4A4253",
"b	c #4C4657",
"c	c #494352",
"d	c #4A4154",
"e	c #6A6079",
"f	c #544E5F",
"g	c #463D50",
"h	c #473F50",
"i	c #342C3F",
"j	c #615B6E",
"k	c #4B4556",
"l	c #31293A",
"m	c #312A3B",
"n	c #2A2435",
"o	c #514C5B",
".+@##$@@@%&*",
"=-;>;;>>;,')",
"!~{]]]]^^/(_",
":<[}|||||12_",
"3456||||778_",
"90aaabbbcd)_",
"efgggggghhi_",
"jklllmmmlln_",
"o)__________"};
