/* XPM */
static char * eject_clicked_xpm[] = {
"12 9 53 1",
" 	c None",
".	c #07031A",
"+	c #392F42",
"@	c #514C5B",
"#	c #2A2435",
"$	c #31293A",
"%	c #312A3B",
"&	c #4B4556",
"*	c #615B6E",
"=	c #342C3F",
"-	c #473F50",
";	c #463D50",
">	c #000000",
",	c #544E5F",
"'	c #6A6079",
")	c #4A4154",
"!	c #494352",
"~	c #4A4253",
"{	c #585263",
"]	c #6D627B",
"^	c #463C4F",
"/	c #534A5D",
"(	c #584F60",
"_	c #5A4F62",
":	c #655A71",
"<	c #756588",
"[	c #493E53",
"}	c #605469",
"|	c #564D5E",
"1	c #5B5065",
"2	c #5D5265",
"3	c #6A5D76",
"4	c #78678C",
"5	c #4F4457",
"6	c #63576C",
"7	c #62546B",
"8	c #61566B",
"9	c #6C6079",
"0	c #79688F",
"a	c #705D7C",
"b	c #7A6089",
"c	c #776287",
"d	c #796287",
"e	c #886F9E",
"f	c #8E75AA",
"g	c #6C607D",
"h	c #856A97",
"i	c #8E6DA0",
"j	c #8B6F9E",
"k	c #8B6DA0",
"l	c #8C6C9F",
"m	c #9774AF",
"n	c #9579B4",
"..........+@",
".#$$%%%$$$&*",
".=--;>;;;;,'",
".+)!>>>~~~{]",
".^/>>>>>(_:<",
".[}|||||1234",
".56>>>>>7890",
"+abcddccdcef",
"ghijjjklljmn"};
