/* XPM */
static char * next_clicked_xpm[] = {
"12 9 54 1",
" 	c None",
".	c #07031A",
"+	c #392F42",
"@	c #514C5B",
"#	c #2A2435",
"$	c #31293A",
"%	c #312A3B",
"&	c #4B4556",
"*	c #615B6E",
"=	c #342C3F",
"-	c #473F50",
";	c #000000",
">	c #463D50",
",	c #544E5F",
"'	c #6A6079",
")	c #4A4154",
"!	c #4C4657",
"~	c #4A4253",
"{	c #585263",
"]	c #6D627B",
"^	c #463C4F",
"/	c #534A5D",
"(	c #564D5E",
"_	c #584F60",
":	c #5A4F62",
"<	c #655A71",
"[	c #756588",
"}	c #493E53",
"|	c #605469",
"1	c #5B5065",
"2	c #5D5265",
"3	c #6A5D76",
"4	c #78678C",
"5	c #4F4457",
"6	c #63576C",
"7	c #63566D",
"8	c #62546B",
"9	c #61566B",
"0	c #6C6079",
"a	c #79688F",
"b	c #705D7C",
"c	c #7A6089",
"d	c #776287",
"e	c #796287",
"f	c #886F9E",
"g	c #8E75AA",
"h	c #6C607D",
"i	c #856A97",
"j	c #8E6DA0",
"k	c #8B6F9E",
"l	c #8B6DA0",
"m	c #8C6C9F",
"n	c #9774AF",
"o	c #9579B4",
"..........+@",
".#$$%%%$$$&*",
".=-;>;>>>>,'",
".+);!;;~~~{]",
".^/;(;;;_:<[",
".}|;(;;(1234",
".56;7;88890a",
"+bcdeeddedfg",
"hijkkklmmkno"};
