/* XPM */
static char * next_xpm[] = {
"12 9 53 1",
" 	c None",
".	c #9579B4",
"+	c #9774AF",
"@	c #8B6F9E",
"#	c #8C6C9F",
"$	c #8B6DA0",
"%	c #8E6DA0",
"&	c #856A97",
"*	c #6C607D",
"=	c #8E75AA",
"-	c #886F9E",
";	c #776287",
">	c #796287",
",	c #7A6089",
"'	c #705D7C",
")	c #392F42",
"!	c #79688F",
"~	c #6C6079",
"{	c #61566B",
"]	c #000000",
"^	c #62546B",
"/	c #63566D",
"(	c #63576C",
"_	c #4F4457",
":	c #07031A",
"<	c #78678C",
"[	c #6A5D76",
"}	c #5D5265",
"|	c #564D5E",
"1	c #605469",
"2	c #493E53",
"3	c #756588",
"4	c #655A71",
"5	c #5A4F62",
"6	c #534A5D",
"7	c #463C4F",
"8	c #6D627B",
"9	c #585263",
"0	c #4A4253",
"a	c #4C4657",
"b	c #494352",
"c	c #4A4154",
"d	c #6A6079",
"e	c #544E5F",
"f	c #463D50",
"g	c #473F50",
"h	c #342C3F",
"i	c #615B6E",
"j	c #4B4556",
"k	c #31293A",
"l	c #312A3B",
"m	c #2A2435",
"n	c #514C5B",
".+@##$@@@%&*",
"=-;>;;>>;,')",
"!~{]^]^//(_:",
"<[}]|]]||12:",
"345]|]]]667:",
"890]0]]abc):",
"def]f]ffggh:",
"ijkkklllkkm:",
"n)::::::::::"};
