/* XPM */
static char * play_pause_clicked_xpm[] = {
"12 9 48 1",
" 	c None",
".	c #07031A",
"+	c #392F42",
"@	c #514C5B",
"#	c #2A2435",
"$	c #31293A",
"%	c #312A3B",
"&	c #4B4556",
"*	c #615B6E",
"=	c #342C3F",
"-	c #000000",
";	c #473F50",
">	c #463D50",
",	c #544E5F",
"'	c #6A6079",
")	c #4C4657",
"!	c #4A4253",
"~	c #585263",
"{	c #6D627B",
"]	c #463C4F",
"^	c #564D5E",
"/	c #5A4F62",
"(	c #655A71",
"_	c #756588",
":	c #493E53",
"<	c #5D5265",
"[	c #6A5D76",
"}	c #78678C",
"|	c #4F4457",
"1	c #63566D",
"2	c #62546B",
"3	c #61566B",
"4	c #6C6079",
"5	c #79688F",
"6	c #705D7C",
"7	c #7A6089",
"8	c #776287",
"9	c #796287",
"0	c #886F9E",
"a	c #8E75AA",
"b	c #6C607D",
"c	c #856A97",
"d	c #8E6DA0",
"e	c #8B6F9E",
"f	c #8B6DA0",
"g	c #8C6C9F",
"h	c #9774AF",
"i	c #9579B4",
"..........+@",
".#$$%%%$$$&*",
".=-;>>->->,'",
".+--))-!-!~{",
".]---^-^-/(_",
".:--^^-^-<[}",
".|-112-2-345",
"+6789988980a",
"bcdeeefggehi"};
