/* XPM */
static char * play_pause_xpm[] = {
"12 9 49 1",
" 	c None",
".	c #9579B4",
"+	c #9774AF",
"@	c #8B6F9E",
"#	c #8C6C9F",
"$	c #8B6DA0",
"%	c #8E6DA0",
"&	c #856A97",
"*	c #6C607D",
"=	c #8E75AA",
"-	c #886F9E",
";	c #776287",
">	c #796287",
",	c #7A6089",
"'	c #705D7C",
")	c #392F42",
"!	c #79688F",
"~	c #6C6079",
"{	c #000000",
"]	c #62546B",
"^	c #63566D",
"/	c #63576C",
"(	c #4F4457",
"_	c #07031A",
":	c #78678C",
"<	c #6A5D76",
"[	c #564D5E",
"}	c #605469",
"|	c #493E53",
"1	c #756588",
"2	c #655A71",
"3	c #534A5D",
"4	c #463C4F",
"5	c #6D627B",
"6	c #585263",
"7	c #4A4253",
"8	c #4C4657",
"9	c #4A4154",
"0	c #6A6079",
"a	c #544E5F",
"b	c #463D50",
"c	c #473F50",
"d	c #342C3F",
"e	c #615B6E",
"f	c #4B4556",
"g	c #31293A",
"h	c #312A3B",
"i	c #2A2435",
"j	c #514C5B",
".+@##$@@@%&*",
"=-;>;;>>;,')",
"!~{]]]{^{/(_",
":<{{[[{[{}|_",
"12{{{[{[{34_",
"56{{78{8{9)_",
"0a{bbb{b{cd_",
"efggghhhggi_",
"j)__________"};
