/* XPM */
static char * prev_clicked_xpm[] = {
"12 9 55 1",
" 	c None",
".	c #07031A",
"+	c #392F42",
"@	c #514C5B",
"#	c #2A2435",
"$	c #31293A",
"%	c #312A3B",
"&	c #4B4556",
"*	c #615B6E",
"=	c #342C3F",
"-	c #473F50",
";	c #463D50",
">	c #000000",
",	c #544E5F",
"'	c #6A6079",
")	c #4A4154",
"!	c #494352",
"~	c #4C4657",
"{	c #4A4253",
"]	c #585263",
"^	c #6D627B",
"/	c #463C4F",
"(	c #534A5D",
"_	c #564D5E",
":	c #584F60",
"<	c #5A4F62",
"[	c #655A71",
"}	c #756588",
"|	c #493E53",
"1	c #605469",
"2	c #5B5065",
"3	c #5D5265",
"4	c #6A5D76",
"5	c #78678C",
"6	c #4F4457",
"7	c #63576C",
"8	c #63566D",
"9	c #62546B",
"0	c #61566B",
"a	c #6C6079",
"b	c #79688F",
"c	c #705D7C",
"d	c #7A6089",
"e	c #776287",
"f	c #796287",
"g	c #886F9E",
"h	c #8E75AA",
"i	c #6C607D",
"j	c #856A97",
"k	c #8E6DA0",
"l	c #8B6F9E",
"m	c #8B6DA0",
"n	c #8C6C9F",
"o	c #9774AF",
"p	c #9579B4",
"..........+@",
".#$$%%%$$$&*",
".=--;>;>;;,'",
".+)!>>~>{{]^",
"./(>>>_>:<[}",
".|1_>>_>2345",
".6788>9>90ab",
"+cdeffeefegh",
"ijklllmnnlop"};
