/* XPM */
static char * stop_clicked_xpm[] = {
"12 9 51 1",
" 	c None",
".	c #07031A",
"+	c #392F42",
"@	c #514C5B",
"#	c #2A2435",
"$	c #31293A",
"%	c #312A3B",
"&	c #4B4556",
"*	c #615B6E",
"=	c #342C3F",
"-	c #473F50",
";	c #000000",
">	c #463D50",
",	c #544E5F",
"'	c #6A6079",
")	c #4A4154",
"!	c #4A4253",
"~	c #585263",
"{	c #6D627B",
"]	c #463C4F",
"^	c #534A5D",
"/	c #584F60",
"(	c #5A4F62",
"_	c #655A71",
":	c #756588",
"<	c #493E53",
"[	c #605469",
"}	c #5B5065",
"|	c #5D5265",
"1	c #6A5D76",
"2	c #78678C",
"3	c #4F4457",
"4	c #63576C",
"5	c #62546B",
"6	c #61566B",
"7	c #6C6079",
"8	c #79688F",
"9	c #705D7C",
"0	c #7A6089",
"a	c #776287",
"b	c #796287",
"c	c #886F9E",
"d	c #8E75AA",
"e	c #6C607D",
"f	c #856A97",
"g	c #8E6DA0",
"h	c #8B6F9E",
"i	c #8B6DA0",
"j	c #8C6C9F",
"k	c #9774AF",
"l	c #9579B4",
"..........+@",
".#$$%%%$$$&*",
".=-;;;;;>>,'",
".+);;;;;!!~{",
".]^;;;;;/(_:",
".<[;;;;;}|12",
".34;;;;;5678",
"+90abbaabacd",
"efghhhijjhkl"};
