/* XPM */
static char * stop_xpm[] = {
"12 9 51 1",
" 	c None",
".	c #9579B4",
"+	c #9774AF",
"@	c #8B6F9E",
"#	c #8C6C9F",
"$	c #8B6DA0",
"%	c #8E6DA0",
"&	c #856A97",
"*	c #6C607D",
"=	c #8E75AA",
"-	c #886F9E",
";	c #776287",
">	c #796287",
",	c #7A6089",
"'	c #705D7C",
")	c #392F42",
"!	c #79688F",
"~	c #6C6079",
"{	c #61566B",
"]	c #000000",
"^	c #63566D",
"/	c #63576C",
"(	c #4F4457",
"_	c #07031A",
":	c #78678C",
"<	c #6A5D76",
"[	c #5D5265",
"}	c #564D5E",
"|	c #605469",
"1	c #493E53",
"2	c #756588",
"3	c #655A71",
"4	c #5A4F62",
"5	c #534A5D",
"6	c #463C4F",
"7	c #6D627B",
"8	c #585263",
"9	c #4A4253",
"0	c #494352",
"a	c #4A4154",
"b	c #6A6079",
"c	c #544E5F",
"d	c #463D50",
"e	c #473F50",
"f	c #342C3F",
"g	c #615B6E",
"h	c #4B4556",
"i	c #31293A",
"j	c #312A3B",
"k	c #2A2435",
"l	c #514C5B",
".+@##$@@@%&*",
"=-;>;;>>;,')",
"!~{]]]]]^/(_",
":<[]]]]]}|1_",
"234]]]]]556_",
"789]]]]]0a)_",
"bcd]]]]]eef_",
"ghiiijjjiik_",
"l)__________"};
