/* XPM */
static char *magick[] = {
/* columns rows colors chars-per-pixel */
"80 5 196 2",
"   c #516178",
".  c #4b5b72",
"X  c #495970",
"o  c #47576f",
"O  c #45566d",
"+  c #43546c",
"@  c #41526a",
"#  c #405069",
"$  c #3e4f68",
"%  c #3d4e67",
"&  c #3c4d67",
"*  c #3c4d66",
"=  c #3b4c65",
"-  c #3a4b64",
";  c #3a4a64",
":  c #394a64",
">  c #394963",
",  c #394964",
"<  c #384963",
"1  c #384a63",
"2  c #384a62",
"3  c #384962",
"4  c #394a63",
"5  c #3a4a63",
"6  c #46566e",
"7  c #40536d",
"8  c #2b4161",
"9  c #293f5f",
"0  c #273d5d",
"q  c #253c5c",
"w  c #233a5b",
"e  c #213859",
"r  c #203658",
"t  c #1e3556",
"y  c #1d3456",
"u  c #1c3355",
"i  c #1c3354",
"p  c #1b3254",
"a  c #1a3153",
"s  c #1b3153",
"d  c #1a3053",
"f  c #1b3154",
"g  c #193153",
"h  c #193152",
"j  c #1a3152",
"k  c #1b3050",
"l  c #2e415d",
"z  c DarkSlateBlue",
"x  c #233c5f",
"c  c #2d4362",
"v  c #2c3f5c",
"b  c #334561",
"n  c #21395c",
"m  c #324766",
"M  c #283b58",
"N  c #2d3f5a",
"B  c #1d3557",
"V  c #374c6a",
"C  c #223553",
"Z  c #293b55",
"A  c #3c506d",
"S  c #1e314e",
"D  c #253750",
"F  c #172e4f",
"G  c #425671",
"H  c #182b49",
"J  c #22324c",
"K  c #152b4c",
"L  c #475a75",
"P  c #132745",
"I  c #1e2b41",
"U  c #121b2e",
"Y  c #121b2d",
"T  c #121a2d",
"R  c #111a2c",
"E  c #11192b",
"W  c #10182a",
"Q  c #10192b",
"!  c #111b2d",
"~  c #121c2e",
"^  c #131d30",
"/  c #131e31",
"(  c #141f32",
")  c #152033",
"_  c #152034",
"`  c #162236",
"'  c #172336",
"]  c #182338",
"[  c #182539",
"{  c #19253a",
"}  c #1a263b",
"|  c #1a273c",
" . c #1b283d",
".. c #1c293f",
"X. c #1c2a40",
"o. c #1d2b41",
"O. c #1e2c42",
"+. c #1e2d43",
"@. c #1f2e45",
"#. c #202f46",
"$. c #212f47",
"%. c #213148",
"&. c #223148",
"*. c #24324a",
"=. c #26344b",
"-. c #27354c",
";. c #29374e",
":. c #2b384e",
">. c #2c394f",
",. c #2d3a4f",
"<. c #2c384a",
"1. c #2e394b",
"2. c #303b4d",
"3. c #323d4f",
"4. c #343f50",
"5. c #364152",
"6. c #384354",
"7. c #394456",
"8. c #3b4657",
"9. c #3d4759",
"0. c #3f495b",
"q. c #414b5d",
"w. c #434d5e",
"e. c #454f60",
"r. c #475161",
"t. c #485363",
"y. c #4a5566",
"u. c #4d5767",
"i. c #4f5868",
"p. c #515b6c",
"a. c #566376",
"s. c #59687d",
"d. c #5b6a80",
"f. c #5c6c81",
"g. c #5f6e83",
"h. c #617085",
"j. c #627286",
"k. c #657488",
"l. c #66768a",
"z. c #68788c",
"x. c #6a7a8d",
"c. c #6c7b8f",
"v. c #6e7e91",
"b. c #68778b",
"n. c #0a1b35",
"m. c #142846",
"M. c #132744",
"N. c #122643",
"B. c #122542",
"V. c #112542",
"C. c #112441",
"Z. c #102340",
"A. c #10233f",
"S. c #10223f",
"D. c #0f223e",
"F. c #0f213e",
"G. c #0e213d",
"H. c #0e203c",
"J. c #0d203b",
"K. c #0d1f3b",
"L. c #0d1f3a",
"P. c #0c1e3a",
"I. c #0c1e39",
"U. c #0c1d39",
"Y. c #0b1d38",
"T. c #0b1c37",
"R. c #0a1b36",
"E. c #0a1a35",
"W. c #091a35",
"Q. c #091934",
"!. c #081933",
"~. c #081833",
"^. c #081832",
"/. c #071732",
"(. c #071731",
"). c #071630",
"_. c #081121",
"`. c #090d14",
"'. c #060910",
"]. c #04070e",
"[. c #04060d",
"{. c #03050b",
"}. c #000104",
"|. c #000004",
" X c #000005",
".X c #000105",
"XX c #000106",
"oX c #00020a",
"OX c #0b1626",
"+X c #102038",
"@X c #0e213e",
"#X c #0e223d",
"$X c #0e223c",
"%X c #0f233d",
"&X c #0a1d39",
"*X c #051836",
/* pixels */
"Z p p p p p p p p p p p p p p p p p p p p p p p p p p p p p p p p p p p p p p p p p p p p p p p p p p p p p p p p p p p p p p p p p p p p p p p p p p p p p A S ",
"D F F F F F F F F F F F F F F F F F F F F F F F F F F F F F F F F F F F F F F F F F F F F F F F F F F F F F F F F F F F F F F F F F F F F F F F F F F F F F G H ",
"J K K K K K K K K K K K K K K K K K K K K K K K K K K K K K K K K K K K K K K K K K K K K K K K K K K K K K K K K K K K K K K K K K K K K K K K K K K K K K L P ",
"I U Y T R E E W W W Q R ! ~ ^ / ( ) _ ` ' ] [ { } |  ...X.o.O.+.@.#.$.%.%.&.*.=.-.;.:.>.,.<.1.2.3.4.5.6.7.8.9.0.q.w.e.r.t.y.u.i.p.a.s.d.f.g.h.j.k.l.z.x.c.v.b.n.",
"m.m.P P M.N.N.B.V.C.C.Z.A.S.D.F.G.H.H.J.K.L.P.I.U.Y.T.T.R.R.E.W.Q.!.~.^./.(.)._.`.'.].[.{.}.|.|.|.|.}.}. X|..X.X.XXX.X X.X.X}.}.oXOX+X@X#X$X$X$X%X$X%X%X%X$X&X*X"
};
