/* XPM */
static char * bg_meter_xpm[] = {
"68 9 198 2",
"  	c None",
". 	c #726246",
"+ 	c #746347",
"@ 	c #675840",
"# 	c #65563E",
"$ 	c #6F5F45",
"% 	c #706045",
"& 	c #594D37",
"* 	c #6F5E43",
"= 	c #6E5E44",
"- 	c #726146",
"; 	c #756245",
"> 	c #716045",
", 	c #685941",
"' 	c #67583F",
") 	c #6D5D43",
"! 	c #786649",
"~ 	c #786346",
"{ 	c #6F5E44",
"] 	c #746245",
"^ 	c #756246",
"/ 	c #6D5E43",
"( 	c #716145",
"_ 	c #796446",
": 	c #7A6648",
"< 	c #736247",
"[ 	c #776447",
"} 	c #766448",
"| 	c #746145",
"1 	c #786143",
"2 	c #786548",
"3 	c #746246",
"4 	c #746247",
"5 	c #766548",
"6 	c #6C5D43",
"7 	c #6A5B42",
"8 	c #6B5C41",
"9 	c #746348",
"0 	c #6B5C42",
"a 	c #675940",
"b 	c #63553D",
"c 	c #6C5C42",
"d 	c #66573E",
"e 	c #685940",
"f 	c #6F5F44",
"g 	c #60523B",
"h 	c #715F43",
"i 	c #756447",
"j 	c #65573E",
"k 	c #786345",
"l 	c #786042",
"m 	c #463B2B",
"n 	c #493E2D",
"o 	c #3C3325",
"p 	c #43392A",
"q 	c #4A3F2D",
"r 	c #372F22",
"s 	c #403627",
"t 	c #433929",
"u 	c #473D2C",
"v 	c #4C412E",
"w 	c #453B2A",
"x 	c #463C2B",
"y 	c #423828",
"z 	c #3B3324",
"A 	c #3A3123",
"B 	c #493E2C",
"C 	c #4B402E",
"D 	c #3E3526",
"E 	c #3B3325",
"F 	c #3D3425",
"G 	c #342D20",
"H 	c #4D412F",
"I 	c #544833",
"J 	c #443A2A",
"K 	c #473D2B",
"L 	c #483D2C",
"M 	c #4F4330",
"N 	c #4C422F",
"O 	c #453A2A",
"P 	c #3F3627",
"Q 	c #3F3626",
"R 	c #362E21",
"S 	c #382F22",
"T 	c #332C1F",
"U 	c #342C20",
"V 	c #554834",
"W 	c #534733",
"X 	c #4F4431",
"Y 	c #4C412F",
"Z 	c #564A35",
"` 	c #514632",
" .	c #534632",
"..	c #514532",
"+.	c #2C251B",
"@.	c #31291E",
"#.	c #2C261B",
"$.	c #312A1E",
"%.	c #292319",
"&.	c #322A1E",
"*.	c #2E271C",
"=.	c #393023",
"-.	c #332B1F",
";.	c #30291D",
">.	c #272118",
",.	c #292219",
"'.	c #2B251A",
").	c #2F281D",
"!.	c #2A2419",
"~.	c #282218",
"{.	c #211C14",
"].	c #282219",
"^.	c #322B1F",
"/.	c #383022",
"(.	c #2D261C",
"_.	c #231E15",
":.	c #1B1710",
"<.	c #1E1A12",
"[.	c #1B1711",
"}.	c #1D1912",
"|.	c #252017",
"1.	c #1E1912",
"2.	c #1C1911",
"3.	c #1F1B13",
"4.	c #3C3425",
"5.	c #352D20",
"6.	c #3C3324",
"7.	c #372F21",
"8.	c #2D261B",
"9.	c #322B1E",
"0.	c #372E22",
"a.	c #2A2319",
"b.	c #262017",
"c.	c #221D15",
"d.	c #2A231A",
"e.	c #30281D",
"f.	c #2A241A",
"g.	c #312A1D",
"h.	c #2F291D",
"i.	c #2C251A",
"j.	c #19160F",
"k.	c #1D1911",
"l.	c #1C1811",
"m.	c #1F1A13",
"n.	c #252016",
"o.	c #201B13",
"p.	c #251F17",
"q.	c #2F281C",
"r.	c #2E281C",
"s.	c #342C1F",
"t.	c #413828",
"u.	c #383023",
"v.	c #2D271C",
"w.	c #241F16",
"x.	c #2B241A",
"y.	c #272117",
"z.	c #1D1812",
"A.	c #18150F",
"B.	c #272218",
"C.	c #262118",
"D.	c #30291E",
"E.	c #2D271B",
"F.	c #231E16",
"G.	c #1A1710",
"H.	c #201C14",
"I.	c #251F16",
"J.	c #352D21",
"K.	c #3E3426",
"L.	c #3B3224",
"M.	c #241E16",
"N.	c #3A3124",
"O.	c #393123",
"P.	c #282318",
"Q.	c #262117",
"R.	c #231D15",
"S.	c #221D14",
"T.	c #211D14",
"U.	c #18140E",
"V.	c #19150F",
"W.	c #1A1610",
"X.	c #221E15",
"Y.	c #1C1711",
"Z.	c #1A160F",
"`.	c #17140E",
" +	c #15120D",
".+	c #18140F",
"++	c #16120D",
"@+	c #16130D",
"#+	c #120F0B",
"$+	c #0E0C08",
"%+	c #0F0D09",
"&+	c #110F0B",
"*+	c #14110C",
"=+	c #12100B",
"-+	c #13110C",
";+	c #17130E",
">+	c #1E1A13",
",+	c #1D1811",
". + @ # $ % & * = + - ; > - - , ' ) ! ~ { % ] ^ / ( _ : < [ } . | 1 2 [ 3 4 ! ! 5 5 6 ) 7 8 ! 9 / 0 a b 0 + c d 9 7 e f g h i 5 j k l . ",
"m n o p q q r s t u v w t x y z A s B C D E F D G o H I J x t K L M N O P z L w w Q R r G R y D S r T U o y F x V W X Y D W Z Z `  ...y ",
"+.@.#.$.U G %.&.*.&.=.-.;.-.*.>.,.'.).-.!.~.~.>.{.].^./.(.;.;.;.-.R -.'.+.%.^.#.(._.:.<.[.}.~.|.{.1.2.3.|.;.T 4.D R G 5.^.D w t 6.r 7.).",
"%.8.+.^.9.-.%.).*.9.0.R ;.9.*.].(.8.(.*.>.a.>.b.c.d.e.$.f.8.8.(.).g.).,.h.*.U i.a.3.j.k.l.m.%.n.c.o.{.p.q.^.*.q.r.8.-.R s.D y t.S ^.-.q.",
"f.).8.U 9.T %.$.h.G S u.*.).v.'.8.8.8.(.b.+.%.%.w.f.(.&.i.*.x.8.8.8.*.].;.*.-.f.y.z.A.k.}.{.'.!.#.x.%.B.~.C.C.%.;.r.T r T F s D R ;.^.*.",
"+.D.*.5.5.5.i.@.h.5.=.R E.g.#.*.#.#.#.x.|.E.%.'.a.r.*.$.).*.#.*.v.+.q.f.;.*.(.B.F.G.A.H.b.(.r T #.I.{.H.c.|.w.].T ^.T J.U F K.L.G ).;.5.",
"x.8.r.U ^.^.).-.*.U 5.U *.;.+.*.x.#.).%.n.;.f.i.f.q.#.).;.(.+.(.v.x.8.%.;.g.d.|.|.m.{.i.D.8.#.|._._.c.{.M.b.|.%.G &.&.G R N.z O.5.$.R R ",
"_.F.|.P.I.Q.Q.>._.~.>.].w.I._.Q.{.R.|.{.m.%.M._.{.M.S.M.I.c.c.c.T.c._.H.B.8.>.w.3.U.V.}.3.<.m.W.l.l.G.V.z.<.}.{.%.B.Q.~.d.%.].x.8.q.~.X.",
"l.[.:.l.j.G.k.:.V.:.Y.k.j.Z.W.}.`.A.}.V. +}.V..+++`.A.V.A.j.@+.+A.}.F.w.M.~.l. +#+$+%+&+*+ + +=+-+*+*+=+ +`.;+W.3.>+,+z.}.:.j.G.k.m.3.<."};
