/* XPM */
static char * frame_right_xpm[] = {
"4 32 75 1",
" 	c None",
".	c #5A4B35",
"+	c #312A1E",
"@	c #322B1F",
"#	c #241F16",
"$	c #5C4E37",
"%	c #372F21",
"&	c #332C1F",
"*	c #272117",
"=	c #61533B",
"-	c #413727",
";	c #3C3324",
">	c #544733",
",	c #362E21",
"'	c #251F16",
")	c #584B36",
"!	c #332B1F",
"~	c #322B1E",
"{	c #231E15",
"]	c #5A4D37",
"^	c #2E281C",
"/	c #534732",
"(	c #252017",
"_	c #1B1711",
":	c #4B402E",
"<	c #18140F",
"[	c #493F2D",
"}	c #211C14",
"|	c #18150F",
"1	c #514531",
"2	c #252016",
"3	c #2B251A",
"4	c #4E4330",
"5	c #2C251B",
"6	c #1B1710",
"7	c #1B1810",
"8	c #221D15",
"9	c #19150F",
"0	c #1E1A12",
"a	c #16120D",
"b	c #594C36",
"c	c #2E271C",
"d	c #282219",
"e	c #2D271C",
"f	c #2F281C",
"g	c #282218",
"h	c #5A4C36",
"i	c #5B4C36",
"j	c #30291D",
"k	c #1F1B13",
"l	c #574A35",
"m	c #2D261B",
"n	c #1E1912",
"o	c #594B36",
"p	c #5B4D37",
"q	c #2F281D",
"r	c #1F1A13",
"s	c #4F4330",
"t	c #2A2419",
"u	c #524631",
"v	c #2B241A",
"w	c #554833",
"x	c #1D1912",
"y	c #564934",
"z	c #2C261B",
"A	c #201B14",
"B	c #4C412F",
"C	c #2A2319",
"D	c #201B13",
"E	c #221D14",
"F	c #544834",
"G	c #312A1D",
"H	c #322A1E",
"I	c #211D14",
"J	c #4F4431",
".+@#",
"$%&*",
"=-;#",
">,,'",
")!~{",
"]~^{",
"/^(_",
":*{<",
"[}#|",
"123|",
"4}56",
":789",
"/}0a",
"bcd0",
">efg",
"h53{",
"ij5k",
"lm5n",
"omck",
"pqcr",
"s'tn",
"ugv}",
"wvgx",
"ymzA",
"BC5D",
"yqcD",
"l!!8",
")!&E",
"smfE",
"FGHI",
"Jq+8",
"l5mA"};
