/* XPM */
static char * frame_top_xpm[] = {
"68 2 94 2",
"  	c None",
". 	c #7F705A",
"+ 	c #746347",
"@ 	c #675840",
"# 	c #65563E",
"$ 	c #6F5F45",
"% 	c #706045",
"& 	c #594D37",
"* 	c #6F5E43",
"= 	c #6E5E44",
"- 	c #726146",
"; 	c #756245",
"> 	c #716045",
", 	c #685941",
"' 	c #67583F",
") 	c #6D5D43",
"! 	c #786649",
"~ 	c #786346",
"{ 	c #6F5E44",
"] 	c #746245",
"^ 	c #756246",
"/ 	c #6D5E43",
"( 	c #716145",
"_ 	c #796446",
": 	c #7A6648",
"< 	c #736247",
"[ 	c #776447",
"} 	c #766448",
"| 	c #726246",
"1 	c #746145",
"2 	c #786143",
"3 	c #786548",
"4 	c #746246",
"5 	c #746247",
"6 	c #766548",
"7 	c #6C5D43",
"8 	c #6A5B42",
"9 	c #6B5C41",
"0 	c #746348",
"a 	c #6B5C42",
"b 	c #675940",
"c 	c #63553D",
"d 	c #6C5C42",
"e 	c #66573E",
"f 	c #685940",
"g 	c #6F5F44",
"h 	c #60523B",
"i 	c #715F43",
"j 	c #756447",
"k 	c #65573E",
"l 	c #786345",
"m 	c #786042",
"n 	c #342D20",
"o 	c #493E2D",
"p 	c #3C3325",
"q 	c #43392A",
"r 	c #4A3F2D",
"s 	c #372F22",
"t 	c #403627",
"u 	c #433929",
"v 	c #473D2C",
"w 	c #4C412E",
"x 	c #453B2A",
"y 	c #463C2B",
"z 	c #423828",
"A 	c #3B3324",
"B 	c #3A3123",
"C 	c #493E2C",
"D 	c #4B402E",
"E 	c #3E3526",
"F 	c #3B3325",
"G 	c #3D3425",
"H 	c #4D412F",
"I 	c #544833",
"J 	c #443A2A",
"K 	c #473D2B",
"L 	c #483D2C",
"M 	c #4F4330",
"N 	c #4C422F",
"O 	c #453A2A",
"P 	c #3F3627",
"Q 	c #3F3626",
"R 	c #362E21",
"S 	c #382F22",
"T 	c #332C1F",
"U 	c #342C20",
"V 	c #554834",
"W 	c #534733",
"X 	c #4F4431",
"Y 	c #4C412F",
"Z 	c #564A35",
"` 	c #514632",
" .	c #534632",
"..	c #514532",
". + @ # $ % & * = + - ; > - - , ' ) ! ~ { % ] ^ / ( _ : < [ } | 1 2 3 [ 4 5 ! ! 6 6 7 ) 8 9 ! 0 / a b c a + d e 0 8 f g h i j 6 k l m n ",
". o p q r r s t u v w x u y z A B t C D E F G E n p H I J y u K L M N O P A L x x Q R s n R z E S s T U p z G y V W X Y E W Z Z `  ...n "};
