/* XPM */
static char * bg_meter_host_xpm[] = {
"68 9 607 2",
"  	c None",
". 	c #7C5571",
"+ 	c #75546C",
"@ 	c #7D5F78",
"# 	c #83627B",
"$ 	c #957792",
"% 	c #A687A4",
"& 	c #A686A8",
"* 	c #BD9FC1",
"= 	c #B595B5",
"- 	c #9F759A",
"; 	c #A37299",
"> 	c #9B638D",
", 	c #A46793",
"' 	c #9E638D",
") 	c #986388",
"! 	c #956888",
"~ 	c #966B89",
"{ 	c #9B688A",
"] 	c #9F668B",
"^ 	c #A1688E",
"/ 	c #9D678B",
"( 	c #9A6789",
"_ 	c #A06A8D",
": 	c #A66B92",
"< 	c #AA6792",
"[ 	c #A96992",
"} 	c #A4688F",
"| 	c #A06389",
"1 	c #A0618A",
"2 	c #9F5A86",
"3 	c #9C5382",
"4 	c #9E5081",
"5 	c #A14D82",
"6 	c #A34E84",
"7 	c #A24E82",
"8 	c #9D4B7E",
"9 	c #A34D83",
"0 	c #A45586",
"a 	c #A35E87",
"b 	c #AA678F",
"c 	c #B06E96",
"d 	c #B06F95",
"e 	c #B56F99",
"f 	c #B56C98",
"g 	c #B36693",
"h 	c #AE5D8C",
"i 	c #AD5D8A",
"j 	c #AC6089",
"k 	c #A96187",
"l 	c #AC678C",
"m 	c #B16A90",
"n 	c #B47395",
"o 	c #AD7291",
"p 	c #AB7290",
"q 	c #A26F89",
"r 	c #9D7087",
"s 	c #A5738D",
"t 	c #A1718B",
"u 	c #997286",
"v 	c #876678",
"w 	c #8E677C",
"x 	c #8E6179",
"y 	c #7B616E",
"z 	c #705F65",
"A 	c #6A5E64",
"B 	c #72636A",
"C 	c #7C6872",
"D 	c #927284",
"E 	c #594152",
"F 	c #594756",
"G 	c #645062",
"H 	c #735970",
"I 	c #876985",
"J 	c #97779A",
"K 	c #D0BDE1",
"L 	c #F1EDFF",
"M 	c #B7A0C6",
"N 	c #A77BA5",
"O 	c #A36A99",
"P 	c #A16593",
"Q 	c #8E547F",
"R 	c #8D557C",
"S 	c #8E5A7F",
"T 	c #8E5C7F",
"U 	c #946083",
"V 	c #936083",
"W 	c #905D7F",
"X 	c #8E597D",
"Y 	c #95597F",
"Z 	c #965680",
"` 	c #985882",
" .	c #95567E",
"..	c #93577D",
"+.	c #91577B",
"@.	c #8C5477",
"#.	c #92547A",
"$.	c #8F5177",
"%.	c #864B70",
"&.	c #884570",
"*.	c #904170",
"=.	c #8E3B6E",
"-.	c #8F3A6F",
";.	c #974075",
">.	c #943D73",
",.	c #933E72",
"'.	c #974477",
").	c #994A7A",
"!.	c #974C79",
"~.	c #A15281",
"{.	c #A45684",
"].	c #AB5889",
"^.	c #A85385",
"/.	c #A64B81",
"(.	c #A8487F",
"_.	c #A04477",
":.	c #A24B7A",
"<.	c #994C73",
"[.	c #9E5778",
"}.	c #A3577B",
"|.	c #A95E83",
"1.	c #9F5E7C",
"2.	c #965B77",
"3.	c #975F7A",
"4.	c #8D5A71",
"5.	c #8A5A71",
"6.	c #875A6F",
"7.	c #83546C",
"8.	c #86536F",
"9.	c #854D6D",
"0.	c #794C63",
"a.	c #5D4750",
"b.	c #5B4A51",
"c.	c #56454C",
"d.	c #5F4954",
"e.	c #785768",
"f.	c #8D627A",
"g.	c #4A2E44",
"h.	c #523049",
"i.	c #5D3A56",
"j.	c #674261",
"k.	c #80597D",
"l.	c #9C77A1",
"m.	c #D4CEF7",
"n.	c #FFFFFF",
"o.	c #C4BEE7",
"p.	c #9A719D",
"q.	c #96578B",
"r.	c #914D81",
"s.	c #844574",
"t.	c #804770",
"u.	c #7A466B",
"v.	c #794B6B",
"w.	c #7E4B6E",
"x.	c #82476E",
"y.	c #82466E",
"z.	c #81406B",
"A.	c #7A3C65",
"B.	c #793862",
"C.	c #7B3B64",
"D.	c #743960",
"E.	c #77355F",
"F.	c #7F3763",
"G.	c #7A3760",
"H.	c #77375D",
"I.	c #73345C",
"J.	c #71345A",
"K.	c #732C59",
"L.	c #7A2A5C",
"M.	c #7C285C",
"N.	c #812B61",
"O.	c #852B62",
"P.	c #7E2A5D",
"Q.	c #7F2A5D",
"R.	c #872C64",
"S.	c #8A2E65",
"T.	c #8C3068",
"U.	c #92376D",
"V.	c #90366A",
"W.	c #9D3773",
"X.	c #A43676",
"Y.	c #AA3B7A",
"Z.	c #A13170",
"`.	c #9C326B",
" +	c #913362",
".+	c #963A67",
"++	c #96456A",
"@+	c #8F4665",
"#+	c #9C5371",
"$+	c #9F5775",
"%+	c #8B4A66",
"&+	c #8E4B6A",
"*+	c #814760",
"=+	c #7D425E",
"-+	c #793D5B",
";+	c #783B5B",
">+	c #733757",
",+	c #703755",
"'+	c #63334C",
")+	c #4F2D3E",
"!+	c #482A37",
"~+	c #442A37",
"{+	c #533143",
"]+	c #734560",
"^+	c #865171",
"/+	c #431C38",
"(+	c #512243",
"_+	c #642855",
":+	c #78386A",
"<+	c #905687",
"[+	c #8F5D8F",
"}+	c #B393C4",
"|+	c #C0B9E6",
"1+	c #AA8ABA",
"2+	c #B680B4",
"3+	c #87487C",
"4+	c #8C467B",
"5+	c #7A3668",
"6+	c #733561",
"7+	c #6C355D",
"8+	c #6E395E",
"9+	c #773C63",
"0+	c #7D3866",
"a+	c #7C2F60",
"b+	c #7B2D60",
"c+	c #73265A",
"d+	c #6C2953",
"e+	c #692550",
"f+	c #732656",
"g+	c #712455",
"h+	c #752356",
"i+	c #682150",
"j+	c #62214B",
"k+	c #69224D",
"l+	c #6A1D4C",
"m+	c #6B1D4E",
"n+	c #731C51",
"o+	c #7C1B56",
"p+	c #781D57",
"q+	c #7C1E58",
"r+	c #7B1D56",
"s+	c #761A52",
"t+	c #7C1E57",
"u+	c #81225B",
"v+	c #83215B",
"w+	c #8C2061",
"x+	c #952368",
"y+	c #99246A",
"z+	c #9A256A",
"A+	c #982668",
"B+	c #982B67",
"C+	c #982E65",
"D+	c #993267",
"E+	c #923562",
"F+	c #A14D6F",
"G+	c #9E536E",
"H+	c #9C586D",
"I+	c #955269",
"J+	c #8C4560",
"K+	c #8B4462",
"L+	c #6D324B",
"M+	c #663146",
"N+	c #6A2D4A",
"O+	c #763155",
"P+	c #672949",
"Q+	c #57223C",
"R+	c #471E31",
"S+	c #3F202F",
"T+	c #401C2D",
"U+	c #461830",
"V+	c #642348",
"W+	c #792F5C",
"X+	c #8B4570",
"Y+	c #431A37",
"Z+	c #542146",
"`+	c #692858",
" @	c #6C295D",
".@	c #75386A",
"+@	c #7F497A",
"@@	c #8F6090",
"#@	c #8A5B8D",
"$@	c #915A8E",
"%@	c #84457B",
"&@	c #7A376C",
"*@	c #7C416E",
"=@	c #612A53",
"-@	c #58244B",
";@	c #60264E",
">@	c #682654",
",@	c #652350",
"'@	c #601C48",
")@	c #6E2153",
"!@	c #6B194D",
"~@	c #68164C",
"{@	c #641449",
"]@	c #651449",
"^@	c #6B144E",
"/@	c #6A154B",
"(@	c #611545",
"_@	c #57143D",
":@	c #54123C",
"<@	c #5E1342",
"[@	c #631144",
"}@	c #651245",
"|@	c #70134C",
"1@	c #751250",
"2@	c #7B1353",
"3@	c #771250",
"4@	c #72124C",
"5@	c #73134E",
"6@	c #75154F",
"7@	c #7A1652",
"8@	c #801B57",
"9@	c #8D2163",
"0@	c #8D1B60",
"a@	c #962468",
"b@	c #902262",
"c@	c #8D2560",
"d@	c #87275A",
"e@	c #8E3260",
"f@	c #933862",
"g@	c #8F415E",
"h@	c #924E60",
"i@	c #AC6D77",
"j@	c #B87D80",
"k@	c #A2646C",
"l@	c #9E5A6C",
"m@	c #8B445F",
"n@	c #75354F",
"o@	c #662E44",
"p@	c #642842",
"q@	c #622142",
"r@	c #5C1D3D",
"s@	c #581A3B",
"t@	c #46182E",
"u@	c #321723",
"v@	c #301221",
"w@	c #4A1131",
"x@	c #6A1A48",
"y@	c #7E2A5C",
"z@	c #883D6B",
"A@	c #451437",
"B@	c #4D153D",
"C@	c #5A1C48",
"D@	c #672556",
"E@	c #6C2D5D",
"F@	c #6A305F",
"G@	c #834C7B",
"H@	c #713969",
"I@	c #743869",
"J@	c #7F4675",
"K@	c #632B56",
"L@	c #6A315D",
"M@	c #58234A",
"N@	c #612750",
"O@	c #5D1E4A",
"P@	c #692553",
"Q@	c #5B1545",
"R@	c #621347",
"S@	c #701853",
"T@	c #721651",
"U@	c #70154F",
"V@	c #641148",
"W@	c #5E0F43",
"X@	c #621044",
"Y@	c #601043",
"Z@	c #520F39",
"`@	c #4E0E36",
" #	c #570E3B",
".#	c #580F3D",
"+#	c #550F3A",
"@#	c #5C0F3F",
"##	c #651045",
"$#	c #6C104A",
"%#	c #72114E",
"&#	c #71124D",
"*#	c #74124F",
"=#	c #761351",
"-#	c #7B1453",
";#	c #7F1556",
">#	c #831759",
",#	c #821959",
"'#	c #801C57",
")#	c #7F1A55",
"!#	c #832058",
"~#	c #872B5D",
"{#	c #872B59",
"]#	c #923A63",
"^#	c #934662",
"/#	c #A86672",
"(#	c #B68B78",
"_#	c #E9E9B2",
":#	c #D5A796",
"<#	c #A1626E",
"[#	c #914A63",
"}#	c #803855",
"|#	c #6B2846",
"1#	c #662342",
"2#	c #601F3F",
"3#	c #5E1D3F",
"4#	c #551A39",
"5#	c #47172F",
"6#	c #41152B",
"7#	c #45132F",
"8#	c #5C103D",
"9#	c #6E174D",
"0#	c #792959",
"a#	c #863D69",
"b#	c #431334",
"c#	c #491338",
"d#	c #541842",
"e#	c #611D4E",
"f#	c #612051",
"g#	c #662A58",
"h#	c #6A2D5D",
"i#	c #662857",
"j#	c #672757",
"k#	c #6A2A59",
"l#	c #5E1D4B",
"m#	c #621D4D",
"n#	c #591745",
"o#	c #5D1746",
"p#	c #661B4D",
"q#	c #66154A",
"r#	c #671149",
"s#	c #6A134C",
"t#	c #640F48",
"u#	c #600E43",
"v#	c #610E43",
"w#	c #650F47",
"x#	c #600F43",
"y#	c #570E3C",
"z#	c #590D3F",
"A#	c #570C3C",
"B#	c #570B3B",
"C#	c #590C3D",
"D#	c #560D3A",
"E#	c #600D41",
"F#	c #600C41",
"G#	c #5D0C3F",
"H#	c #620C41",
"I#	c #650D44",
"J#	c #680D47",
"K#	c #6D0F48",
"L#	c #6D0F49",
"M#	c #6E104A",
"N#	c #70124B",
"O#	c #70134B",
"P#	c #72154D",
"Q#	c #74174D",
"R#	c #751B4E",
"S#	c #75204E",
"T#	c #77254E",
"U#	c #7E2E54",
"V#	c #843B56",
"W#	c #935861",
"X#	c #C0AD7E",
"Y#	c #CBCBCC",
"Z#	c #CFCFB4",
"`#	c #A57476",
" $	c #8F5265",
".$	c #813E5B",
"+$	c #733351",
"@$	c #642B45",
"#$	c #58243C",
"$$	c #532139",
"%$	c #4D1C34",
"&$	c #521A38",
"*$	c #56183B",
"=$	c #631743",
"-$	c #6E154B",
";$	c #731950",
">$	c #7C2A5C",
",$	c #873C6A",
"'$	c #3A0E2C",
")$	c #401132",
"!$	c #471237",
"~$	c #521841",
"{$	c #5E1E4C",
"]$	c #601E4E",
"^$	c #692456",
"/$	c #611E4F",
"($	c #5B1F4C",
"_$	c #571F48",
":$	c #551A44",
"<$	c #541942",
"[$	c #551541",
"}$	c #571742",
"|$	c #5A1845",
"1$	c #5A1242",
"2$	c #5E1044",
"3$	c #631548",
"4$	c #5E1144",
"5$	c #621046",
"6$	c #631046",
"7$	c #640F46",
"8$	c #5C0C3F",
"9$	c #590C3E",
"0$	c #580C3C",
"a$	c #5E0D41",
"b$	c #650D45",
"c$	c #630D43",
"d$	c #640D44",
"e$	c #620D42",
"f$	c #600C40",
"g$	c #5B0B3E",
"h$	c #590B3D",
"i$	c #570C3B",
"j$	c #560C3A",
"k$	c #560B3A",
"l$	c #580C3A",
"m$	c #5A0C3C",
"n$	c #5B0C3C",
"o$	c #5A0E3C",
"p$	c #5B0F3D",
"q$	c #5B113C",
"r$	c #5C123D",
"s$	c #5C153D",
"t$	c #601840",
"u$	c #631E42",
"v$	c #6C2949",
"w$	c #6C2F48",
"x$	c #814E59",
"y$	c #A38275",
"z$	c #A2956C",
"A$	c #8A6F5D",
"B$	c #71494C",
"C$	c #663644",
"D$	c #5C2F3F",
"E$	c #54283A",
"F$	c #521F37",
"G$	c #4E1A34",
"H$	c #4B1B32",
"I$	c #491730",
"J$	c #56133A",
"K$	c #611141",
"L$	c #670E43",
"M$	c #620E41",
"N$	c #601341",
"O$	c #67274E",
"P$	c #703A5A",
"Q$	c #3C0E2D",
"R$	c #3D0E2E",
"S$	c #481037",
"T$	c #53123F",
"U$	c #5C1747",
"V$	c #671F51",
"W$	c #5E1A4A",
"X$	c #561844",
"Y$	c #541B44",
"Z$	c #4C183E",
"`$	c #49163A",
" %	c #521A41",
".%	c #52133E",
"+%	c #4C1039",
"@%	c #4F123C",
"#%	c #55133F",
"$%	c #580F40",
"%%	c #5A0F40",
"&%	c #5B0D40",
"*%	c #5D1043",
"=%	c #590F3F",
"-%	c #550D3B",
";%	c #530B39",
">%	c #5F1043",
",%	c #5E0B40",
"'%	c #5F0A41",
")%	c #610A42",
"!%	c #5D0A3F",
"~%	c #5F0C41",
"{%	c #5C0B3E",
"]%	c #540A38",
"^%	c #510B37",
"/%	c #4D0934",
"(%	c #480930",
"_%	c #490931",
":%	c #490A31",
"<%	c #4C0A33",
"[%	c #4B0B32",
"}%	c #4C0C33",
"|%	c #4D0D34",
"1%	c #490D31",
"2%	c #491031",
"3%	c #4E1334",
"4%	c #4C1232",
"5%	c #4B1532",
"6%	c #561E3A",
"7%	c #5C2A41",
"8%	c #5D3341",
"9%	c #5B373D",
"0%	c #5A3C3B",
"a%	c #5E3B40",
"b%	c #592D3B",
"c%	c #542839",
"d%	c #411E2B",
"e%	c #431A2D",
"f%	c #471830",
"g%	c #43172D",
"h%	c #43152D",
"i%	c #47112F",
"j%	c #551239",
"k%	c #5A113E",
"l%	c #560F3A",
"m%	c #4A0D31",
"n%	c #42112E",
"o%	c #4F233D",
"p%	c #5F384F",
". + @ # $ % & * = - ; > , ' ) ! ~ { ] ^ / ( _ : < [ } | 1 2 3 4 5 6 7 8 9 0 a b c d e f g h i j k l m n o p q r s t u v w x y z A B C D ",
"E F G H I J K L M N O P Q R S T U V W X Y Z `  ...+.@.#.$.%.&.*.=.-.;.>.,.'.).!.~.{.].^./.(._.:.<.[.}.|.1.2.3.4.5.6.7.8.9.0.a.b.c.d.e.f.",
"g.h.i.j.k.l.m.n.o.p.q.r.s.t.u.v.w.x.y.z.A.B.C.D.E.F.G.H.I.J.K.L.M.N.O.P.Q.R.S.T.U.V.W.X.Y.Z.`. +.+++@+#+$+%+&+*+=+-+;+>+,+'+)+!+~+{+]+^+",
"/+(+_+:+<+[+}+|+1+2+3+4+5+6+7+8+9+0+a+b+c+d+e+f+g+h+i+j+k+l+m+n+o+p+q+r+s+t+u+v+w+x+y+z+A+B+C+D+E+F+G+H+I+J+K+L+M+N+O+P+Q+R+S+T+U+V+W+X+",
"Y+Z+`+ @.@+@@@#@$@%@&@*@=@-@;@>@,@'@)@!@~@{@]@^@/@(@_@:@<@[@}@|@1@2@3@4@5@6@7@8@9@0@a@b@c@d@e@f@g@h@i@j@k@l@m@n@o@p@q@r@s@t@u@v@w@x@y@z@",
"A@B@C@D@E@F@G@H@I@J@K@L@M@N@O@P@Q@R@S@T@U@V@W@X@Y@Z@`@ #.#+#@###$#%#&#*#*#=#-#;#>#,#'#)#!#~#{#]#^#/#(#_#:#<#[#}#|#1#2#3#4#5#6#7#8#9#0#a#",
"b#c#d#e#f#g#h#i#E@j#k#l#m#n#o#p#q#r#s#t#u#v#w#x#y#z#A#B#C#D#E#F#G#H#I#I#J#K#L#M#N#O#P#Q#R#S#T#U#V#W#X#Y#Z#`# $.$+$@$#$$$%$&$*$=$-$;$>$,$",
"'$)$!$~${$]$^$/$($_$:$<$[$}$|$1$2$3$4$5$6$7$8$9$0$a$b$c$d$e$f$g$h$0$i$j$k$l$m$n$o$p$q$r$s$t$u$v$w$x$y$z$A$B$C$D$E$F$G$H$I$J$K$L$M$N$O$P$",
"Q$R$S$T$U$V$W$X$Y$Z$`$ %.%+%@%#%$%%%&%*%=%-%;%>%,%'%)%)%!%~%{%B#]%^%/%(%_%:%<%[%}%|%1%2%3%4%5%6%7%8%9%0%a%b%c%d%e%f%g%h%i%j%k%l%m%n%o%p%"};
