/* XPM */
static char * frame_right_xpm[] = {
"4 32 5 1",
" 	c None",
".	c #7F7F7F",
"+	c #666666",
"@	c #4C4C4C",
"#	c #333333",
".+@#",
".+@#",
".+@#",
".+@#",
".+@#",
".+@#",
".+@#",
".+@#",
".+@#",
".+@#",
".+@#",
".+@#",
".+@#",
".+@#",
".+@#",
".+@#",
".+@#",
".+@#",
".+@#",
".+@#",
".+@#",
".+@#",
".+@#",
".+@#",
".+@#",
".+@#",
".+@#",
".+@#",
".+@#",
".+@#",
".+@#",
".+@#"};
