/* XPM */
static char * buttom_sweep_dn_xpm[] = {
"7 18 3 1",
" 	c None",
".	c #DEDAD5",
"+	c #4A4431",
"    .  ",
"   ..  ",
"  ...  ",
" ....  ",
"  ...  ",
"   ..  ",
"    .  ",
"       ",
"       ",
"       ",
"    +  ",
"   ++  ",
"  +++  ",
" ++++  ",
"  +++  ",
"   ++  ",
"    +  ",
"       "};
