/* XPM */
static char * krell_vu_xpm[] = {
"60 4 3 1",
" 	c None",
".	c #524439",
"+	c #CCCCCC",
".+..+..+..+..+..+..+..+..+..+..+..+..+..+..+..+..+..+..+..+.",
".+..+..+..+..+..+..+..+..+..+..+..+..+..+..+..+..+..+..+..+.",
".+..+..+..+..+..+..+..+..+..+..+..+..+..+..+..+..+..+..+..+.",
".+..+..+..+..+..+..+..+..+..+..+..+..+..+..+..+..+..+..+..+."};
