/* XPM */
static char * krell_sensitivity_xpm[] = {
"8 12 6 1",
" 	c None",
".	c #000000",
"+	c #B4ADA4",
"@	c #D5CFC9",
"#	c #F6F2EE",
"$	c #201F2D",
"....... ",
".+@#@+. ",
".+@#@+. ",
".+@#@+. ",
".+@#@+. ",
".+@#@+. ",
".+@#@+. ",
".+@#@+. ",
".+@#@+. ",
" $###.  ",
"  .#.   ",
"   .    "};
